<?xml version="1.0" encoding="UTF-8" standalone="no"?>
<svg
   xmlns:dc="http://purl.org/dc/elements/1.1/"
   xmlns:cc="http://creativecommons.org/ns#"
   xmlns:rdf="http://www.w3.org/1999/02/22-rdf-syntax-ns#"
   xmlns:svg="http://www.w3.org/2000/svg"
   xmlns="http://www.w3.org/2000/svg"
   xmlns:sodipodi="http://sodipodi.sourceforge.net/DTD/sodipodi-0.dtd"
   xmlns:inkscape="http://www.inkscape.org/namespaces/inkscape"
   inkscape:version="1.0 (4035a4f, 2020-05-01)"
   height="328.74805"
   width="696.30579"
   sodipodi:docname="confusing_size.svg"
   id="svg112"
   stroke-miterlimit="10"
   stroke-linecap="square"
   stroke="none"
   fill="none"
   viewBox="0 0 696.30579 328.74805"
   version="1.1">
  <metadata
     id="metadata118">
    <rdf:RDF>
      <cc:Work
         rdf:about="">
        <dc:format>image/svg+xml</dc:format>
        <dc:type
           rdf:resource="http://purl.org/dc/dcmitype/StillImage" />
      </cc:Work>
    </rdf:RDF>
  </metadata>
  <defs
     id="defs116" />
  <sodipodi:namedview
     inkscape:current-layer="g110"
     inkscape:window-maximized="0"
     inkscape:window-y="1105"
     inkscape:window-x="0"
     inkscape:cy="257.02098"
     inkscape:cx="521.80517"
     inkscape:zoom="0.95703125"
     showgrid="false"
     id="namedview114"
     inkscape:window-height="837"
     inkscape:window-width="1199"
     inkscape:pageshadow="2"
     inkscape:pageopacity="0"
     guidetolerance="10"
     gridtolerance="10"
     objecttolerance="10"
     borderopacity="1"
     bordercolor="#666666"
     pagecolor="#ffffff" />
  <clipPath
     id="p.0">
    <path
       id="path65"
       clip-rule="nonzero"
       d="M 0,0 H 1024 V 768 H 0 Z" />
  </clipPath>
  <g
     transform="translate(-61.77034,-23.53412)"
     id="g110"
     clip-path="url(#p.0)">
    <path
       id="path68"
       fill-rule="evenodd"
       d="M 0,0 H 1024 V 768 H 0 Z"
       fill-opacity="0"
       fill="#000000" />
    <g
       inkscape:export-ydpi="96"
       inkscape:export-xdpi="96"
       inkscape:export-filename="/Users/dylanbaker/Documents/explorables/explorable-ml/source/dataset-politics/img/confusing_size.png"
       id="g306">
      <path
         fill="#000000"
         fill-opacity="0"
         d="m 62.27034,24.03412 h 548.4095 V 351.78217 H 62.27034 Z"
         fill-rule="evenodd"
         id="path70" />
      <path
         stroke="#434343"
         stroke-width="1"
         stroke-linejoin="round"
         stroke-linecap="butt"
         d="m 62.27034,24.03412 h 548.4095 V 351.78217 H 62.27034 Z"
         fill-rule="evenodd"
         id="path72" />
      <path
         fill="#ffffff"
         d="M 125.03149,98.31233 H 353.09448 V 316.1391 H 125.03149 Z"
         fill-rule="evenodd"
         id="path74" />
      <path
         stroke="#000000"
         stroke-width="2"
         stroke-linejoin="round"
         stroke-linecap="butt"
         d="M 125.03149,98.31233 H 353.09448 V 316.1391 H 125.03149 Z"
         fill-rule="evenodd"
         id="path76" />
      <path
         fill="#000000"
         fill-opacity="0"
         d="m 420.29398,131.80315 h 75.68503 v 38.77165 h -75.68503 z"
         fill-rule="evenodd"
         id="path78" />
      <path
         fill="#000000"
         d="m 437.2471,152.10065 q 0,0.96875 -0.26563,1.75 -0.26562,0.76562 -0.76562,1.29687 -0.5,0.53125 -1.21875,0.82813 -0.70313,0.28125 -1.59375,0.28125 -0.6875,0 -1.42188,-0.125 -0.71875,-0.14063 -1.4375,-0.4375 v -10.57813 h 1.35938 v 3.04688 l -0.0625,1.45312 q 0.59375,-0.79687 1.25,-1.10937 0.67187,-0.32813 1.4375,-0.32813 0.67187,0 1.17187,0.28125 0.51563,0.28125 0.85938,0.79688 0.34375,0.5 0.51562,1.23437 0.17188,0.71875 0.17188,1.60938 z m -1.39063,0.0625 q 0,-0.625 -0.0937,-1.14063 -0.0781,-0.51562 -0.28125,-0.875 -0.1875,-0.375 -0.5,-0.57812 -0.29687,-0.20313 -0.71875,-0.20313 -0.26562,0 -0.53125,0.0781 -0.26562,0.0781 -0.54687,0.28125 -0.28125,0.1875 -0.60938,0.5 -0.3125,0.3125 -0.67187,0.78125 v 3.8125 q 0.40625,0.15625 0.8125,0.25 0.42187,0.0781 0.79687,0.0781 0.46875,0 0.89063,-0.14062 0.42187,-0.15625 0.75,-0.5 0.32812,-0.34375 0.51562,-0.92188 0.1875,-0.57812 0.1875,-1.42187 z m 6.15625,-2.71875 h -2.3125 v -1.125 h 3.6875 v 6.70312 h 2.34375 v 1.14063 h -6.29687 v -1.14063 h 2.57812 z m 0.48438,-4.42188 q 0.21875,0 0.40625,0.0937 0.20312,0.0781 0.34375,0.23438 0.15625,0.14062 0.23437,0.32812 0.0781,0.1875 0.0781,0.42188 0,0.21875 -0.0781,0.42187 -0.0781,0.1875 -0.23437,0.34375 -0.14063,0.14063 -0.34375,0.21875 -0.1875,0.0781 -0.40625,0.0781 -0.23438,0 -0.4375,-0.0781 -0.1875,-0.0781 -0.32813,-0.21875 -0.14062,-0.15625 -0.23437,-0.34375 -0.0781,-0.20312 -0.0781,-0.42187 0,-0.23438 0.0781,-0.42188 0.0937,-0.1875 0.23437,-0.32812 0.14063,-0.15625 0.32813,-0.23438 0.20312,-0.0937 0.4375,-0.0937 z m 11.29687,4.40625 q 0.21875,0.26563 0.32813,0.64063 0.125,0.35937 0.125,0.78125 0,0.60937 -0.21875,1.10937 -0.21875,0.5 -0.625,0.85938 -0.40625,0.35937 -0.98438,0.5625 -0.5625,0.20312 -1.23437,0.20312 -0.5,0 -0.9375,-0.10937 -0.42188,-0.10938 -0.67188,-0.26563 -0.14062,0.21875 -0.25,0.42188 -0.0937,0.1875 -0.0937,0.4375 0,0.29687 0.28125,0.5 0.28125,0.1875 0.75,0.20312 l 2.0625,0.0781 q 0.59375,0.0156 1.07813,0.15625 0.5,0.125 0.85937,0.375 0.35938,0.25 0.54688,0.625 0.20312,0.35937 0.20312,0.84375 0,0.53125 -0.23437,1 -0.21875,0.46875 -0.6875,0.8125 -0.46875,0.35937 -1.20313,0.5625 -0.71875,0.21875 -1.71875,0.21875 -0.95312,0 -1.625,-0.15625 -0.67187,-0.14063 -1.10937,-0.42188 -0.42188,-0.26562 -0.625,-0.64062 -0.1875,-0.35938 -0.1875,-0.8125 0,-0.5625 0.26562,-1 0.26563,-0.4375 0.82813,-0.82813 -0.20313,-0.0937 -0.35938,-0.23437 -0.14062,-0.14063 -0.23437,-0.3125 -0.0937,-0.17188 -0.14063,-0.35938 -0.0469,-0.1875 -0.0469,-0.35937 0,-0.51563 0.23437,-0.9375 0.23438,-0.42188 0.5625,-0.79688 -0.14062,-0.17187 -0.26562,-0.34375 -0.10938,-0.17187 -0.1875,-0.375 -0.0781,-0.20312 -0.125,-0.42187 -0.0469,-0.23438 -0.0469,-0.53125 0,-0.60938 0.21875,-1.10938 0.23438,-0.51562 0.625,-0.875 0.40625,-0.35937 0.96875,-0.54687 0.57813,-0.20313 1.26563,-0.20313 0.28125,0 0.54687,0.0469 0.26563,0.0312 0.46875,0.0937 h 2.84375 v 1.10937 z m -4.71875,7.875 q 0,0.54688 0.57813,0.79688 0.57812,0.26562 1.60937,0.26562 0.64063,0 1.07813,-0.125 0.45312,-0.10937 0.71875,-0.3125 0.26562,-0.1875 0.375,-0.4375 0.125,-0.23437 0.125,-0.5 0,-0.46875 -0.39063,-0.70312 -0.39062,-0.23438 -1.1875,-0.26563 l -2.04687,-0.0781 q -0.26563,0.17187 -0.4375,0.34375 -0.15625,0.17187 -0.25,0.32812 -0.0937,0.17188 -0.14063,0.34375 -0.0312,0.17188 -0.0312,0.34375 z m 0.40625,-6.42187 q 0,0.375 0.125,0.6875 0.125,0.3125 0.34375,0.53125 0.23438,0.21875 0.54688,0.34375 0.3125,0.10937 0.6875,0.10937 0.40625,0 0.71875,-0.125 0.3125,-0.14062 0.53125,-0.375 0.21875,-0.23437 0.32812,-0.53125 0.10938,-0.3125 0.10938,-0.64062 0,-0.375 -0.125,-0.6875 -0.125,-0.3125 -0.35938,-0.53125 -0.21875,-0.21875 -0.53125,-0.34375 -0.29687,-0.125 -0.67187,-0.125 -0.40625,0 -0.73438,0.14062 -0.3125,0.14063 -0.53125,0.375 -0.20312,0.23438 -0.32812,0.54688 -0.10938,0.29687 -0.10938,0.625 z"
         fill-rule="nonzero"
         id="path80" />
      <path
         fill="#000000"
         fill-opacity="0"
         d="M 125.03149,47.929134 H 596.49603 V 85.09449 H 125.03149 Z"
         fill-rule="evenodd"
         id="path82" />
      <path
         fill="#000000"
         d="m 141.29712,64.52476 q 0,0.5625 -0.21875,1.125 -0.20313,0.5625 -0.65625,1.015625 -0.45313,0.4375 -1.15625,0.71875 -0.70313,0.265625 -1.67188,0.265625 h -1.15625 v 3.359375 h -1.28125 V 61.64976 h 2.64063 q 0.6875,0 1.32812,0.15625 0.64063,0.15625 1.125,0.5 0.48438,0.34375 0.76563,0.890625 0.28125,0.546875 0.28125,1.328125 z m -1.3125,0.04687 q 0,-0.890625 -0.59375,-1.375 -0.59375,-0.484375 -1.65625,-0.484375 h -1.29688 v 3.859375 h 1.1875 q 1.125,0 1.73438,-0.5 0.625,-0.5 0.625,-1.5 z m 5.6987,-2.65625 h -2.125 v -1.01562 h 3.39062 v 9.078125 h 2.125 v 1.03125 h -5.75 v -1.03125 h 2.35938 z m 11.68307,5.125 q 0,0.265625 -0.0156,0.453125 0,0.171875 -0.0156,0.328125 h -5.04687 q 0,1.09375 0.60937,1.6875 0.625,0.59375 1.78125,0.59375 0.3125,0 0.625,-0.01563 0.3125,-0.03125 0.60938,-0.07813 0.29687,-0.04687 0.5625,-0.09375 0.26562,-0.0625 0.5,-0.125 v 1.03125 q -0.51563,0.140625 -1.15625,0.21875 -0.64063,0.09375 -1.32813,0.09375 -0.92187,0 -1.59375,-0.25 -0.65625,-0.25 -1.07812,-0.71875 -0.42188,-0.484375 -0.625,-1.171875 -0.20313,-0.6875 -0.20313,-1.5625 0,-0.765625 0.21875,-1.4375 0.21875,-0.671875 0.625,-1.1875 0.42188,-0.515625 1.03125,-0.8125 0.60938,-0.296875 1.375,-0.296875 0.76563,0 1.34375,0.234375 0.57813,0.234375 0.96875,0.671875 0.40625,0.4375 0.60938,1.0625 0.20312,0.609375 0.20312,1.375 z m -1.29687,-0.1875 q 0.0156,-0.46875 -0.10938,-0.859375 -0.10937,-0.40625 -0.34375,-0.6875 -0.23437,-0.296875 -0.59375,-0.453125 -0.35937,-0.15625 -0.82812,-0.15625 -0.40625,0 -0.75,0.15625 -0.32813,0.15625 -0.57813,0.4375 -0.25,0.28125 -0.40625,0.6875 -0.14062,0.40625 -0.17187,0.875 z m 7.90183,4.15625 -0.0312,-0.96875 q -0.59375,0.578125 -1.20313,0.84375 -0.59375,0.25 -1.26562,0.25 -0.60938,0 -1.04688,-0.15625 -0.4375,-0.15625 -0.71875,-0.421875 -0.28125,-0.28125 -0.42187,-0.65625 -0.125,-0.375 -0.125,-0.8125 0,-1.078125 0.79687,-1.6875 0.8125,-0.609375 2.39063,-0.609375 h 1.48437 v -0.64062 q 0,-0.625 -0.40625,-1 -0.40625,-0.390625 -1.25,-0.390625 -0.60937,0 -1.20312,0.140625 -0.57813,0.125 -1.21875,0.375 v -1.125 q 0.25,-0.07813 0.53125,-0.15625 0.29687,-0.09375 0.60937,-0.15625 0.32813,-0.0625 0.67188,-0.09375 0.35937,-0.04687 0.71875,-0.04687 0.64062,0 1.15625,0.140625 0.53125,0.140625 0.89062,0.4375 0.35938,0.296875 0.54688,0.75 0.20312,0.4375 0.20312,1.03125 v 4.953125 z m -0.14063,-3.265625 h -1.57812 q -0.46875,0 -0.8125,0.09375 -0.32813,0.09375 -0.54688,0.265625 -0.21875,0.171875 -0.32812,0.40625 -0.0937,0.234375 -0.0937,0.546875 0,0.203125 0.0625,0.390625 0.0625,0.1875 0.20312,0.34375 0.15625,0.140625 0.375,0.234375 0.23438,0.07813 0.5625,0.07813 0.4375,0 0.98438,-0.265625 0.5625,-0.265625 1.17187,-0.828125 z m 9.2612,1.3125 q 0,0.375 -0.125,0.671875 -0.125,0.296875 -0.34375,0.53125 -0.21875,0.234375 -0.51562,0.40625 -0.29688,0.15625 -0.64063,0.265625 -0.32812,0.109375 -0.6875,0.15625 -0.34375,0.04687 -0.67187,0.04687 -0.73438,0 -1.34375,-0.0625 -0.60938,-0.0625 -1.20313,-0.203125 v -1.140625 q 0.64063,0.171875 1.25,0.265625 0.625,0.09375 1.25,0.09375 0.89063,0 1.3125,-0.234375 0.4375,-0.25 0.4375,-0.703125 0,-0.1875 -0.0781,-0.34375 -0.0625,-0.15625 -0.25,-0.296875 -0.17188,-0.140625 -0.54688,-0.28125 -0.375,-0.15625 -1.01562,-0.359375 -0.5,-0.140625 -0.90625,-0.3125 -0.40625,-0.1875 -0.71875,-0.4375 -0.29688,-0.25 -0.46875,-0.578125 -0.17188,-0.34375 -0.17188,-0.8125 0,-0.296875 0.14063,-0.65625 0.14062,-0.359375 0.46875,-0.65625 0.34375,-0.3125 0.92187,-0.515625 0.57813,-0.203125 1.42188,-0.203125 0.42187,0 0.9375,0.04687 0.51562,0.04687 1.07812,0.15625 v 1.109375 q -0.57812,-0.140625 -1.10937,-0.203125 -0.53125,-0.07813 -0.90625,-0.07813 -0.46875,0 -0.79688,0.07813 -0.3125,0.0625 -0.51562,0.203125 -0.1875,0.125 -0.28125,0.296875 -0.0781,0.15625 -0.0781,0.34375 0,0.203125 0.0625,0.359375 0.0781,0.15625 0.28125,0.3125 0.21875,0.140625 0.57813,0.28125 0.35937,0.140625 0.95312,0.3125 0.64063,0.1875 1.0625,0.390625 0.4375,0.203125 0.70313,0.46875 0.28125,0.25 0.39062,0.5625 0.125,0.3125 0.125,0.71875 z m 8.4487,-2.015625 q 0,0.265625 -0.0156,0.453125 0,0.171875 -0.0156,0.328125 h -5.04687 q 0,1.09375 0.60937,1.6875 0.625,0.59375 1.78125,0.59375 0.3125,0 0.625,-0.01563 0.3125,-0.03125 0.60938,-0.07813 0.29687,-0.04687 0.5625,-0.09375 0.26562,-0.0625 0.5,-0.125 v 1.03125 q -0.51563,0.140625 -1.15625,0.21875 -0.64063,0.09375 -1.32813,0.09375 -0.92187,0 -1.59375,-0.25 -0.65625,-0.25 -1.07812,-0.71875 -0.42188,-0.484375 -0.625,-1.171875 -0.20313,-0.6875 -0.20313,-1.5625 0,-0.765625 0.21875,-1.4375 0.21875,-0.671875 0.625,-1.1875 0.42188,-0.515625 1.03125,-0.8125 0.60938,-0.296875 1.375,-0.296875 0.76563,0 1.34375,0.234375 0.57813,0.234375 0.96875,0.671875 0.40625,0.4375 0.60938,1.0625 0.20312,0.609375 0.20312,1.375 z m -1.29687,-0.1875 q 0.0156,-0.46875 -0.10938,-0.859375 -0.10937,-0.40625 -0.34375,-0.6875 -0.23437,-0.296875 -0.59375,-0.453125 -0.35937,-0.15625 -0.82812,-0.15625 -0.40625,0 -0.75,0.15625 -0.32813,0.15625 -0.57813,0.4375 -0.25,0.28125 -0.40625,0.6875 -0.14062,0.40625 -0.17187,0.875 z m 17.0224,2.203125 q 0,0.375 -0.125,0.671875 -0.125,0.296875 -0.34375,0.53125 -0.21875,0.234375 -0.51563,0.40625 -0.29687,0.15625 -0.64062,0.265625 -0.32813,0.109375 -0.6875,0.15625 -0.34375,0.04687 -0.67188,0.04687 -0.73437,0 -1.34375,-0.0625 -0.60937,-0.0625 -1.20312,-0.203125 v -1.140625 q 0.64062,0.171875 1.25,0.265625 0.625,0.09375 1.25,0.09375 0.89062,0 1.3125,-0.234375 0.4375,-0.25 0.4375,-0.703125 0,-0.1875 -0.0781,-0.34375 -0.0625,-0.15625 -0.25,-0.296875 -0.17187,-0.140625 -0.54687,-0.28125 -0.375,-0.15625 -1.01563,-0.359375 -0.5,-0.140625 -0.90625,-0.3125 -0.40625,-0.1875 -0.71875,-0.4375 -0.29687,-0.25 -0.46875,-0.578125 -0.17187,-0.34375 -0.17187,-0.8125 0,-0.296875 0.14062,-0.65625 0.14063,-0.359375 0.46875,-0.65625 0.34375,-0.3125 0.92188,-0.515625 0.57812,-0.203125 1.42187,-0.203125 0.42188,0 0.9375,0.04687 0.51563,0.04687 1.07813,0.15625 v 1.109375 q -0.57813,-0.140625 -1.10938,-0.203125 -0.53125,-0.07813 -0.90625,-0.07813 -0.46875,0 -0.79687,0.07813 -0.3125,0.0625 -0.51563,0.203125 -0.1875,0.125 -0.28125,0.296875 -0.0781,0.15625 -0.0781,0.34375 0,0.203125 0.0625,0.359375 0.0781,0.15625 0.28125,0.3125 0.21875,0.140625 0.57812,0.28125 0.35938,0.140625 0.95313,0.3125 0.64062,0.1875 1.0625,0.390625 0.4375,0.203125 0.70312,0.46875 0.28125,0.25 0.39063,0.5625 0.125,0.3125 0.125,0.71875 z m 8.4487,-2.015625 q 0,0.265625 -0.0156,0.453125 0,0.171875 -0.0156,0.328125 h -5.04688 q 0,1.09375 0.60938,1.6875 0.625,0.59375 1.78125,0.59375 0.3125,0 0.625,-0.01563 0.3125,-0.03125 0.60937,-0.07813 0.29688,-0.04687 0.5625,-0.09375 0.26563,-0.0625 0.5,-0.125 v 1.03125 q -0.51562,0.140625 -1.15625,0.21875 -0.64062,0.09375 -1.32812,0.09375 -0.92188,0 -1.59375,-0.25 -0.65625,-0.25 -1.07813,-0.71875 -0.42187,-0.484375 -0.625,-1.171875 -0.20312,-0.6875 -0.20312,-1.5625 0,-0.765625 0.21875,-1.4375 0.21875,-0.671875 0.625,-1.1875 0.42187,-0.515625 1.03125,-0.8125 0.60937,-0.296875 1.375,-0.296875 0.76562,0 1.34375,0.234375 0.57812,0.234375 0.96875,0.671875 0.40625,0.4375 0.60937,1.0625 0.20313,0.609375 0.20313,1.375 z m -1.29688,-0.1875 q 0.0156,-0.46875 -0.10937,-0.859375 -0.10938,-0.40625 -0.34375,-0.6875 -0.23438,-0.296875 -0.59375,-0.453125 -0.35938,-0.15625 -0.82813,-0.15625 -0.40625,0 -0.75,0.15625 -0.32812,0.15625 -0.57812,0.4375 -0.25,0.28125 -0.40625,0.6875 -0.14063,0.40625 -0.17188,0.875 z m 5.72995,-4.9375 h -2.125 v -1.01562 h 3.39063 v 9.078125 h 2.125 v 1.03125 h -5.75 v -1.03125 h 2.35937 z m 11.68308,5.125 q 0,0.265625 -0.0156,0.453125 0,0.171875 -0.0156,0.328125 h -5.04688 q 0,1.09375 0.60938,1.6875 0.625,0.59375 1.78125,0.59375 0.3125,0 0.625,-0.01563 0.3125,-0.03125 0.60937,-0.07813 0.29688,-0.04687 0.5625,-0.09375 0.26563,-0.0625 0.5,-0.125 v 1.03125 q -0.51562,0.140625 -1.15625,0.21875 -0.64062,0.09375 -1.32812,0.09375 -0.92188,0 -1.59375,-0.25 -0.65625,-0.25 -1.07813,-0.71875 -0.42187,-0.484375 -0.625,-1.171875 -0.20312,-0.6875 -0.20312,-1.5625 0,-0.765625 0.21875,-1.4375 0.21875,-0.671875 0.625,-1.1875 0.42187,-0.515625 1.03125,-0.8125 0.60937,-0.296875 1.375,-0.296875 0.76562,0 1.34375,0.234375 0.57812,0.234375 0.96875,0.671875 0.40625,0.4375 0.60937,1.0625 0.20313,0.609375 0.20313,1.375 z m -1.29688,-0.1875 q 0.0156,-0.46875 -0.10937,-0.859375 -0.10938,-0.40625 -0.34375,-0.6875 -0.23438,-0.296875 -0.59375,-0.453125 -0.35938,-0.15625 -0.82813,-0.15625 -0.40625,0 -0.75,0.15625 -0.32812,0.15625 -0.57812,0.4375 -0.25,0.28125 -0.40625,0.6875 -0.14063,0.40625 -0.17188,0.875 z m 8.87058,3.890625 q -0.5,0.1875 -1.01563,0.265625 -0.5,0.09375 -1.04687,0.09375 -1.70313,0 -2.625,-0.921875 -0.92188,-0.921875 -0.92188,-2.6875 0,-0.859375 0.26563,-1.546875 0.26562,-0.703125 0.75,-1.1875 0.48437,-0.5 1.14062,-0.765625 0.67188,-0.265625 1.46875,-0.265625 0.5625,0 1.04688,0.07813 0.48437,0.07813 0.9375,0.25 v 1.1875 q -0.46875,-0.234375 -0.95313,-0.34375 -0.48437,-0.109375 -1,-0.109375 -0.48437,0 -0.90625,0.1875 -0.42187,0.171875 -0.75,0.515625 -0.3125,0.34375 -0.5,0.84375 -0.1875,0.484375 -0.1875,1.109375 0,1.296875 0.625,1.953125 0.64063,0.640625 1.76563,0.640625 0.5,0 0.96875,-0.109375 0.48437,-0.109375 0.9375,-0.34375 z m 8.2612,0.171875 q -0.42188,0.09375 -0.875,0.140625 -0.45313,0.04687 -0.92188,0.04687 -1.34375,0 -2.01562,-0.609375 -0.65625,-0.609375 -0.65625,-1.875 v -3.75 h -2.01563 v -1.046875 h 2.01563 v -1.96875 l 1.23437,-0.328125 v 2.296875 h 3.23438 V 64.8685 h -3.23438 v 3.65625 q 0,0.765625 0.40625,1.15625 0.42188,0.375 1.21875,0.375 0.34375,0 0.75,-0.04687 0.40625,-0.0625 0.85938,-0.171875 z m 16.11615,0 q -0.42188,0.09375 -0.875,0.140625 -0.45313,0.04687 -0.92188,0.04687 -1.34375,0 -2.01562,-0.609375 -0.65625,-0.609375 -0.65625,-1.875 v -3.75 h -2.01563 v -1.046875 h 2.01563 v -1.96875 l 1.23437,-0.328125 v 2.296875 h 3.23438 V 64.8685 h -3.23438 v 3.65625 q 0,0.765625 0.40625,1.15625 0.42188,0.375 1.21875,0.375 0.34375,0 0.75,-0.04687 0.40625,-0.0625 0.85938,-0.171875 z m 8.04245,0.09375 h -1.25 v -4.59375 q 0,-0.828125 -0.3125,-1.234375 -0.3125,-0.40625 -0.89063,-0.40625 -0.25,0 -0.46875,0.0625 -0.21875,0.0625 -0.45312,0.234375 -0.23438,0.171875 -0.51563,0.453125 -0.28125,0.28125 -0.64062,0.71875 v 4.765625 h -1.25 V 60.89976 h 1.25 v 2.921875 l -0.0469,1.140625 q 0.29688,-0.359375 0.57813,-0.59375 0.28125,-0.25 0.5625,-0.390625 0.28125,-0.15625 0.57812,-0.21875 0.29688,-0.0625 0.60938,-0.0625 1.07812,0 1.65625,0.65625 0.59375,0.65625 0.59375,1.96875 z m 8.35494,-3.96875 q 0,0.265625 -0.0156,0.453125 0,0.171875 -0.0156,0.328125 h -5.04687 q 0,1.09375 0.60937,1.6875 0.625,0.59375 1.78125,0.59375 0.3125,0 0.625,-0.01563 0.3125,-0.03125 0.60938,-0.07813 0.29687,-0.04687 0.5625,-0.09375 0.26562,-0.0625 0.5,-0.125 v 1.03125 q -0.51563,0.140625 -1.15625,0.21875 -0.64063,0.09375 -1.32813,0.09375 -0.92187,0 -1.59375,-0.25 -0.65625,-0.25 -1.07812,-0.71875 -0.42188,-0.484375 -0.625,-1.171875 -0.20313,-0.6875 -0.20313,-1.5625 0,-0.765625 0.21875,-1.4375 0.21875,-0.671875 0.625,-1.1875 0.42188,-0.515625 1.03125,-0.8125 0.60938,-0.296875 1.375,-0.296875 0.76563,0 1.34375,0.234375 0.57813,0.234375 0.96875,0.671875 0.40625,0.4375 0.60938,1.0625 0.20312,0.609375 0.20312,1.375 z m -1.29687,-0.1875 q 0.0156,-0.46875 -0.10938,-0.859375 -0.10937,-0.40625 -0.34375,-0.6875 -0.23437,-0.296875 -0.59375,-0.453125 -0.35937,-0.15625 -0.82812,-0.15625 -0.40625,0 -0.75,0.15625 -0.32813,0.15625 -0.57813,0.4375 -0.25,0.28125 -0.40625,0.6875 -0.14062,0.40625 -0.17187,0.875 z m 17.47552,0.4375 q 0,0.890625 -0.25,1.59375 -0.23437,0.703125 -0.70312,1.203125 -0.45313,0.484375 -1.10938,0.75 -0.64062,0.25 -1.45312,0.25 -0.64063,0 -1.3125,-0.109375 -0.65625,-0.125 -1.3125,-0.390625 v -9.6875 h 1.25 v 2.78125 l -0.0625,1.328125 q 0.54687,-0.71875 1.15625,-1.015625 0.60937,-0.296875 1.3125,-0.296875 0.60937,0 1.07812,0.265625 0.46875,0.25 0.78125,0.71875 0.3125,0.46875 0.46875,1.140625 0.15625,0.65625 0.15625,1.46875 z m -1.26562,0.04687 q 0,-0.5625 -0.0937,-1.03125 -0.0781,-0.46875 -0.26563,-0.796875 -0.17187,-0.34375 -0.45312,-0.53125 -0.26563,-0.1875 -0.65625,-0.1875 -0.23438,0 -0.48438,0.07813 -0.23437,0.0625 -0.5,0.25 -0.26562,0.171875 -0.5625,0.46875 -0.28125,0.28125 -0.60937,0.703125 v 3.484375 q 0.35937,0.140625 0.73437,0.234375 0.39063,0.07813 0.73438,0.07813 0.42187,0 0.8125,-0.125 0.39062,-0.140625 0.6875,-0.453125 0.29687,-0.328125 0.46875,-0.859375 0.1875,-0.53125 0.1875,-1.3125 z m 9.2612,-0.296875 q 0,0.265625 -0.0156,0.453125 0,0.171875 -0.0156,0.328125 h -5.04688 q 0,1.09375 0.60938,1.6875 0.625,0.59375 1.78125,0.59375 0.3125,0 0.625,-0.01563 0.3125,-0.03125 0.60937,-0.07813 0.29688,-0.04687 0.5625,-0.09375 0.26563,-0.0625 0.5,-0.125 v 1.03125 q -0.51562,0.140625 -1.15625,0.21875 -0.64062,0.09375 -1.32812,0.09375 -0.92188,0 -1.59375,-0.25 -0.65625,-0.25 -1.07813,-0.71875 -0.42187,-0.484375 -0.625,-1.171875 -0.20312,-0.6875 -0.20312,-1.5625 0,-0.765625 0.21875,-1.4375 0.21875,-0.671875 0.625,-1.1875 0.42187,-0.515625 1.03125,-0.8125 0.60937,-0.296875 1.375,-0.296875 0.76562,0 1.34375,0.234375 0.57812,0.234375 0.96875,0.671875 0.40625,0.4375 0.60937,1.0625 0.20313,0.609375 0.20313,1.375 z m -1.29688,-0.1875 q 0.0156,-0.46875 -0.10937,-0.859375 -0.10938,-0.40625 -0.34375,-0.6875 -0.23438,-0.296875 -0.59375,-0.453125 -0.35938,-0.15625 -0.82813,-0.15625 -0.40625,0 -0.75,0.15625 -0.32812,0.15625 -0.57812,0.4375 -0.25,0.28125 -0.40625,0.6875 -0.14063,0.40625 -0.17188,0.875 z m 8.96433,2.203125 q 0,0.375 -0.125,0.671875 -0.125,0.296875 -0.34375,0.53125 -0.21875,0.234375 -0.51563,0.40625 -0.29687,0.15625 -0.64062,0.265625 -0.32813,0.109375 -0.6875,0.15625 -0.34375,0.04687 -0.67188,0.04687 -0.73437,0 -1.34375,-0.0625 -0.60937,-0.0625 -1.20312,-0.203125 V 69.72787 q 0.64062,0.171875 1.25,0.265625 0.625,0.09375 1.25,0.09375 0.89062,0 1.3125,-0.234375 0.4375,-0.25 0.4375,-0.703125 0,-0.1875 -0.0781,-0.34375 -0.0625,-0.15625 -0.25,-0.296875 -0.17187,-0.140625 -0.54687,-0.28125 -0.375,-0.15625 -1.01563,-0.359375 -0.5,-0.140625 -0.90625,-0.3125 -0.40625,-0.1875 -0.71875,-0.4375 -0.29687,-0.25 -0.46875,-0.578125 -0.17187,-0.34375 -0.17187,-0.8125 0,-0.296875 0.14062,-0.65625 0.14063,-0.359375 0.46875,-0.65625 0.34375,-0.3125 0.92188,-0.515625 0.57812,-0.203125 1.42187,-0.203125 0.42188,0 0.9375,0.04687 0.51563,0.04687 1.07813,0.15625 v 1.109375 q -0.57813,-0.140625 -1.10938,-0.203125 -0.53125,-0.07813 -0.90625,-0.07813 -0.46875,0 -0.79687,0.07813 -0.3125,0.0625 -0.51563,0.203125 -0.1875,0.125 -0.28125,0.296875 -0.0781,0.15625 -0.0781,0.34375 0,0.203125 0.0625,0.359375 0.0781,0.15625 0.28125,0.3125 0.21875,0.140625 0.57812,0.28125 0.35938,0.140625 0.95313,0.3125 0.64062,0.1875 1.0625,0.390625 0.4375,0.203125 0.70312,0.46875 0.28125,0.25 0.39063,0.5625 0.125,0.3125 0.125,0.71875 z m 8.16745,1.859375 q -0.42188,0.09375 -0.875,0.140625 -0.45313,0.04687 -0.92188,0.04687 -1.34375,0 -2.01562,-0.609375 -0.65625,-0.609375 -0.65625,-1.875 v -3.75 h -2.01563 V 63.82162 h 2.01563 v -1.96875 l 1.23437,-0.328125 v 2.296875 h 3.23438 v 1.046875 h -3.23438 v 3.65625 q 0,0.765625 0.40625,1.15625 0.42188,0.375 1.21875,0.375 0.34375,0 0.75,-0.04687 0.40625,-0.0625 0.85938,-0.171875 z M 326.10159,70.7435 q -0.5,0.1875 -1.01562,0.265625 -0.5,0.09375 -1.04688,0.09375 -1.70312,0 -2.625,-0.921875 -0.92187,-0.921875 -0.92187,-2.6875 0,-0.859375 0.26562,-1.546875 0.26563,-0.703125 0.75,-1.1875 0.48438,-0.5 1.14063,-0.765625 0.67187,-0.265625 1.46875,-0.265625 0.5625,0 1.04687,0.07813 0.48438,0.07813 0.9375,0.25 v 1.1875 q -0.46875,-0.234375 -0.95312,-0.34375 -0.48438,-0.109375 -1,-0.109375 -0.48438,0 -0.90625,0.1875 -0.42188,0.171875 -0.75,0.515625 -0.3125,0.34375 -0.5,0.84375 -0.1875,0.484375 -0.1875,1.109375 0,1.296875 0.625,1.953125 0.64062,0.640625 1.76562,0.640625 0.5,0 0.96875,-0.109375 0.48438,-0.109375 0.9375,-0.34375 z m 7.08933,0.265625 -0.0312,-0.96875 q -0.59375,0.578125 -1.20313,0.84375 -0.59375,0.25 -1.26562,0.25 -0.60938,0 -1.04688,-0.15625 -0.4375,-0.15625 -0.71875,-0.421875 -0.28125,-0.28125 -0.42187,-0.65625 -0.125,-0.375 -0.125,-0.8125 0,-1.078125 0.79687,-1.6875 0.8125,-0.609375 2.39063,-0.609375 h 1.48437 V 66.14976 q 0,-0.625 -0.40625,-1 -0.40625,-0.390625 -1.25,-0.390625 -0.60937,0 -1.20312,0.140625 -0.57813,0.125 -1.21875,0.375 v -1.125 q 0.25,-0.07813 0.53125,-0.15625 0.29687,-0.09375 0.60937,-0.15625 0.32813,-0.0625 0.67188,-0.09375 0.35937,-0.04687 0.71875,-0.04687 0.64062,0 1.15625,0.140625 0.53125,0.140625 0.89062,0.4375 0.35938,0.296875 0.54688,0.75 0.20312,0.4375 0.20312,1.03125 V 71.00914 Z M 333.05029,67.7435 h -1.57812 q -0.46875,0 -0.8125,0.09375 -0.32813,0.09375 -0.54688,0.265625 -0.21875,0.171875 -0.32812,0.40625 -0.0937,0.234375 -0.0937,0.546875 0,0.203125 0.0625,0.390625 0.0625,0.1875 0.20312,0.34375 0.15625,0.140625 0.375,0.234375 0.23438,0.07813 0.5625,0.07813 0.4375,0 0.98438,-0.265625 0.5625,-0.265625 1.17187,-0.828125 z m 9.37058,3.171875 q -0.42188,0.09375 -0.875,0.140625 -0.45313,0.04687 -0.92188,0.04687 -1.34375,0 -2.01562,-0.609375 -0.65625,-0.609375 -0.65625,-1.875 v -3.75 h -2.01563 V 63.82162 h 2.01563 v -1.96875 l 1.23437,-0.328125 v 2.296875 h 3.23438 v 1.046875 h -3.23438 v 3.65625 q 0,0.765625 0.40625,1.15625 0.42188,0.375 1.21875,0.375 0.34375,0 0.75,-0.04687 0.40625,-0.0625 0.85938,-0.171875 z m 8.33932,-3.875 q 0,0.265625 -0.0156,0.453125 0,0.171875 -0.0156,0.328125 h -5.04687 q 0,1.09375 0.60937,1.6875 0.625,0.59375 1.78125,0.59375 0.3125,0 0.625,-0.01563 0.3125,-0.03125 0.60938,-0.07813 0.29687,-0.04687 0.5625,-0.09375 0.26562,-0.0625 0.5,-0.125 v 1.03125 q -0.51563,0.140625 -1.15625,0.21875 -0.64063,0.09375 -1.32813,0.09375 -0.92187,0 -1.59375,-0.25 -0.65625,-0.25 -1.07812,-0.71875 -0.42188,-0.484375 -0.625,-1.171875 -0.20313,-0.6875 -0.20313,-1.5625 0,-0.765625 0.21875,-1.4375 0.21875,-0.671875 0.625,-1.1875 0.42188,-0.515625 1.03125,-0.8125 0.60938,-0.296875 1.375,-0.296875 0.76563,0 1.34375,0.234375 0.57813,0.234375 0.96875,0.671875 0.40625,0.4375 0.60938,1.0625 0.20312,0.609375 0.20312,1.375 z m -1.29687,-0.1875 q 0.0156,-0.46875 -0.10938,-0.859375 -0.10937,-0.40625 -0.34375,-0.6875 -0.23437,-0.296875 -0.59375,-0.453125 -0.35937,-0.15625 -0.82812,-0.15625 -0.40625,0 -0.75,0.15625 -0.32813,0.15625 -0.57813,0.4375 -0.25,0.28125 -0.40625,0.6875 -0.14062,0.40625 -0.17187,0.875 z m 8.4487,-2.015625 q 0.20312,0.25 0.3125,0.59375 0.10937,0.328125 0.10937,0.71875 0,0.546875 -0.20312,1.015625 -0.20313,0.453125 -0.57813,0.78125 -0.35937,0.328125 -0.89062,0.515625 -0.51563,0.1875 -1.14063,0.1875 -0.4375,0 -0.84375,-0.09375 -0.39062,-0.109375 -0.60937,-0.25 -0.14063,0.203125 -0.23438,0.390625 -0.0937,0.171875 -0.0937,0.390625 0,0.28125 0.25,0.46875 0.26563,0.171875 0.70313,0.171875 l 1.89062,0.07813 q 0.53125,0.01563 0.98438,0.140625 0.45312,0.125 0.78125,0.359375 0.32812,0.21875 0.5,0.5625 0.1875,0.328125 0.1875,0.765625 0,0.484375 -0.20313,0.90625 -0.20312,0.4375 -0.64062,0.765625 -0.4375,0.328125 -1.10938,0.515625 -0.65625,0.1875 -1.5625,0.1875 -0.875,0 -1.5,-0.140625 -0.60937,-0.125 -1,-0.375 -0.39062,-0.25 -0.57812,-0.59375 -0.17188,-0.34375 -0.17188,-0.75 0,-0.515625 0.23438,-0.921875 0.25,-0.390625 0.76562,-0.75 -0.1875,-0.07813 -0.32812,-0.203125 -0.14063,-0.140625 -0.23438,-0.296875 -0.0781,-0.15625 -0.125,-0.328125 -0.0312,-0.171875 -0.0312,-0.328125 0,-0.46875 0.21875,-0.84375 0.21875,-0.390625 0.51563,-0.734375 -0.14063,-0.171875 -0.25,-0.328125 -0.0937,-0.15625 -0.17188,-0.328125 -0.0781,-0.1875 -0.125,-0.390625 -0.0312,-0.21875 -0.0312,-0.5 0,-0.5625 0.20313,-1.015625 0.21875,-0.46875 0.57812,-0.796875 0.375,-0.328125 0.89063,-0.5 0.51562,-0.1875 1.14062,-0.1875 0.26563,0 0.51563,0.03125 0.25,0.03125 0.42187,0.09375 h 2.60938 v 1.015625 z m -4.3125,7.203125 q 0,0.515625 0.53125,0.75 0.53125,0.234375 1.46875,0.234375 0.59375,0 1,-0.109375 0.40625,-0.109375 0.64062,-0.28125 0.25,-0.171875 0.35938,-0.40625 0.10937,-0.21875 0.10937,-0.453125 0,-0.4375 -0.35937,-0.65625 -0.35938,-0.203125 -1.09375,-0.234375 l -1.875,-0.0625 q -0.23438,0.15625 -0.39063,0.296875 -0.15625,0.15625 -0.25,0.3125 -0.0781,0.15625 -0.10937,0.296875 -0.0312,0.15625 -0.0312,0.3125 z m 0.375,-5.875 q 0,0.34375 0.10937,0.640625 0.125,0.28125 0.32813,0.484375 0.20312,0.203125 0.48437,0.3125 0.28125,0.109375 0.625,0.109375 0.375,0 0.65625,-0.125 0.29688,-0.125 0.5,-0.34375 0.20313,-0.21875 0.29688,-0.484375 0.10937,-0.28125 0.10937,-0.59375 0,-0.34375 -0.125,-0.625 -0.10937,-0.28125 -0.3125,-0.484375 -0.20312,-0.203125 -0.5,-0.3125 -0.28125,-0.109375 -0.625,-0.109375 -0.35937,0 -0.65625,0.125 -0.28125,0.125 -0.48437,0.34375 -0.20313,0.203125 -0.3125,0.484375 -0.0937,0.28125 -0.0937,0.578125 z m 13.08932,1.1875 q 0,0.84375 -0.25,1.546875 -0.23437,0.6875 -0.67187,1.1875 -0.4375,0.5 -1.07813,0.78125 -0.64062,0.265625 -1.45312,0.265625 -0.76563,0 -1.39063,-0.234375 -0.60937,-0.234375 -1.03125,-0.703125 -0.42187,-0.46875 -0.65625,-1.15625 -0.21875,-0.6875 -0.21875,-1.578125 0,-0.84375 0.23438,-1.53125 0.23437,-0.6875 0.67187,-1.1875 0.45313,-0.5 1.09375,-0.765625 0.64063,-0.28125 1.4375,-0.28125 0.78125,0 1.39063,0.25 0.60937,0.234375 1.03125,0.703125 0.4375,0.453125 0.65625,1.140625 0.23437,0.6875 0.23437,1.5625 z m -1.28125,0.0625 q 0,-0.671875 -0.15625,-1.15625 -0.14062,-0.5 -0.42187,-0.828125 -0.26563,-0.34375 -0.65625,-0.5 -0.375,-0.171875 -0.85938,-0.171875 -0.5625,0 -0.96875,0.21875 -0.39062,0.21875 -0.64062,0.578125 -0.25,0.359375 -0.375,0.84375 -0.10938,0.484375 -0.10938,1.015625 0,0.671875 0.14063,1.171875 0.14062,0.5 0.40625,0.828125 0.28125,0.328125 0.67187,0.5 0.39063,0.171875 0.875,0.171875 0.5625,0 0.95313,-0.21875 0.39062,-0.21875 0.64062,-0.578125 0.26563,-0.375 0.375,-0.859375 0.125,-0.484375 0.125,-1.015625 z m 3.37058,-3.59375 h 1.14062 l 0.0312,1.328125 q 0.64063,-0.765625 1.25,-1.109375 0.625,-0.34375 1.25,-0.34375 1.125,0 1.70313,0.71875 0.57812,0.71875 0.53125,2.15625 h -1.26563 q 0.0312,-0.953125 -0.26562,-1.375 -0.29688,-0.421875 -0.875,-0.421875 -0.25,0 -0.51563,0.09375 -0.25,0.07813 -0.51562,0.28125 -0.26563,0.1875 -0.5625,0.5 -0.29688,0.3125 -0.64063,0.75 v 4.609375 h -1.26562 z m 14.15182,0 -2.4375,6.421875 q -0.39062,0.984375 -0.79687,1.6875 -0.39063,0.71875 -0.875,1.171875 -0.48438,0.453125 -1.0625,0.671875 -0.5625,0.21875 -1.26563,0.21875 -0.1875,0 -0.34375,-0.01563 -0.15625,0 -0.32812,-0.01563 v -1.140625 q 0.15625,0.03125 0.34375,0.04687 0.1875,0.01563 0.39062,0.01563 0.34375,0 0.64063,-0.109375 0.29687,-0.09375 0.5625,-0.328125 0.26562,-0.21875 0.5,-0.578125 0.25,-0.34375 0.48437,-0.859375 l -2.875,-7.1875 h 1.42188 l 1.8125,4.75 0.375,1.125 0.40625,-1.15625 1.6875,-4.71875 z M 399.40552,62.056 q -0.96875,-0.203125 -1.6875,-0.203125 -1.67188,0 -1.67188,1.75 V 64.8685 h 3.14063 v 1.03125 h -3.14063 v 5.109375 h -1.26562 V 65.89976 h -2.3125 v -1.03125 h 2.3125 v -1.1875 q 0,-2.875 2.98437,-2.875 0.75,0 1.64063,0.171875 z m -7.51563,1.765625 z m 15.46433,3.53125 q 0,0.84375 -0.25,1.546875 -0.23438,0.6875 -0.67188,1.1875 -0.4375,0.5 -1.07812,0.78125 -0.64063,0.265625 -1.45313,0.265625 -0.76562,0 -1.39062,-0.234375 -0.60938,-0.234375 -1.03125,-0.703125 -0.42188,-0.46875 -0.65625,-1.15625 -0.21875,-0.6875 -0.21875,-1.578125 0,-0.84375 0.23437,-1.53125 0.23438,-0.6875 0.67188,-1.1875 0.45312,-0.5 1.09375,-0.765625 0.64062,-0.28125 1.4375,-0.28125 0.78125,0 1.39062,0.25 0.60938,0.234375 1.03125,0.703125 0.4375,0.453125 0.65625,1.140625 0.23438,0.6875 0.23438,1.5625 z m -1.28125,0.0625 q 0,-0.671875 -0.15625,-1.15625 -0.14063,-0.5 -0.42188,-0.828125 -0.26562,-0.34375 -0.65625,-0.5 -0.375,-0.171875 -0.85937,-0.171875 -0.5625,0 -0.96875,0.21875 -0.39063,0.21875 -0.64063,0.578125 -0.25,0.359375 -0.375,0.84375 -0.10937,0.484375 -0.10937,1.015625 0,0.671875 0.14062,1.171875 0.14063,0.5 0.40625,0.828125 0.28125,0.328125 0.67188,0.5 0.39062,0.171875 0.875,0.171875 0.5625,0 0.95312,-0.21875 0.39063,-0.21875 0.64063,-0.578125 0.26562,-0.375 0.375,-0.859375 0.125,-0.484375 0.125,-1.015625 z m 3.37057,-3.59375 h 1.14063 l 0.0312,1.328125 q 0.64062,-0.765625 1.25,-1.109375 0.625,-0.34375 1.25,-0.34375 1.125,0 1.70312,0.71875 0.57813,0.71875 0.53125,2.15625 h -1.26562 q 0.0312,-0.953125 -0.26563,-1.375 -0.29687,-0.421875 -0.875,-0.421875 -0.25,0 -0.51562,0.09375 -0.25,0.07813 -0.51563,0.28125 -0.26562,0.1875 -0.5625,0.5 -0.29687,0.3125 -0.64062,0.75 v 4.609375 h -1.26563 z m 21.61615,7.09375 q -0.42187,0.09375 -0.875,0.140625 -0.45312,0.04687 -0.92187,0.04687 -1.34375,0 -2.01563,-0.609375 -0.65625,-0.609375 -0.65625,-1.875 v -3.75 h -2.01562 V 63.82162 h 2.01562 v -1.96875 l 1.23438,-0.328125 v 2.296875 h 3.23437 v 1.046875 h -3.23437 v 3.65625 q 0,0.765625 0.40625,1.15625 0.42187,0.375 1.21875,0.375 0.34375,0 0.75,-0.04687 0.40625,-0.0625 0.85937,-0.171875 z m 8.04245,0.09375 h -1.25 v -4.59375 q 0,-0.828125 -0.3125,-1.234375 -0.3125,-0.40625 -0.89062,-0.40625 -0.25,0 -0.46875,0.0625 -0.21875,0.0625 -0.45313,0.234375 -0.23437,0.171875 -0.51562,0.453125 -0.28125,0.28125 -0.64063,0.71875 v 4.765625 h -1.25 V 60.89976 h 1.25 v 2.921875 l -0.0469,1.140625 q 0.29687,-0.359375 0.57812,-0.59375 0.28125,-0.25 0.5625,-0.390625 0.28125,-0.15625 0.57813,-0.21875 0.29687,-0.0625 0.60937,-0.0625 1.07813,0 1.65625,0.65625 0.59375,0.65625 0.59375,1.96875 z m 8.35495,-3.96875 q 0,0.265625 -0.0156,0.453125 0,0.171875 -0.0156,0.328125 h -5.04687 q 0,1.09375 0.60937,1.6875 0.625,0.59375 1.78125,0.59375 0.3125,0 0.625,-0.01563 0.3125,-0.03125 0.60938,-0.07813 0.29687,-0.04687 0.5625,-0.09375 0.26562,-0.0625 0.5,-0.125 v 1.03125 q -0.51563,0.140625 -1.15625,0.21875 -0.64063,0.09375 -1.32813,0.09375 -0.92187,0 -1.59375,-0.25 -0.65625,-0.25 -1.07812,-0.71875 -0.42188,-0.484375 -0.625,-1.171875 -0.20313,-0.6875 -0.20313,-1.5625 0,-0.765625 0.21875,-1.4375 0.21875,-0.671875 0.625,-1.1875 0.42188,-0.515625 1.03125,-0.8125 0.60938,-0.296875 1.375,-0.296875 0.76563,0 1.34375,0.234375 0.57813,0.234375 0.96875,0.671875 0.40625,0.4375 0.60938,1.0625 0.20312,0.609375 0.20312,1.375 z m -1.29687,-0.1875 q 0.0156,-0.46875 -0.10938,-0.859375 -0.10937,-0.40625 -0.34375,-0.6875 -0.23437,-0.296875 -0.59375,-0.453125 -0.35937,-0.15625 -0.82812,-0.15625 -0.40625,0 -0.75,0.15625 -0.32813,0.15625 -0.57813,0.4375 -0.25,0.28125 -0.40625,0.6875 -0.14062,0.40625 -0.17187,0.875 z m 17.0224,2.203125 q 0,0.375 -0.125,0.671875 -0.125,0.296875 -0.34375,0.53125 -0.21875,0.234375 -0.51563,0.40625 -0.29687,0.15625 -0.64062,0.265625 -0.32813,0.109375 -0.6875,0.15625 -0.34375,0.04687 -0.67188,0.04687 -0.73437,0 -1.34375,-0.0625 -0.60937,-0.0625 -1.20312,-0.203125 V 69.72787 q 0.64062,0.171875 1.25,0.265625 0.625,0.09375 1.25,0.09375 0.89062,0 1.3125,-0.234375 0.4375,-0.25 0.4375,-0.703125 0,-0.1875 -0.0781,-0.34375 -0.0625,-0.15625 -0.25,-0.296875 -0.17187,-0.140625 -0.54687,-0.28125 -0.375,-0.15625 -1.01563,-0.359375 -0.5,-0.140625 -0.90625,-0.3125 -0.40625,-0.1875 -0.71875,-0.4375 -0.29687,-0.25 -0.46875,-0.578125 -0.17187,-0.34375 -0.17187,-0.8125 0,-0.296875 0.14062,-0.65625 0.14063,-0.359375 0.46875,-0.65625 0.34375,-0.3125 0.92188,-0.515625 0.57812,-0.203125 1.42187,-0.203125 0.42188,0 0.9375,0.04687 0.51563,0.04687 1.07813,0.15625 v 1.109375 q -0.57813,-0.140625 -1.10938,-0.203125 -0.53125,-0.07813 -0.90625,-0.07813 -0.46875,0 -0.79687,0.07813 -0.3125,0.0625 -0.51563,0.203125 -0.1875,0.125 -0.28125,0.296875 -0.0781,0.15625 -0.0781,0.34375 0,0.203125 0.0625,0.359375 0.0781,0.15625 0.28125,0.3125 0.21875,0.140625 0.57812,0.28125 0.35938,0.140625 0.95313,0.3125 0.64062,0.1875 1.0625,0.390625 0.4375,0.203125 0.70312,0.46875 0.28125,0.25 0.39063,0.5625 0.125,0.3125 0.125,0.71875 z m 8.15182,1.953125 h -1.25 v -4.59375 q 0,-0.828125 -0.3125,-1.234375 -0.3125,-0.40625 -0.89062,-0.40625 -0.25,0 -0.46875,0.0625 -0.21875,0.0625 -0.45313,0.234375 -0.23437,0.171875 -0.51562,0.453125 -0.28125,0.28125 -0.64063,0.71875 v 4.765625 h -1.25 V 60.89976 h 1.25 v 2.921875 l -0.0469,1.140625 q 0.29687,-0.359375 0.57812,-0.59375 0.28125,-0.25 0.5625,-0.390625 0.28125,-0.15625 0.57813,-0.21875 0.29687,-0.0625 0.60937,-0.0625 1.07813,0 1.65625,0.65625 0.59375,0.65625 0.59375,1.96875 z m 6.90183,0 -0.0312,-0.96875 q -0.59375,0.578125 -1.20313,0.84375 -0.59375,0.25 -1.26562,0.25 -0.60938,0 -1.04688,-0.15625 -0.4375,-0.15625 -0.71875,-0.421875 -0.28125,-0.28125 -0.42187,-0.65625 -0.125,-0.375 -0.125,-0.8125 0,-1.078125 0.79687,-1.6875 0.8125,-0.609375 2.39063,-0.609375 h 1.48437 V 66.14976 q 0,-0.625 -0.40625,-1 -0.40625,-0.390625 -1.25,-0.390625 -0.60937,0 -1.20312,0.140625 -0.57813,0.125 -1.21875,0.375 v -1.125 q 0.25,-0.07813 0.53125,-0.15625 0.29687,-0.09375 0.60937,-0.15625 0.32813,-0.0625 0.67188,-0.09375 0.35937,-0.04687 0.71875,-0.04687 0.64062,0 1.15625,0.140625 0.53125,0.140625 0.89062,0.4375 0.35938,0.296875 0.54688,0.75 0.20312,0.4375 0.20312,1.03125 V 71.00914 Z M 478.09564,67.7435 h -1.57812 q -0.46875,0 -0.8125,0.09375 -0.32813,0.09375 -0.54688,0.265625 -0.21875,0.171875 -0.32812,0.40625 -0.0937,0.234375 -0.0937,0.546875 0,0.203125 0.0625,0.390625 0.0625,0.1875 0.20312,0.34375 0.15625,0.140625 0.375,0.234375 0.23438,0.07813 0.5625,0.07813 0.4375,0 0.98438,-0.265625 0.5625,-0.265625 1.17187,-0.828125 z m 9.71433,-0.453125 q 0,0.953125 -0.26563,1.671875 -0.26562,0.71875 -0.75,1.1875 -0.46875,0.46875 -1.10937,0.703125 -0.64063,0.234375 -1.39063,0.234375 -0.34375,0 -0.6875,-0.03125 -0.34375,-0.03125 -0.6875,-0.125 v 3.015625 h -1.25 v -10.125 h 1.10938 l 0.0781,1.203125 q 0.54688,-0.734375 1.15625,-1.03125 0.60938,-0.296875 1.3125,-0.296875 0.60938,0 1.07813,0.265625 0.46875,0.25 0.78125,0.71875 0.3125,0.46875 0.46875,1.140625 0.15625,0.65625 0.15625,1.46875 z m -1.26563,0.04687 q 0,-0.5625 -0.0937,-1.03125 -0.0781,-0.46875 -0.26562,-0.796875 -0.17188,-0.34375 -0.45313,-0.53125 -0.26562,-0.1875 -0.65625,-0.1875 -0.23437,0 -0.48437,0.07813 -0.23438,0.0625 -0.5,0.25 -0.26563,0.171875 -0.5625,0.46875 -0.28125,0.28125 -0.60938,0.703125 v 3.484375 q 0.34375,0.140625 0.71875,0.234375 0.39063,0.07813 0.75,0.07813 1,0 1.57813,-0.6875 0.57812,-0.6875 0.57812,-2.0625 z m 9.2612,-0.296875 q 0,0.265625 -0.0156,0.453125 0,0.171875 -0.0156,0.328125 h -5.04687 q 0,1.09375 0.60937,1.6875 0.625,0.59375 1.78125,0.59375 0.3125,0 0.625,-0.01563 0.3125,-0.03125 0.60938,-0.07813 0.29687,-0.04687 0.5625,-0.09375 0.26562,-0.0625 0.5,-0.125 v 1.03125 q -0.51563,0.140625 -1.15625,0.21875 -0.64063,0.09375 -1.32813,0.09375 -0.92187,0 -1.59375,-0.25 -0.65625,-0.25 -1.07812,-0.71875 -0.42188,-0.484375 -0.625,-1.171875 -0.20313,-0.6875 -0.20313,-1.5625 0,-0.765625 0.21875,-1.4375 0.21875,-0.671875 0.625,-1.1875 0.42188,-0.515625 1.03125,-0.8125 0.60938,-0.296875 1.375,-0.296875 0.76563,0 1.34375,0.234375 0.57813,0.234375 0.96875,0.671875 0.40625,0.4375 0.60938,1.0625 0.20312,0.609375 0.20312,1.375 z m -1.29687,-0.1875 q 0.0156,-0.46875 -0.10938,-0.859375 -0.10937,-0.40625 -0.34375,-0.6875 -0.23437,-0.296875 -0.59375,-0.453125 -0.35937,-0.15625 -0.82812,-0.15625 -0.40625,0 -0.75,0.15625 -0.32813,0.15625 -0.57813,0.4375 -0.25,0.28125 -0.40625,0.6875 -0.14062,0.40625 -0.17187,0.875 z m 17.47552,0.4375 q 0,0.890625 -0.25,1.59375 -0.23437,0.703125 -0.70312,1.203125 -0.45313,0.484375 -1.10938,0.75 -0.64062,0.25 -1.45312,0.25 -0.64063,0 -1.3125,-0.109375 -0.65625,-0.125 -1.3125,-0.390625 v -9.6875 h 1.25 v 2.78125 l -0.0625,1.328125 q 0.54687,-0.71875 1.15625,-1.015625 0.60937,-0.296875 1.3125,-0.296875 0.60937,0 1.07812,0.265625 0.46875,0.25 0.78125,0.71875 0.3125,0.46875 0.46875,1.140625 0.15625,0.65625 0.15625,1.46875 z m -1.26562,0.04687 q 0,-0.5625 -0.0937,-1.03125 -0.0781,-0.46875 -0.26563,-0.796875 -0.17187,-0.34375 -0.45312,-0.53125 -0.26563,-0.1875 -0.65625,-0.1875 -0.23438,0 -0.48438,0.07813 -0.23437,0.0625 -0.5,0.25 -0.26562,0.171875 -0.5625,0.46875 -0.28125,0.28125 -0.60937,0.703125 v 3.484375 q 0.35937,0.140625 0.73437,0.234375 0.39063,0.07813 0.73438,0.07813 0.42187,0 0.8125,-0.125 0.39062,-0.140625 0.6875,-0.453125 0.29687,-0.328125 0.46875,-0.859375 0.1875,-0.53125 0.1875,-1.3125 z m 9.26123,-0.296875 q 0,0.265625 -0.0156,0.453125 0,0.171875 -0.0156,0.328125 h -5.04688 q 0,1.09375 0.60938,1.6875 0.625,0.59375 1.78125,0.59375 0.3125,0 0.625,-0.01563 0.3125,-0.03125 0.60937,-0.07813 0.29688,-0.04687 0.5625,-0.09375 0.26563,-0.0625 0.5,-0.125 v 1.03125 q -0.51562,0.140625 -1.15625,0.21875 -0.64062,0.09375 -1.32812,0.09375 -0.92188,0 -1.59375,-0.25 -0.65625,-0.25 -1.07813,-0.71875 -0.42187,-0.484375 -0.625,-1.171875 -0.20312,-0.6875 -0.20312,-1.5625 0,-0.765625 0.21875,-1.4375 0.21875,-0.671875 0.625,-1.1875 0.42187,-0.515625 1.03125,-0.8125 0.60937,-0.296875 1.375,-0.296875 0.76562,0 1.34375,0.234375 0.57812,0.234375 0.96875,0.671875 0.40625,0.4375 0.60937,1.0625 0.20313,0.609375 0.20313,1.375 z m -1.29688,-0.1875 q 0.0156,-0.46875 -0.10937,-0.859375 -0.10938,-0.40625 -0.34375,-0.6875 -0.23438,-0.296875 -0.59375,-0.453125 -0.35938,-0.15625 -0.82813,-0.15625 -0.40625,0 -0.75,0.15625 -0.32812,0.15625 -0.57812,0.4375 -0.25,0.28125 -0.40625,0.6875 -0.14063,0.40625 -0.17188,0.875 z m 5.72992,-4.9375 h -2.125 V 60.89976 h 3.39063 v 9.078125 h 2.125 v 1.03125 h -5.75 v -1.03125 h 2.35937 z m 11.87061,5.4375 q 0,0.84375 -0.25,1.546875 -0.23438,0.6875 -0.67188,1.1875 -0.4375,0.5 -1.07812,0.78125 -0.64063,0.265625 -1.45313,0.265625 -0.76562,0 -1.39062,-0.234375 -0.60938,-0.234375 -1.03125,-0.703125 -0.42188,-0.46875 -0.65625,-1.15625 -0.21875,-0.6875 -0.21875,-1.578125 0,-0.84375 0.23437,-1.53125 0.23438,-0.6875 0.67188,-1.1875 0.45312,-0.5 1.09375,-0.765625 0.64062,-0.28125 1.4375,-0.28125 0.78125,0 1.39062,0.25 0.60938,0.234375 1.03125,0.703125 0.4375,0.453125 0.65625,1.140625 0.23438,0.6875 0.23438,1.5625 z m -1.28125,0.0625 q 0,-0.671875 -0.15625,-1.15625 -0.14063,-0.5 -0.42188,-0.828125 -0.26562,-0.34375 -0.65625,-0.5 -0.375,-0.171875 -0.85937,-0.171875 -0.5625,0 -0.96875,0.21875 -0.39063,0.21875 -0.64063,0.578125 -0.25,0.359375 -0.375,0.84375 -0.10937,0.484375 -0.10937,1.015625 0,0.671875 0.14062,1.171875 0.14063,0.5 0.40625,0.828125 0.28125,0.328125 0.67188,0.5 0.39062,0.171875 0.875,0.171875 0.5625,0 0.95312,-0.21875 0.39063,-0.21875 0.64063,-0.578125 0.26562,-0.375 0.375,-0.859375 0.125,-0.484375 0.125,-1.015625 z m 9.72992,-3.59375 -1.04688,7.1875 h -1.5 l -1.04687,-3 -0.20313,-0.734375 -0.23437,0.765625 -1,2.96875 h -1.46875 l -1.03125,-7.1875 h 1.21875 l 0.59375,4.890625 0.14062,1.078125 0.29688,-0.953125 1.04687,-3.21875 h 0.89063 l 1.125,3.171875 0.32812,0.953125 0.10938,-1 0.54687,-4.921875 z m 4.22998,4.9375 q 0.25,0 0.46875,0.09375 0.21875,0.09375 0.375,0.265625 0.15625,0.15625 0.25,0.375 0.0937,0.21875 0.0937,0.46875 0,0.234375 -0.0937,0.453125 -0.0937,0.21875 -0.25,0.375 -0.15625,0.15625 -0.375,0.25 -0.21875,0.09375 -0.46875,0.09375 -0.25,0 -0.46875,-0.09375 -0.20313,-0.09375 -0.375,-0.25 -0.15625,-0.15625 -0.25,-0.375 -0.0937,-0.21875 -0.0937,-0.453125 0,-0.25 0.0937,-0.46875 0.0937,-0.21875 0.25,-0.375 0.17187,-0.171875 0.375,-0.265625 0.21875,-0.09375 0.46875,-0.09375 z"
         fill-rule="nonzero"
         id="path84" />
      <path
         fill="#000000"
         fill-opacity="0"
         d="m 420.29398,172.34645 h 94.1102 v 38.77165 h -94.1102 z"
         fill-rule="evenodd"
         id="path86" />
      <path
         fill="#000000"
         d="m 436.76273,194.56583 q 0,0.40625 -0.14063,0.73437 -0.14062,0.32813 -0.39062,0.59375 -0.23438,0.25 -0.5625,0.4375 -0.3125,0.17188 -0.6875,0.29688 -0.35938,0.10937 -0.75,0.15625 -0.375,0.0625 -0.73438,0.0625 -0.79687,0 -1.46875,-0.0781 -0.67187,-0.0625 -1.3125,-0.21875 v -1.25 q 0.6875,0.1875 1.35938,0.29688 0.6875,0.0937 1.35937,0.0937 0.98438,0 1.45313,-0.26563 0.46875,-0.26562 0.46875,-0.75 0,-0.21875 -0.0781,-0.375 -0.0781,-0.17187 -0.28125,-0.32812 -0.1875,-0.15625 -0.59375,-0.3125 -0.40625,-0.17188 -1.125,-0.375 -0.53125,-0.15625 -0.98437,-0.35938 -0.4375,-0.20312 -0.76563,-0.46875 -0.32812,-0.28125 -0.51562,-0.64062 -0.1875,-0.375 -0.1875,-0.875 0,-0.32813 0.14062,-0.71875 0.15625,-0.39063 0.51563,-0.71875 0.375,-0.34375 1,-0.5625 0.625,-0.21875 1.5625,-0.21875 0.46875,0 1.03125,0.0469 0.5625,0.0469 1.17187,0.17188 v 1.21875 q -0.64062,-0.15625 -1.21875,-0.23438 -0.57812,-0.0781 -1,-0.0781 -0.5,0 -0.85937,0.0781 -0.34375,0.0781 -0.5625,0.21875 -0.20313,0.14063 -0.29688,0.32813 -0.0937,0.17187 -0.0937,0.39062 0,0.20313 0.0781,0.375 0.0781,0.17188 0.29687,0.34375 0.23438,0.15625 0.625,0.3125 0.40625,0.15625 1.04688,0.34375 0.6875,0.20313 1.15625,0.4375 0.48437,0.21875 0.78125,0.5 0.29687,0.26563 0.42187,0.60938 0.14063,0.34375 0.14063,0.78125 z m 8.17187,2.14062 v -5.64062 q 0,-0.35938 -0.0312,-0.59375 -0.0156,-0.23438 -0.0781,-0.375 -0.0625,-0.14063 -0.15625,-0.1875 -0.0781,-0.0625 -0.21875,-0.0625 -0.15625,0 -0.29688,0.0937 -0.125,0.0937 -0.28125,0.3125 -0.14062,0.20312 -0.32812,0.5625 -0.1875,0.34375 -0.4375,0.84375 v 5.04687 h -1.23438 v -5.48437 q 0,-0.4375 -0.0312,-0.70313 -0.0312,-0.26562 -0.0937,-0.40625 -0.0469,-0.15625 -0.14062,-0.20312 -0.0937,-0.0625 -0.23438,-0.0625 -0.14062,0 -0.26562,0.0781 -0.125,0.0781 -0.28125,0.28125 -0.14063,0.20313 -0.32813,0.5625 -0.1875,0.34375 -0.45312,0.89063 v 5.04687 h -1.25 v -7.84375 h 1.04687 l 0.0625,1.48438 q 0.20313,-0.4375 0.39063,-0.75 0.1875,-0.3125 0.39062,-0.5 0.20313,-0.20313 0.4375,-0.28125 0.23438,-0.0937 0.51563,-0.0937 0.625,0 0.95312,0.42187 0.32813,0.40625 0.32813,1.26563 0.1875,-0.40625 0.35937,-0.71875 0.1875,-0.3125 0.39063,-0.53125 0.21875,-0.21875 0.46875,-0.32813 0.25,-0.10937 0.57812,-0.10937 1.46875,0 1.46875,2.26562 v 5.71875 z m 8.25,0 -0.0312,-1.0625 q -0.64062,0.64063 -1.3125,0.92188 -0.65625,0.28125 -1.375,0.28125 -0.67187,0 -1.15625,-0.17188 -0.46875,-0.17187 -0.78125,-0.46875 -0.3125,-0.3125 -0.45312,-0.71875 -0.14063,-0.40625 -0.14063,-0.875 0,-1.1875 0.875,-1.84375 0.875,-0.67187 2.59375,-0.67187 h 1.625 v -0.6875 q 0,-0.70313 -0.45312,-1.10938 -0.4375,-0.42187 -1.34375,-0.42187 -0.67188,0 -1.3125,0.15625 -0.64063,0.14062 -1.32813,0.40625 v -1.21875 q 0.25,-0.0937 0.5625,-0.1875 0.32813,-0.0937 0.67188,-0.15625 0.35937,-0.0781 0.73437,-0.10938 0.39063,-0.0469 0.78125,-0.0469 0.70313,0 1.26563,0.15625 0.57812,0.15625 0.96875,0.48437 0.40625,0.3125 0.60937,0.79688 0.21875,0.48437 0.21875,1.14062 v 5.40625 z m -0.15625,-3.57812 h -1.71875 q -0.51562,0 -0.89062,0.10937 -0.35938,0.0937 -0.59375,0.28125 -0.23438,0.1875 -0.34375,0.45313 -0.10938,0.26562 -0.10938,0.59375 0,0.21875 0.0625,0.4375 0.0781,0.20312 0.23438,0.35937 0.15625,0.15625 0.40625,0.25 0.25,0.0937 0.60937,0.0937 0.46875,0 1.0625,-0.28125 0.60938,-0.28125 1.28125,-0.90625 z m 6.57813,-6.34375 h -2.3125 v -1.125 h 3.6875 v 9.90625 h 2.34375 v 1.14062 h -6.29688 v -1.14062 h 2.57813 z m 8.79687,0 h -2.3125 v -1.125 h 3.6875 v 9.90625 h 2.34375 v 1.14062 h -6.29687 v -1.14062 h 2.57812 z"
         fill-rule="nonzero"
         id="path88" />
      <path
         fill="#808080"
         d="m 196.27559,198.85301 v 0 c 0,-23.63083 19.15657,-42.7874 42.7874,-42.7874 v 0 c 11.34793,0 22.23108,4.50795 30.25528,12.53215 8.02417,8.02418 12.53213,18.90733 12.53213,30.25525 v 0 c 0,23.63083 -19.15658,42.78741 -42.78741,42.78741 v 0 c -23.63083,0 -42.7874,-19.15658 -42.7874,-42.78741 z"
         fill-rule="evenodd"
         id="path90" />
      <path
         stroke="#000000"
         stroke-width="1"
         stroke-linejoin="round"
         stroke-linecap="butt"
         d="m 196.27559,198.85301 v 0 c 0,-23.63083 19.15657,-42.7874 42.7874,-42.7874 v 0 c 11.34793,0 22.23108,4.50795 30.25528,12.53215 8.02417,8.02418 12.53213,18.90733 12.53213,30.25525 v 0 c 0,23.63083 -19.15658,42.78741 -42.78741,42.78741 v 0 c -23.63083,0 -42.7874,-19.15658 -42.7874,-42.78741 z"
         fill-rule="evenodd"
         id="path92" />
      <path
         fill="#000000"
         fill-opacity="0"
         d="m 403.97293,144.77547 h 18.58267 v 18.58269 h -18.58267 z"
         fill-rule="evenodd"
         id="path94" />
      <path
         stroke="#000000"
         stroke-width="2"
         stroke-linejoin="round"
         stroke-linecap="butt"
         d="m 403.97293,144.77547 h 18.58267 v 18.58269 h -18.58267 z"
         fill-rule="evenodd"
         id="path96" />
      <path
         fill="#000000"
         fill-opacity="0"
         d="m 403.97293,182.72186 h 18.58267 v 18.58267 h -18.58267 z"
         fill-rule="evenodd"
         id="path98" />
      <path
         stroke="#000000"
         stroke-width="2"
         stroke-linejoin="round"
         stroke-linecap="butt"
         d="m 403.97293,182.72186 h 18.58267 v 18.58267 h -18.58267 z"
         fill-rule="evenodd"
         id="path100" />
      <path
         fill="#d9d9d9"
         d="m 616.147,239.24957 c 18.38934,5.8609 37.69031,31.68024 61.17847,36.04987 23.48822,4.36966 79.75067,-6.73667 79.75067,-9.83204 0,-3.09533 -62.08924,-2.91381 -79.75067,-8.74014 -17.66144,-5.82634 -32.22663,-17.98994 -26.21784,-26.21785 6.00873,-8.2279 51.34558,-5.45318 62.27033,-23.1496 10.92474,-17.69642 26.0376,-67.55206 3.2782,-83.02888 -22.7594,-15.47681 -108.88141,-18.57173 -139.8346,-9.83202 -30.95325,8.73972 -44.24585,41.33115 -45.88452,62.27034 -1.63868,20.93919 21.85083,52.95145 36.05249,63.36484 14.20166,10.41337 30.76812,-6.74541 49.15747,-0.88452 z"
         fill-rule="evenodd"
         id="path102" />
      <path
         stroke="#d9d9d9"
         stroke-width="2"
         stroke-linejoin="round"
         stroke-linecap="butt"
         d="m 616.147,239.24957 c 18.38934,5.8609 37.69031,31.68024 61.17847,36.04987 23.48822,4.36966 79.75067,-6.73667 79.75067,-9.83204 0,-3.09533 -62.08924,-2.91381 -79.75067,-8.74014 -17.66144,-5.82634 -32.22663,-17.98994 -26.21784,-26.21785 6.00873,-8.2279 51.34558,-5.45318 62.27033,-23.1496 10.92474,-17.69642 26.0376,-67.55206 3.2782,-83.02888 -22.7594,-15.47681 -108.88141,-18.57173 -139.8346,-9.83202 -30.95325,8.73972 -44.24585,41.33115 -45.88452,62.27034 -1.63868,20.93919 21.85083,52.95145 36.05249,63.36484 14.20166,10.41337 30.76812,-6.74541 49.15747,-0.88452 z"
         fill-rule="evenodd"
         id="path104" />
      <path
         fill="#000000"
         fill-opacity="0"
         d="m 600.53284,115.13386 h 50.2677 v 106.64567 h -50.2677 z"
         fill-rule="evenodd"
         id="path106" />
      <path
         fill="#666666"
         d="m 628.2516,164.87886 q -0.9375,1.15625 -2.01562,2.17187 -1.07813,1 -1.98438,2.07813 -0.89062,1.07812 -1.40625,2.3125 -0.5,1.21875 -0.20312,2.79687 0.5,1.01563 0.42187,1.5625 -0.0625,0.53125 -0.57812,0.89063 -1.29688,0.71875 -2.57813,-0.64063 -0.875,-0.9375 -1.20312,-2.26562 -0.3125,-1.34375 -0.14063,-2.67188 0.1875,-1.32812 0.79688,-2.625 0.60937,-1.29687 1.625,-2.3125 1,-1 2.07812,-2.10937 1.07813,-1.125 1.9375,-2.34375 0.875,-1.23438 1.29688,-2.48438 0.4375,-1.26562 0.21875,-2.625 -0.0625,-0.51562 -0.57813,-0.90625 -0.5,-0.39062 -1.29687,-0.64062 -0.78125,-0.26563 -1.75,-0.29688 -0.96875,-0.0312 -1.98438,0.25 -1.65625,0.5 -2.89062,1.76563 -1.21875,1.26562 -1.28125,2.70312 0.5,1.15625 -0.0781,1.57813 -0.5,0.35937 -1.04687,0.35937 -0.53125,0 -0.96875,-0.28125 -1.71875,-1.73437 -1.46875,-3.75 0.25,-2.01562 1.54687,-3.67187 1.21875,-1.65625 3.125,-2.625 1.90625,-0.96875 4.14063,-1.10938 2.8125,-0.21875 5.29687,0.96875 2.48438,1.1875 3.42188,4 0.9375,3.15625 0,5.60938 -0.9375,2.45312 -2.45313,4.3125 z m -2.51562,22.32812 q 0.21875,1 -0.29688,1.79688 -0.5,0.79687 -1.32812,1.23437 -0.82813,0.42188 -1.73438,0.35938 -0.89062,-0.0781 -1.54687,-0.875 -0.42188,-0.5 -0.5,-1.14063 -0.0625,-0.65625 0.0312,-1.375 0.10937,-0.71875 0.28125,-1.35937 0.1875,-0.65625 0.1875,-1.15625 0,-0.21875 0.14062,-0.5 0.15625,-0.29688 0.40625,-0.46875 0.25,-0.1875 0.53125,-0.1875 0.29688,0 0.65625,0.4375 1.01563,0.78125 2.09375,1.60937 1.07813,0.82813 1.07813,1.625 z"
         fill-rule="nonzero"
         id="path108" />
    </g>
  </g>
</svg>
