<?xml version="1.0" encoding="UTF-8" standalone="no"?>
<svg
   xmlns:dc="http://purl.org/dc/elements/1.1/"
   xmlns:cc="http://creativecommons.org/ns#"
   xmlns:rdf="http://www.w3.org/1999/02/22-rdf-syntax-ns#"
   xmlns:svg="http://www.w3.org/2000/svg"
   xmlns="http://www.w3.org/2000/svg"
   xmlns:sodipodi="http://sodipodi.sourceforge.net/DTD/sodipodi-0.dtd"
   xmlns:inkscape="http://www.inkscape.org/namespaces/inkscape"
   inkscape:version="1.0 (4035a4f, 2020-05-01)"
   height="225.1012"
   width="641.03308"
   sodipodi:docname="data_labelers.svg"
   id="svg63"
   stroke-miterlimit="10"
   stroke-linecap="square"
   stroke="none"
   fill="none"
   viewBox="0 0 641.03308 225.1012"
   version="1.1">
  <metadata
     id="metadata69">
    <rdf:RDF>
      <cc:Work
         rdf:about="">
        <dc:format>image/svg+xml</dc:format>
        <dc:type
           rdf:resource="http://purl.org/dc/dcmitype/StillImage" />
      </cc:Work>
    </rdf:RDF>
  </metadata>
  <defs
     id="defs67" />
  <sodipodi:namedview
     inkscape:current-layer="g61"
     inkscape:window-maximized="0"
     inkscape:window-y="25"
     inkscape:window-x="0"
     inkscape:cy="184.32914"
     inkscape:cx="324.85952"
     inkscape:zoom="0.935"
     showgrid="false"
     id="namedview65"
     inkscape:window-height="875"
     inkscape:window-width="1328"
     inkscape:pageshadow="2"
     inkscape:pageopacity="0"
     guidetolerance="10"
     gridtolerance="10"
     objecttolerance="10"
     borderopacity="1"
     bordercolor="#666666"
     pagecolor="#ffffff" />
  <clipPath
     id="p.0">
    <path
       id="path10"
       clip-rule="nonzero"
       d="M 0,0 H 800 V 600 H 0 Z" />
  </clipPath>
  <g
     transform="translate(-75.14048,-115.67086)"
     id="g61"
     clip-path="url(#p.0)">
    <path
       id="path13"
       fill-rule="evenodd"
       d="M 0,0 H 800 V 600 H 0 Z"
       fill-opacity="0"
       fill="#000000" />
    <path
       id="path37"
       fill-rule="evenodd"
       d="m 469.51443,102.11024 h 152.189 v 42.01575 h -152.189 z"
       fill-opacity="0"
       fill="#000000" />
    <path
       id="path57"
       fill-rule="evenodd"
       d="m 65.40157,102.11024 h 152.18896 v 42.01575 H 65.40157 Z"
       fill-opacity="0"
       fill="#000000" />
    <g
       inkscape:export-ydpi="94.800003"
       inkscape:export-xdpi="94.800003"
       id="g92">
      <path
         fill="#ffffff"
         d="m 124.63953,278.1224 v 0 c -0.96112,11.92053 -10.95192,21.2854 -23.30779,21.8475 -12.355876,0.56214 -23.212428,-7.8543 -25.327548,-19.63491 -2.115112,-11.78061 5.172737,-23.24091 17.002014,-26.73604 11.829264,-3.49512 24.500284,2.06807 29.560524,12.9785 l -22.38846,9.70215 z"
         fill-rule="evenodd"
         id="path15" />
      <path
         stroke="#000000"
         stroke-width="1"
         stroke-linejoin="round"
         stroke-linecap="butt"
         d="m 124.63953,278.1224 v 0 c -0.96112,11.92053 -10.95192,21.2854 -23.30779,21.8475 -12.355876,0.56214 -23.212428,-7.8543 -25.327548,-19.63491 -2.115112,-11.78061 5.172737,-23.24091 17.002014,-26.73604 11.829264,-3.49512 24.500284,2.06807 29.560524,12.9785 l -22.38846,9.70215 z"
         fill-rule="evenodd"
         id="path17" />
      <path
         fill="#ffffff"
         d="m 91.99768,181.8586 22.99212,-5.19685 34.11024,150.67715 -22.99213,5.19687 z"
         fill-rule="evenodd"
         id="path19" />
      <path
         stroke="#000000"
         stroke-width="1"
         stroke-linejoin="round"
         stroke-linecap="butt"
         d="m 91.99768,181.8586 22.99212,-5.19685 34.11024,150.67715 -22.99213,5.19687 z"
         fill-rule="evenodd"
         id="path21" />
      <path
         fill="#808080"
         d="m 121.23132,232.18315 v 0 c 0,-25.92696 21.01794,-46.94489 46.94488,-46.94489 v 0 c 12.45055,0 24.39116,4.94596 33.19504,13.74984 8.80388,8.80388 13.74983,20.74449 13.74983,33.19505 v 0 c 0,25.92693 -21.01793,46.94487 -46.94487,46.94487 v 0 c -25.92694,0 -46.94488,-21.01794 -46.94488,-46.94487 z"
         fill-rule="evenodd"
         id="path23" />
      <path
         stroke="#000000"
         stroke-width="1"
         stroke-linejoin="round"
         stroke-linecap="butt"
         d="m 121.23132,232.18315 v 0 c 0,-25.92696 21.01794,-46.94489 46.94488,-46.94489 v 0 c 12.45055,0 24.39116,4.94596 33.19504,13.74984 8.80388,8.80388 13.74983,20.74449 13.74983,33.19505 v 0 c 0,25.92693 -21.01793,46.94487 -46.94487,46.94487 v 0 c -25.92694,0 -46.94488,-21.01794 -46.94488,-46.94487 z"
         fill-rule="evenodd"
         id="path25" />
      <path
         fill="#ffffff"
         d="m 156.44392,286.27762 v 0 c 0,-16.20325 13.13533,-29.33856 29.33858,-29.33856 v 0 c 7.78108,0 15.24345,3.091 20.74551,8.59308 5.50205,5.50204 8.59306,12.96441 8.59306,20.74548 v 0 c 0,16.20328 -13.13533,29.33859 -29.33857,29.33859 v 0 c -16.20325,0 -29.33858,-13.13531 -29.33858,-29.33859 z"
         fill-rule="evenodd"
         id="path27" />
      <path
         stroke="#000000"
         stroke-width="1"
         stroke-linejoin="round"
         stroke-linecap="butt"
         d="m 156.44392,286.27762 v 0 c 0,-16.20325 13.13533,-29.33856 29.33858,-29.33856 v 0 c 7.78108,0 15.24345,3.091 20.74551,8.59308 5.50205,5.50204 8.59306,12.96441 8.59306,20.74548 v 0 c 0,16.20328 -13.13533,29.33859 -29.33857,29.33859 v 0 c -16.20325,0 -29.33858,-13.13531 -29.33858,-29.33859 z"
         fill-rule="evenodd"
         id="path29" />
      <path
         fill="#808080"
         d="m 132.88487,292.02304 11.77953,-85.35434 11.77952,85.35434 z"
         fill-rule="evenodd"
         id="path31" />
      <path
         stroke="#000000"
         stroke-width="1"
         stroke-linejoin="round"
         stroke-linecap="butt"
         d="m 132.88487,292.02304 11.77953,-85.35434 11.77952,85.35434 z"
         fill-rule="evenodd"
         id="path33" />
      <path
         fill="#808080"
         d="m 253.89764,229.68898 h 82.74014 v -18.96063 l 37.92127,37.92126 -37.92127,37.92125 v -18.96063 h -82.74014 z"
         fill-rule="evenodd"
         id="path35" />
      <path
         fill="#000000"
         d="m 497.33118,129.3271 q -1.28125,0 -2.32812,-0.64063 -1.03125,-0.65625 -1.625,-1.79686 -0.59375,-1.14063 -0.59375,-2.60938 0,-1.48437 0.59375,-2.60937 0.59375,-1.14063 1.625,-1.79688 1.04687,-0.65625 2.32812,-0.65625 0.76563,0 1.39063,0.25 0.64062,0.23438 1.10937,0.625 0.48438,0.39063 0.75,0.84375 h 0.0781 l -0.0781,-1.32812 v -3.9375 h 1.59375 v 13.35936 h -1.51562 v -1.40624 h -0.0781 q -0.26562,0.43749 -0.75,0.82812 -0.46875,0.39062 -1.10937,0.625 -0.625,0.25 -1.39063,0.25 z m 0.17188,-1.43749 q 0.82812,0 1.54687,-0.4375 0.71875,-0.4375 1.15625,-1.25 0.45313,-0.8125 0.45313,-1.92188 0,-1.125 -0.45313,-1.9375 -0.4375,-0.8125 -1.15625,-1.25 -0.71875,-0.4375 -1.54687,-0.4375 -0.8125,0 -1.53125,0.4375 -0.71875,0.4375 -1.17188,1.25 -0.45312,0.8125 -0.45312,1.9375 0,1.09375 0.45312,1.92188 0.45313,0.8125 1.17188,1.25 0.71875,0.4375 1.53125,0.4375 z m 9.96585,1.43749 q -1.0625,0 -1.875,-0.40625 -0.79688,-0.40625 -1.25,-1.12499 -0.45313,-0.71875 -0.45313,-1.64063 0,-1.04687 0.53125,-1.76562 0.54688,-0.71875 1.45313,-1.07813 0.92187,-0.35937 2.01562,-0.35937 0.64063,0 1.17188,0.10937 0.54687,0.0937 0.9375,0.23438 0.40625,0.14062 0.625,0.26562 v -0.57812 q 0,-1.07813 -0.76563,-1.70313 -0.76562,-0.64062 -1.875,-0.64062 -0.78125,0 -1.46875,0.34375 -0.67187,0.34375 -1.0625,0.95312 l -1.20312,-0.89062 q 0.375,-0.5625 0.9375,-0.96875 0.5625,-0.40625 1.28125,-0.625 0.71875,-0.23438 1.51562,-0.23438 1.9375,0 3.03125,1.03125 1.10941,1.01563 1.10941,2.75 v 6.03124 h -1.50003 v -1.35936 h -0.0781 q -0.25,0.40624 -0.70312,0.79686 -0.4375,0.375 -1.04688,0.60938 -0.60937,0.25 -1.32812,0.25 z m 0.14062,-1.39062 q 0.82813,0 1.5,-0.40625 0.6875,-0.42187 1.09375,-1.10937 0.42188,-0.6875 0.42188,-1.51563 -0.4375,-0.29687 -1.07813,-0.48437 -0.64062,-0.1875 -1.40625,-0.1875 -1.35937,0 -2,0.5625 -0.64062,0.5625 -0.64062,1.375 0,0.78125 0.59375,1.28125 0.60937,0.48437 1.51562,0.48437 z m 5.87607,-8.42187 h 5.57812 v 1.4375 h -5.57812 z m 1.67187,7.01562 v -9.70312 h 1.57813 v 9.3125 q 0,0.75 0.3125,1.15625 0.3125,0.40625 1.01562,0.40625 0.3125,0 0.57813,-0.0937 0.26562,-0.0937 0.46875,-0.21875 v 1.54686 q -0.25,0.10938 -0.54688,0.17188 -0.28125,0.0781 -0.76562,0.0781 -1.1875,0 -1.92188,-0.70312 -0.71875,-0.70312 -0.71875,-1.95312 z m 8.65412,2.79687 q -1.0625,0 -1.875,-0.40625 -0.79688,-0.40625 -1.25,-1.12499 -0.45313,-0.71875 -0.45313,-1.64063 0,-1.04687 0.53125,-1.76562 0.54688,-0.71875 1.45313,-1.07813 0.92187,-0.35937 2.01562,-0.35937 0.64063,0 1.17188,0.10937 0.54687,0.0937 0.9375,0.23438 0.40625,0.14062 0.625,0.26562 v -0.57812 q 0,-1.07813 -0.76563,-1.70313 -0.76562,-0.64062 -1.875,-0.64062 -0.78125,0 -1.46875,0.34375 -0.67187,0.34375 -1.0625,0.95312 l -1.20312,-0.89062 q 0.375,-0.5625 0.9375,-0.96875 0.5625,-0.40625 1.28125,-0.625 0.71875,-0.23438 1.51562,-0.23438 1.9375,0 3.03125,1.03125 1.10938,1.01563 1.10938,2.75 v 6.03124 h -1.5 v -1.35936 h -0.0781 q -0.25,0.40624 -0.70312,0.79686 -0.4375,0.375 -1.04688,0.60938 -0.60937,0.25 -1.32812,0.25 z m 0.14062,-1.39062 q 0.82813,0 1.5,-0.40625 0.6875,-0.42187 1.09375,-1.10937 0.42188,-0.6875 0.42188,-1.51563 -0.4375,-0.29687 -1.07813,-0.48437 -0.64062,-0.1875 -1.40625,-0.1875 -1.35937,0 -2,0.5625 -0.64062,0.5625 -0.64062,1.375 0,0.78125 0.59375,1.28125 0.60937,0.48437 1.51562,0.48437 z m 11.04724,1.09374 v -13.35936 h 1.59375 v 13.35936 z m 6.88996,0.29688 q -1.0625,0 -1.875,-0.40625 -0.79688,-0.40625 -1.25,-1.12499 -0.45313,-0.71875 -0.45313,-1.64063 0,-1.04687 0.53125,-1.76562 0.54688,-0.71875 1.45313,-1.07813 0.92187,-0.35937 2.01562,-0.35937 0.64063,0 1.17188,0.10937 0.54687,0.0937 0.9375,0.23438 0.40625,0.14062 0.625,0.26562 v -0.57812 q 0,-1.07813 -0.76563,-1.70313 -0.76562,-0.64062 -1.875,-0.64062 -0.78125,0 -1.46875,0.34375 -0.67187,0.34375 -1.0625,0.95312 l -1.20312,-0.89062 q 0.375,-0.5625 0.9375,-0.96875 0.5625,-0.40625 1.28125,-0.625 0.71875,-0.23438 1.51562,-0.23438 1.9375,0 3.03125,1.03125 1.10938,1.01563 1.10938,2.75 v 6.03124 h -1.5 v -1.35936 h -0.0781 q -0.25,0.40624 -0.70312,0.79686 -0.4375,0.375 -1.04688,0.60938 -0.60937,0.25 -1.32812,0.25 z m 0.14062,-1.39062 q 0.82813,0 1.5,-0.40625 0.6875,-0.42187 1.09375,-1.10937 0.42188,-0.6875 0.42188,-1.51563 -0.4375,-0.29687 -1.07813,-0.48437 -0.64062,-0.1875 -1.40625,-0.1875 -1.35937,0 -2,0.5625 -0.64062,0.5625 -0.64062,1.375 0,0.78125 0.59375,1.28125 0.60937,0.48437 1.51562,0.48437 z m 11.54712,1.39062 q -0.75,0 -1.39062,-0.25 -0.64063,-0.23438 -1.125,-0.625 -0.46875,-0.39063 -0.71875,-0.82812 h -0.0781 v 1.40624 h -1.51562 v -13.35936 h 1.59375 v 3.9375 l -0.0781,1.32812 h 0.0781 q 0.25,-0.45312 0.71875,-0.84375 0.48437,-0.39062 1.125,-0.625 0.64062,-0.25 1.39062,-0.25 1.3125,0 2.32813,0.65625 1.03125,0.65625 1.625,1.79688 0.60937,1.125 0.60937,2.60937 0,1.46875 -0.60937,2.60938 -0.59375,1.14062 -1.625,1.79687 -1.01563,0.64062 -2.32813,0.64062 z m -0.15625,-1.43749 q 0.8125,0 1.53125,-0.4375 0.71875,-0.4375 1.15625,-1.25 0.4375,-0.82813 0.4375,-1.92188 0,-1.125 -0.4375,-1.9375 -0.4375,-0.8125 -1.15625,-1.25 -0.71875,-0.4375 -1.53125,-0.4375 -0.82812,0 -1.54687,0.4375 -0.71875,0.4375 -1.17188,1.25 -0.4375,0.8125 -0.4375,1.9375 0,1.10938 0.4375,1.92188 0.45313,0.8125 1.17188,1.25 0.71875,0.4375 1.54687,0.4375 z m 10.79358,1.43749 q -1.375,0 -2.45312,-0.64063 -1.0625,-0.65625 -1.67188,-1.79686 -0.60937,-1.14063 -0.60937,-2.59375 0,-1.35938 0.5625,-2.51563 0.57812,-1.15625 1.60937,-1.85937 1.03125,-0.70313 2.4375,-0.70313 1.42188,0 2.4375,0.625 1.01563,0.625 1.5625,1.73438 0.54688,1.09375 0.54688,2.51562 0,0.125 -0.0156,0.26563 0,0.125 -0.0156,0.21875 h -8.1875 v -1.3125 h 6.54687 q -0.0156,-0.39063 -0.1875,-0.84375 -0.15625,-0.46875 -0.5,-0.85938 -0.34375,-0.40625 -0.875,-0.65625 -0.53125,-0.25 -1.3125,-0.25 -0.9375,0 -1.625,0.48438 -0.67187,0.46875 -1.04687,1.29687 -0.35938,0.8125 -0.35938,1.85938 0,1.20312 0.46875,2.01562 0.46875,0.79688 1.20313,1.1875 0.75,0.39063 1.54687,0.39063 1.04688,0 1.71875,-0.48438 0.6875,-0.5 1.09375,-1.23437 l 1.34375,0.65625 q -0.5625,1.07812 -1.60937,1.79686 -1.03125,0.70313 -2.60938,0.70313 z m 6.26904,-0.29688 v -13.35936 h 1.59375 v 13.35936 z m 8.07752,0.29688 q -1.375,0 -2.45313,-0.64063 -1.0625,-0.65625 -1.67187,-1.79686 -0.60938,-1.14063 -0.60938,-2.59375 0,-1.35938 0.5625,-2.51563 0.57813,-1.15625 1.60938,-1.85937 1.03125,-0.70313 2.4375,-0.70313 1.42187,0 2.4375,0.625 1.01562,0.625 1.5625,1.73438 0.54687,1.09375 0.54687,2.51562 0,0.125 -0.0156,0.26563 0,0.125 -0.0156,0.21875 h -8.1875 v -1.3125 h 6.54688 q -0.0156,-0.39063 -0.1875,-0.84375 -0.15625,-0.46875 -0.5,-0.85938 -0.34375,-0.40625 -0.875,-0.65625 -0.53125,-0.25 -1.3125,-0.25 -0.9375,0 -1.625,0.48438 -0.67188,0.46875 -1.04688,1.29687 -0.35937,0.8125 -0.35937,1.85938 0,1.20312 0.46875,2.01562 0.46875,0.79688 1.20312,1.1875 0.75,0.39063 1.54688,0.39063 1.04687,0 1.71875,-0.48438 0.6875,-0.5 1.09375,-1.23437 l 1.34375,0.65625 q -0.5625,1.07812 -1.60938,1.79686 -1.03125,0.70313 -2.60937,0.70313 z m 6.2691,-0.29688 v -9.51561 h 1.51563 v 1.53125 h 0.0781 q 0.1875,-0.54688 0.625,-0.9375 0.4375,-0.40625 1,-0.64063 0.57813,-0.23437 1.125,-0.23437 0.4375,0 0.67188,0.0469 0.25,0.0469 0.45312,0.14063 v 1.71875 q -0.29687,-0.15625 -0.64062,-0.21875 -0.34375,-0.0781 -0.70313,-0.0781 -0.6875,0 -1.26562,0.39063 -0.57813,0.39062 -0.92188,1.04687 -0.34375,0.65625 -0.34375,1.4375 v 5.3125 z m 9.95087,0.29688 q -1.0625,0 -1.875,-0.34375 -0.8125,-0.34375 -1.34375,-0.92188 -0.53125,-0.59374 -0.79688,-1.28124 l 1.42188,-0.64062 q 0.375,0.85937 1.07812,1.32812 0.70313,0.46875 1.625,0.46875 0.875,0 1.45313,-0.35937 0.59375,-0.35938 0.59375,-1.04688 0,-0.42187 -0.25,-0.70312 -0.23438,-0.29688 -0.70313,-0.5 -0.45312,-0.21875 -1.125,-0.375 l -1.15625,-0.3125 q -0.67187,-0.1875 -1.28125,-0.51563 -0.59375,-0.34375 -0.95312,-0.875 -0.35938,-0.53125 -0.35938,-1.29687 0,-0.84375 0.5,-1.45313 0.5,-0.625 1.3125,-0.95312 0.82813,-0.32813 1.76563,-0.32813 0.8125,0 1.53125,0.23438 0.71875,0.23437 1.26562,0.6875 0.54688,0.45312 0.8125,1.125 l -1.375,0.64062 q -0.35937,-0.70312 -0.95312,-0.98437 -0.59375,-0.28125 -1.32813,-0.28125 -0.78125,0 -1.35937,0.34375 -0.57813,0.34375 -0.57813,0.9375 0,0.59375 0.46875,0.90625 0.48438,0.29687 1.17188,0.46875 l 1.39062,0.35937 q 1.39063,0.35938 2.09375,1.0625 0.71875,0.6875 0.71875,1.70313 0,0.89062 -0.51562,1.54687 -0.5,0.65624 -1.35938,1.01562 -0.84375,0.34375 -1.89062,0.34375 z"
         fill-rule="nonzero"
         id="path39" />
      <path
         fill="#d9d9d9"
         d="m 423.9754,205.68965 c 0.99561,-2.84514 -14.36572,-0.99649 -17.06824,-7.6824 -2.70254,-6.68593 -3.12994,-25.60544 0.853,-32.43308 3.98294,-6.82765 15.22092,-8.39064 23.04462,-8.5328 7.82373,-0.14219 20.05688,0.70997 23.89764,7.67977 3.84079,6.96982 1.70737,27.31104 -0.85303,34.13912 -2.56036,6.82808 -15.9313,4.41119 -14.50918,6.82939 1.42215,2.4182 18.49038,1.98994 23.04202,7.67979 4.55161,5.68985 3.41425,16.50176 4.2677,26.45932 0.85346,9.95757 0.42609,19.77253 0.85303,33.28607 0.42694,13.51358 2.84643,36.84211 1.70865,47.79529 -1.13779,10.95319 1.70648,15.22135 -8.53543,17.92389 -10.24192,2.70255 -42.53192,1.27866 -52.91602,-1.70865 -10.38406,-2.98733 -7.68152,-5.54681 -9.38846,-16.21524 -1.70691,-10.66842 -0.853,-33.85476 -0.853,-47.79528 0,-13.9405 0.28391,-26.17496 0.853,-35.84775 0.56912,-9.67279 -1.7056,-16.92607 2.56171,-22.18898 4.26727,-5.26291 22.04635,-6.54331 23.04199,-9.38846 z"
         fill-rule="evenodd"
         id="path41" />
      <path
         stroke="#000000"
         stroke-width="1"
         stroke-linejoin="round"
         stroke-linecap="butt"
         d="m 423.9754,205.68965 c 0.99561,-2.84514 -14.36572,-0.99649 -17.06824,-7.6824 -2.70254,-6.68593 -3.12994,-25.60544 0.853,-32.43308 3.98294,-6.82765 15.22092,-8.39064 23.04462,-8.5328 7.82373,-0.14219 20.05688,0.70997 23.89764,7.67977 3.84079,6.96982 1.70737,27.31104 -0.85303,34.13912 -2.56036,6.82808 -15.9313,4.41119 -14.50918,6.82939 1.42215,2.4182 18.49038,1.98994 23.04202,7.67979 4.55161,5.68985 3.41425,16.50176 4.2677,26.45932 0.85346,9.95757 0.42609,19.77253 0.85303,33.28607 0.42694,13.51358 2.84643,36.84211 1.70865,47.79529 -1.13779,10.95319 1.70648,15.22135 -8.53543,17.92389 -10.24192,2.70255 -42.53192,1.27866 -52.91602,-1.70865 -10.38406,-2.98733 -7.68152,-5.54681 -9.38846,-16.21524 -1.70691,-10.66842 -0.853,-33.85476 -0.853,-47.79528 0,-13.9405 0.28391,-26.17496 0.853,-35.84775 0.56912,-9.67279 -1.7056,-16.92607 2.56171,-22.18898 4.26727,-5.26291 22.04635,-6.54331 23.04199,-9.38846 z"
         fill-rule="evenodd"
         id="path43" />
      <path
         fill="#d9d9d9"
         d="m 506.0279,205.68965 c 0.99561,-2.84514 -14.36572,-0.99649 -17.06824,-7.6824 -2.70254,-6.68593 -3.12994,-25.60544 0.853,-32.43308 3.98294,-6.82765 15.22092,-8.39064 23.04465,-8.5328 7.82367,-0.14219 20.05682,0.70997 23.89764,7.67977 3.84076,6.96982 1.70734,27.31104 -0.85303,34.13912 -2.56036,6.82808 -15.93133,4.41119 -14.50921,6.82939 1.42218,2.4182 18.49041,1.98994 23.04199,7.67979 4.55164,5.68985 3.41431,16.50176 4.26776,26.45932 0.85346,9.95757 0.42603,19.77253 0.85297,33.28607 0.427,13.51358 2.84649,36.84211 1.70868,47.79529 -1.13776,10.95319 1.70648,15.22135 -8.5354,17.92389 -10.24195,2.70255 -42.53195,1.27866 -52.91605,-1.70865 -10.38406,-2.98733 -7.68152,-5.54681 -9.38843,-16.21524 -1.70691,-10.66842 -0.85303,-33.85476 -0.85303,-47.79528 0,-13.9405 0.28391,-26.17496 0.85303,-35.84775 0.56909,-9.67279 -1.70559,-16.92607 2.56168,-22.18898 4.26727,-5.26291 22.04635,-6.54331 23.04199,-9.38846 z"
         fill-rule="evenodd"
         id="path45" />
      <path
         stroke="#000000"
         stroke-width="1"
         stroke-linejoin="round"
         stroke-linecap="butt"
         d="m 506.0279,205.68965 c 0.99561,-2.84514 -14.36572,-0.99649 -17.06824,-7.6824 -2.70254,-6.68593 -3.12994,-25.60544 0.853,-32.43308 3.98294,-6.82765 15.22092,-8.39064 23.04465,-8.5328 7.82367,-0.14219 20.05682,0.70997 23.89764,7.67977 3.84076,6.96982 1.70734,27.31104 -0.85303,34.13912 -2.56036,6.82808 -15.93133,4.41119 -14.50921,6.82939 1.42218,2.4182 18.49041,1.98994 23.04199,7.67979 4.55164,5.68985 3.41431,16.50176 4.26776,26.45932 0.85346,9.95757 0.42603,19.77253 0.85297,33.28607 0.427,13.51358 2.84649,36.84211 1.70868,47.79529 -1.13776,10.95319 1.70648,15.22135 -8.5354,17.92389 -10.24195,2.70255 -42.53195,1.27866 -52.91605,-1.70865 -10.38406,-2.98733 -7.68152,-5.54681 -9.38843,-16.21524 -1.70691,-10.66842 -0.85303,-33.85476 -0.85303,-47.79528 0,-13.9405 0.28391,-26.17496 0.85303,-35.84775 0.56909,-9.67279 -1.70559,-16.92607 2.56168,-22.18898 4.26727,-5.26291 22.04635,-6.54331 23.04199,-9.38846 z"
         fill-rule="evenodd"
         id="path47" />
      <path
         fill="#d9d9d9"
         d="m 588.0804,205.68965 c 0.99561,-2.84514 -14.36572,-0.99649 -17.06824,-7.6824 -2.70251,-6.68593 -3.12994,-25.60544 0.85303,-32.43308 3.98291,-6.82765 15.22089,-8.39064 23.04462,-8.5328 7.82367,-0.14219 20.05688,0.70997 23.89764,7.67977 3.84076,6.96982 1.70734,27.31104 -0.85303,34.13912 -2.56036,6.82808 -15.93133,4.41119 -14.50921,6.82939 1.42218,2.4182 18.49042,1.98994 23.04199,7.67979 4.55164,5.68985 3.41431,16.50176 4.26776,26.45932 0.85346,9.95757 0.42603,19.77253 0.85297,33.28607 0.427,13.51358 2.84649,36.84211 1.70868,47.79529 -1.13776,10.95319 1.70648,15.22135 -8.5354,17.92389 -10.24195,2.70255 -42.53199,1.27866 -52.91602,-1.70865 -10.38409,-2.98733 -7.68158,-5.54681 -9.38849,-16.21524 -1.70691,-10.66842 -0.85303,-33.85476 -0.85303,-47.79528 0,-13.9405 0.28394,-26.17496 0.85303,-35.84775 0.56915,-9.67279 -1.70556,-16.92607 2.56171,-22.18898 4.26727,-5.26291 22.04639,-6.54331 23.04199,-9.38846 z"
         fill-rule="evenodd"
         id="path49" />
      <path
         stroke="#000000"
         stroke-width="1"
         stroke-linejoin="round"
         stroke-linecap="butt"
         d="m 588.0804,205.68965 c 0.99561,-2.84514 -14.36572,-0.99649 -17.06824,-7.6824 -2.70251,-6.68593 -3.12994,-25.60544 0.85303,-32.43308 3.98291,-6.82765 15.22089,-8.39064 23.04462,-8.5328 7.82367,-0.14219 20.05688,0.70997 23.89764,7.67977 3.84076,6.96982 1.70734,27.31104 -0.85303,34.13912 -2.56036,6.82808 -15.93133,4.41119 -14.50921,6.82939 1.42218,2.4182 18.49042,1.98994 23.04199,7.67979 4.55164,5.68985 3.41431,16.50176 4.26776,26.45932 0.85346,9.95757 0.42603,19.77253 0.85297,33.28607 0.427,13.51358 2.84649,36.84211 1.70868,47.79529 -1.13776,10.95319 1.70648,15.22135 -8.5354,17.92389 -10.24195,2.70255 -42.53199,1.27866 -52.91602,-1.70865 -10.38409,-2.98733 -7.68158,-5.54681 -9.38849,-16.21524 -1.70691,-10.66842 -0.85303,-33.85476 -0.85303,-47.79528 0,-13.9405 0.28394,-26.17496 0.85303,-35.84775 0.56915,-9.67279 -1.70556,-16.92607 2.56171,-22.18898 4.26727,-5.26291 22.04639,-6.54331 23.04199,-9.38846 z"
         fill-rule="evenodd"
         id="path51" />
      <path
         fill="#d9d9d9"
         d="m 670.1329,205.68965 c 0.99561,-2.84514 -14.36572,-0.99649 -17.06824,-7.6824 -2.70251,-6.68593 -3.12994,-25.60544 0.85303,-32.43308 3.98291,-6.82765 15.22089,-8.39064 23.04462,-8.5328 7.82367,-0.14219 20.05688,0.70997 23.89764,7.67977 3.84076,6.96982 1.70734,27.31104 -0.85303,34.13912 -2.56036,6.82808 -15.93133,4.41119 -14.50921,6.82939 1.42218,2.4182 18.49041,1.98994 23.04199,7.67979 4.55164,5.68985 3.41431,16.50176 4.26776,26.45932 0.85346,9.95757 0.42603,19.77253 0.85303,33.28607 0.42694,13.51358 2.84643,36.84211 1.70862,47.79529 -1.13776,10.95319 1.70648,15.22135 -8.5354,17.92389 -10.24195,2.70255 -42.53192,1.27866 -52.91602,-1.70865 -10.38409,-2.98733 -7.68158,-5.54681 -9.38849,-16.21524 -1.70691,-10.66842 -0.85296,-33.85476 -0.85296,-47.79528 0,-13.9405 0.28387,-26.17496 0.85296,-35.84775 0.56915,-9.67279 -1.70556,-16.92607 2.56171,-22.18898 4.26727,-5.26291 22.04639,-6.54331 23.04199,-9.38846 z"
         fill-rule="evenodd"
         id="path53" />
      <path
         stroke="#000000"
         stroke-width="1"
         stroke-linejoin="round"
         stroke-linecap="butt"
         d="m 670.1329,205.68965 c 0.99561,-2.84514 -14.36572,-0.99649 -17.06824,-7.6824 -2.70251,-6.68593 -3.12994,-25.60544 0.85303,-32.43308 3.98291,-6.82765 15.22089,-8.39064 23.04462,-8.5328 7.82367,-0.14219 20.05688,0.70997 23.89764,7.67977 3.84076,6.96982 1.70734,27.31104 -0.85303,34.13912 -2.56036,6.82808 -15.93133,4.41119 -14.50921,6.82939 1.42218,2.4182 18.49041,1.98994 23.04199,7.67979 4.55164,5.68985 3.41431,16.50176 4.26776,26.45932 0.85346,9.95757 0.42603,19.77253 0.85303,33.28607 0.42694,13.51358 2.84643,36.84211 1.70862,47.79529 -1.13776,10.95319 1.70648,15.22135 -8.5354,17.92389 -10.24195,2.70255 -42.53192,1.27866 -52.91602,-1.70865 -10.38409,-2.98733 -7.68158,-5.54681 -9.38849,-16.21524 -1.70691,-10.66842 -0.85296,-33.85476 -0.85296,-47.79528 0,-13.9405 0.28387,-26.17496 0.85296,-35.84775 0.56915,-9.67279 -1.70556,-16.92607 2.56171,-22.18898 4.26727,-5.26291 22.04639,-6.54331 23.04199,-9.38846 z"
         fill-rule="evenodd"
         id="path55" />
      <path
         fill="#000000"
         d="m 128.02138,129.3271 q -1.28125,0 -2.32813,-0.64063 -1.03125,-0.65625 -1.625,-1.79686 -0.59375,-1.14063 -0.59375,-2.60938 0,-1.48437 0.59375,-2.60937 0.59375,-1.14063 1.625,-1.79688 1.04688,-0.65625 2.32813,-0.65625 0.76562,0 1.39062,0.25 0.64063,0.23438 1.10938,0.625 0.48437,0.39063 0.75,0.84375 h 0.0781 l -0.0781,-1.32812 v -3.9375 h 1.59375 v 13.35936 h -1.51563 v -1.40624 h -0.0781 q -0.26563,0.43749 -0.75,0.82812 -0.46875,0.39062 -1.10938,0.625 -0.625,0.25 -1.39062,0.25 z m 0.17187,-1.43749 q 0.82813,0 1.54688,-0.4375 0.71875,-0.4375 1.15625,-1.25 0.45312,-0.8125 0.45312,-1.92188 0,-1.125 -0.45312,-1.9375 -0.4375,-0.8125 -1.15625,-1.25 -0.71875,-0.4375 -1.54688,-0.4375 -0.8125,0 -1.53125,0.4375 -0.71875,0.4375 -1.17187,1.25 -0.45313,0.8125 -0.45313,1.9375 0,1.09375 0.45313,1.92188 0.45312,0.8125 1.17187,1.25 0.71875,0.4375 1.53125,0.4375 z m 9.96586,1.43749 q -1.0625,0 -1.875,-0.40625 -0.79688,-0.40625 -1.25,-1.12499 -0.45313,-0.71875 -0.45313,-1.64063 0,-1.04687 0.53125,-1.76562 0.54688,-0.71875 1.45313,-1.07813 0.92187,-0.35937 2.01562,-0.35937 0.64063,0 1.17188,0.10937 0.54687,0.0937 0.9375,0.23438 0.40625,0.14062 0.625,0.26562 v -0.57812 q 0,-1.07813 -0.76563,-1.70313 -0.76562,-0.64062 -1.875,-0.64062 -0.78125,0 -1.46875,0.34375 -0.67187,0.34375 -1.0625,0.95312 l -1.20312,-0.89062 q 0.375,-0.5625 0.9375,-0.96875 0.5625,-0.40625 1.28125,-0.625 0.71875,-0.23438 1.51562,-0.23438 1.9375,0 3.03125,1.03125 1.10938,1.01563 1.10938,2.75 v 6.03124 h -1.5 v -1.35936 h -0.0781 q -0.25,0.40624 -0.70312,0.79686 -0.4375,0.375 -1.04688,0.60938 -0.60937,0.25 -1.32812,0.25 z m 0.14062,-1.39062 q 0.82813,0 1.5,-0.40625 0.6875,-0.42187 1.09375,-1.10937 0.42188,-0.6875 0.42188,-1.51563 -0.4375,-0.29687 -1.07813,-0.48437 -0.64062,-0.1875 -1.40625,-0.1875 -1.35937,0 -2,0.5625 -0.64062,0.5625 -0.64062,1.375 0,0.78125 0.59375,1.28125 0.60937,0.48437 1.51562,0.48437 z m 5.87605,-8.42187 h 5.57813 v 1.4375 h -5.57813 z m 1.67188,7.01562 v -9.70312 h 1.57812 v 9.3125 q 0,0.75 0.3125,1.15625 0.3125,0.40625 1.01563,0.40625 0.3125,0 0.57812,-0.0937 0.26563,-0.0937 0.46875,-0.21875 v 1.54686 q -0.25,0.10938 -0.54687,0.17188 -0.28125,0.0781 -0.76563,0.0781 -1.1875,0 -1.92187,-0.70312 -0.71875,-0.70312 -0.71875,-1.95312 z m 8.65413,2.79687 q -1.0625,0 -1.875,-0.40625 -0.79688,-0.40625 -1.25,-1.12499 -0.45313,-0.71875 -0.45313,-1.64063 0,-1.04687 0.53125,-1.76562 0.54688,-0.71875 1.45313,-1.07813 0.92187,-0.35937 2.01562,-0.35937 0.64063,0 1.17188,0.10937 0.54687,0.0937 0.9375,0.23438 0.40625,0.14062 0.625,0.26562 v -0.57812 q 0,-1.07813 -0.76563,-1.70313 -0.76562,-0.64062 -1.875,-0.64062 -0.78125,0 -1.46875,0.34375 -0.67187,0.34375 -1.0625,0.95312 l -1.20312,-0.89062 q 0.375,-0.5625 0.9375,-0.96875 0.5625,-0.40625 1.28125,-0.625 0.71875,-0.23438 1.51562,-0.23438 1.9375,0 3.03125,1.03125 1.10938,1.01563 1.10938,2.75 v 6.03124 h -1.5 v -1.35936 h -0.0781 q -0.25,0.40624 -0.70312,0.79686 -0.4375,0.375 -1.04688,0.60938 -0.60937,0.25 -1.32812,0.25 z m 0.14062,-1.39062 q 0.82813,0 1.5,-0.40625 0.6875,-0.42187 1.09375,-1.10937 0.42188,-0.6875 0.42188,-1.51563 -0.4375,-0.29687 -1.07813,-0.48437 -0.64062,-0.1875 -1.40625,-0.1875 -1.35937,0 -2,0.5625 -0.64062,0.5625 -0.64062,1.375 0,0.78125 0.59375,1.28125 0.60937,0.48437 1.51562,0.48437 z"
         fill-rule="nonzero"
         id="path59" />
    </g>
  </g>
</svg>
