<?xml version="1.0" encoding="UTF-8" standalone="no"?>
<svg
   xmlns:dc="http://purl.org/dc/elements/1.1/"
   xmlns:cc="http://creativecommons.org/ns#"
   xmlns:rdf="http://www.w3.org/1999/02/22-rdf-syntax-ns#"
   xmlns:svg="http://www.w3.org/2000/svg"
   xmlns="http://www.w3.org/2000/svg"
   xmlns:sodipodi="http://sodipodi.sourceforge.net/DTD/sodipodi-0.dtd"
   xmlns:inkscape="http://www.inkscape.org/namespaces/inkscape"
   inkscape:version="1.0 (4035a4f, 2020-05-01)"
   height="328.74805"
   width="549.40948"
   sodipodi:docname="interface_shape_name_false.svg"
   id="svg126"
   stroke-miterlimit="10"
   stroke-linecap="square"
   stroke="none"
   fill="none"
   viewBox="0 0 549.40948 328.74805"
   version="1.1">
  <metadata
     id="metadata132">
    <rdf:RDF>
      <cc:Work
         rdf:about="">
        <dc:format>image/svg+xml</dc:format>
        <dc:type
           rdf:resource="http://purl.org/dc/dcmitype/StillImage" />
      </cc:Work>
    </rdf:RDF>
  </metadata>
  <defs
     id="defs130" />
  <sodipodi:namedview
     inkscape:current-layer="g124"
     inkscape:window-maximized="0"
     inkscape:window-y="1105"
     inkscape:window-x="0"
     inkscape:cy="257.02098"
     inkscape:cx="285.13578"
     inkscape:zoom="0.95703125"
     showgrid="false"
     id="namedview128"
     inkscape:window-height="855"
     inkscape:window-width="1075"
     inkscape:pageshadow="2"
     inkscape:pageopacity="0"
     guidetolerance="10"
     gridtolerance="10"
     objecttolerance="10"
     borderopacity="1"
     bordercolor="#666666"
     pagecolor="#ffffff" />
  <clipPath
     id="p.0">
    <path
       id="path69"
       clip-rule="nonzero"
       d="M 0,0 H 1024 V 768 H 0 Z" />
  </clipPath>
  <g
     transform="translate(-61.770341,-23.534121)"
     id="g124"
     clip-path="url(#p.0)">
    <path
       id="path72"
       fill-rule="evenodd"
       d="M 0,0 H 1024 V 768 H 0 Z"
       fill-opacity="0"
       fill="#000000" />
    <g
       inkscape:export-ydpi="96"
       inkscape:export-xdpi="96"
       inkscape:export-filename="/Users/dylanbaker/Documents/explorables/explorable-ml/source/dataset-politics/img/interface_shape_name_false.png"
       id="g159">
      <path
         fill="#000000"
         fill-opacity="0"
         d="m 62.27034,24.03412 h 548.4095 V 351.78217 H 62.27034 Z"
         fill-rule="evenodd"
         id="path74" />
      <path
         stroke="#434343"
         stroke-width="1"
         stroke-linejoin="round"
         stroke-linecap="butt"
         d="M 62.270341,24.034121 H 610.67984 V 351.78217 H 62.270341 Z"
         fill-rule="evenodd"
         id="path76" />
      <path
         fill="#ffffff"
         d="M 125.03149,98.31233 H 353.09448 V 316.1391 H 125.03149 Z"
         fill-rule="evenodd"
         id="path78" />
      <path
         stroke="#000000"
         stroke-width="2"
         stroke-linejoin="round"
         stroke-linecap="butt"
         d="M 125.03149,98.31233 H 353.09448 V 316.1391 H 125.03149 Z"
         fill-rule="evenodd"
         id="path80" />
      <path
         fill="#000000"
         fill-opacity="0"
         d="m 420.29398,135.08054 h 75.68503 v 38.77165 h -75.68503 z"
         fill-rule="evenodd"
         id="path82" />
      <path
         fill="#000000"
         d="m 436.63773,159.14366 q -0.53125,0.20312 -1.09375,0.29687 -0.54688,0.10938 -1.14063,0.10938 -1.85937,0 -2.875,-1 -1,-1.01563 -1,-2.95313 0,-0.9375 0.28125,-1.6875 0.29688,-0.76562 0.8125,-1.29687 0.53125,-0.54688 1.25,-0.82813 0.73438,-0.29687 1.60938,-0.29687 0.60937,0 1.14062,0.0937 0.53125,0.0781 1.01563,0.26562 v 1.29688 q -0.5,-0.26563 -1.03125,-0.375 -0.53125,-0.125 -1.09375,-0.125 -0.51563,0 -0.98438,0.20312 -0.46875,0.1875 -0.82812,0.5625 -0.34375,0.375 -0.54688,0.92188 -0.20312,0.53125 -0.20312,1.21875 0,1.42187 0.6875,2.125 0.70312,0.70312 1.92187,0.70312 0.5625,0 1.07813,-0.125 0.51562,-0.125 1,-0.375 z m 5.375,-6.42188 h -2.3125 v -1.125 h 3.6875 v 6.70313 h 2.34375 v 1.14062 h -6.29688 v -1.14062 h 2.57813 z m 0.48437,-4.42187 q 0.21875,0 0.40625,0.0937 0.20313,0.0781 0.34375,0.23437 0.15625,0.14063 0.23438,0.32813 0.0781,0.1875 0.0781,0.42187 0,0.21875 -0.0781,0.42188 -0.0781,0.1875 -0.23438,0.34375 -0.14062,0.14062 -0.34375,0.21875 -0.1875,0.0781 -0.40625,0.0781 -0.23437,0 -0.4375,-0.0781 -0.1875,-0.0781 -0.32812,-0.21875 -0.14063,-0.15625 -0.23438,-0.34375 -0.0781,-0.20313 -0.0781,-0.42188 0,-0.23437 0.0781,-0.42187 0.0937,-0.1875 0.23438,-0.32813 0.14062,-0.15625 0.32812,-0.23437 0.20313,-0.0937 0.4375,-0.0937 z m 5.96875,3.29687 h 1.23438 l 0.0469,1.4375 q 0.6875,-0.82812 1.35938,-1.20312 0.6875,-0.375 1.375,-0.375 1.21875,0 1.84375,0.79687 0.625,0.78125 0.57812,2.32813 h -1.375 q 0.0312,-1.03125 -0.29687,-1.48438 -0.32813,-0.46875 -0.95313,-0.46875 -0.26562,0 -0.54687,0.0937 -0.28125,0.0937 -0.57813,0.3125 -0.28125,0.21875 -0.60937,0.5625 -0.32813,0.32813 -0.70313,0.79688 v 5.04687 h -1.375 z m 14.5625,7.54688 q -0.53125,0.20312 -1.09375,0.29687 -0.54687,0.10938 -1.14062,0.10938 -1.85938,0 -2.875,-1 -1,-1.01563 -1,-2.95313 0,-0.9375 0.28125,-1.6875 0.29687,-0.76562 0.8125,-1.29687 0.53125,-0.54688 1.25,-0.82813 0.73437,-0.29687 1.60937,-0.29687 0.60938,0 1.14063,0.0937 0.53125,0.0781 1.01562,0.26562 v 1.29688 q -0.5,-0.26563 -1.03125,-0.375 -0.53125,-0.125 -1.09375,-0.125 -0.51562,0 -0.98437,0.20312 -0.46875,0.1875 -0.82813,0.5625 -0.34375,0.375 -0.54687,0.92188 -0.20313,0.53125 -0.20313,1.21875 0,1.42187 0.6875,2.125 0.70313,0.70312 1.92188,0.70312 0.5625,0 1.07812,-0.125 0.51563,-0.125 1,-0.375 z m 5.375,-9.625 h -2.3125 v -1.125 h 3.6875 v 9.90625 h 2.34375 v 1.14062 h -6.29687 v -1.14062 h 2.57812 z m 12.75,5.57812 q 0,0.29688 -0.0156,0.5 0,0.1875 -0.0156,0.35938 h -5.5 q 0,1.20312 0.67188,1.84375 0.67187,0.64062 1.9375,0.64062 0.34375,0 0.6875,-0.0156 0.34375,-0.0312 0.65625,-0.0781 0.32812,-0.0469 0.60937,-0.10937 0.29688,-0.0625 0.54688,-0.125 v 1.10937 q -0.54688,0.15625 -1.25,0.25 -0.70313,0.10938 -1.45313,0.10938 -1,0 -1.73437,-0.26563 -0.71875,-0.28125 -1.1875,-0.79687 -0.46875,-0.53125 -0.6875,-1.28125 -0.21875,-0.75 -0.21875,-1.70313 0,-0.82812 0.23437,-1.5625 0.23438,-0.75 0.6875,-1.29687 0.46875,-0.5625 1.125,-0.89063 0.67188,-0.32812 1.51563,-0.32812 0.8125,0 1.4375,0.26562 0.64062,0.25 1.07812,0.71875 0.4375,0.46875 0.65625,1.15625 0.21875,0.67188 0.21875,1.5 z m -1.40625,-0.1875 q 0.0156,-0.53125 -0.10937,-0.95312 -0.125,-0.4375 -0.39063,-0.75 -0.25,-0.3125 -0.64062,-0.48438 -0.39063,-0.1875 -0.90625,-0.1875 -0.45313,0 -0.82813,0.17188 -0.35937,0.17187 -0.625,0.48437 -0.26562,0.3125 -0.4375,0.75 -0.15625,0.4375 -0.1875,0.96875 z"
         fill-rule="nonzero"
         id="path84" />
      <path
         fill="#000000"
         fill-opacity="0"
         d="m 420.29398,172.34645 h 94.1102 v 38.77165 h -94.1102 z"
         fill-rule="evenodd"
         id="path86" />
      <path
         fill="#000000"
         d="m 436.8721,196.59708 q -0.46875,0.125 -0.96875,0.17187 -0.48438,0.0469 -0.98438,0.0469 -1.48437,0 -2.21875,-0.67188 -0.71875,-0.67187 -0.71875,-2.04687 v -4.09375 h -2.1875 v -1.14063 h 2.1875 v -2.15625 l 1.35938,-0.35937 v 2.51562 h 3.53125 v 1.14063 h -3.53125 v 3.98437 q 0,0.84375 0.45312,1.26563 0.45313,0.40625 1.32813,0.40625 0.375,0 0.8125,-0.0469 0.45312,-0.0625 0.9375,-0.1875 z m 2.79687,-7.73438 h 1.23438 l 0.0469,1.4375 q 0.6875,-0.82812 1.35938,-1.20312 0.6875,-0.375 1.375,-0.375 1.21875,0 1.84375,0.79687 0.625,0.78125 0.57812,2.32813 h -1.375 q 0.0312,-1.03125 -0.29687,-1.48438 -0.32813,-0.46875 -0.95313,-0.46875 -0.26562,0 -0.54687,0.0937 -0.28125,0.0937 -0.57813,0.3125 -0.28125,0.21875 -0.60937,0.5625 -0.32813,0.32813 -0.70313,0.79688 v 5.04687 h -1.375 z m 11.14063,1.125 h -2.3125 v -1.125 h 3.6875 v 6.70313 h 2.34375 v 1.14062 h -6.29688 v -1.14062 h 2.57813 z m 0.48437,-4.42187 q 0.21875,0 0.40625,0.0937 0.20313,0.0781 0.34375,0.23437 0.15625,0.14063 0.23438,0.32813 0.0781,0.1875 0.0781,0.42187 0,0.21875 -0.0781,0.42188 -0.0781,0.1875 -0.23438,0.34375 -0.14062,0.14062 -0.34375,0.21875 -0.1875,0.0781 -0.40625,0.0781 -0.23437,0 -0.4375,-0.0781 -0.1875,-0.0781 -0.32812,-0.21875 -0.14063,-0.15625 -0.23438,-0.34375 -0.0781,-0.20313 -0.0781,-0.42188 0,-0.23437 0.0781,-0.42187 0.0937,-0.1875 0.23438,-0.32813 0.14062,-0.15625 0.32812,-0.23437 0.20313,-0.0937 0.4375,-0.0937 z m 10.6875,11.14062 -0.0312,-1.0625 q -0.64062,0.64063 -1.3125,0.92188 -0.65625,0.28125 -1.375,0.28125 -0.67187,0 -1.15625,-0.17188 -0.46875,-0.17187 -0.78125,-0.46875 -0.3125,-0.3125 -0.45312,-0.71875 -0.14063,-0.40625 -0.14063,-0.875 0,-1.1875 0.875,-1.84375 0.875,-0.67187 2.59375,-0.67187 h 1.625 v -0.6875 q 0,-0.70313 -0.45312,-1.10938 -0.4375,-0.42187 -1.34375,-0.42187 -0.67188,0 -1.3125,0.15625 -0.64063,0.14062 -1.32813,0.40625 v -1.21875 q 0.25,-0.0937 0.5625,-0.1875 0.32813,-0.0937 0.67188,-0.15625 0.35937,-0.0781 0.73437,-0.10938 0.39063,-0.0469 0.78125,-0.0469 0.70313,0 1.26563,0.15625 0.57812,0.15625 0.96875,0.48437 0.40625,0.3125 0.60937,0.79688 0.21875,0.48437 0.21875,1.14062 v 5.40625 z m -0.15625,-3.57812 h -1.71875 q -0.51562,0 -0.89062,0.10937 -0.35938,0.0937 -0.59375,0.28125 -0.23438,0.1875 -0.34375,0.45313 -0.10938,0.26562 -0.10938,0.59375 0,0.21875 0.0625,0.4375 0.0781,0.20312 0.23438,0.35937 0.15625,0.15625 0.40625,0.25 0.25,0.0937 0.60937,0.0937 0.46875,0 1.0625,-0.28125 0.60938,-0.28125 1.28125,-0.90625 z m 3.90625,-4.26563 h 1.21875 l 0.0469,1.26563 q 0.34375,-0.40625 0.65625,-0.67188 0.32812,-0.28125 0.64062,-0.4375 0.3125,-0.17187 0.625,-0.23437 0.32813,-0.0625 0.67188,-0.0625 1.20312,0 1.82812,0.71875 0.625,0.70312 0.625,2.14062 v 5.125 h -1.35937 v -5.01562 q 0,-0.92188 -0.34375,-1.35938 -0.34375,-0.4375 -1.03125,-0.4375 -0.25,0 -0.48438,0.0781 -0.23437,0.0625 -0.5,0.25 -0.25,0.1875 -0.5625,0.5 -0.29687,0.3125 -0.67187,0.78125 v 5.20312 h -1.35938 z m 14.45313,1.10938 q 0.21875,0.26562 0.32812,0.64062 0.125,0.35938 0.125,0.78125 0,0.60938 -0.21875,1.10938 -0.21875,0.5 -0.625,0.85937 -0.40625,0.35938 -0.98437,0.5625 -0.5625,0.20313 -1.23438,0.20313 -0.5,0 -0.9375,-0.10938 -0.42187,-0.10937 -0.67187,-0.26562 -0.14063,0.21875 -0.25,0.42187 -0.0937,0.1875 -0.0937,0.4375 0,0.29688 0.28125,0.5 0.28125,0.1875 0.75,0.20313 l 2.0625,0.0781 q 0.59375,0.0156 1.07812,0.15625 0.5,0.125 0.85938,0.375 0.35937,0.25 0.54687,0.625 0.20313,0.35938 0.20313,0.84375 0,0.53125 -0.23438,1 -0.21875,0.46875 -0.6875,0.8125 -0.46875,0.35938 -1.20312,0.5625 -0.71875,0.21875 -1.71875,0.21875 -0.95313,0 -1.625,-0.15625 -0.67188,-0.14062 -1.10938,-0.42187 -0.42187,-0.26563 -0.625,-0.64063 -0.1875,-0.35937 -0.1875,-0.8125 0,-0.5625 0.26563,-1 0.26562,-0.4375 0.82812,-0.82812 -0.20312,-0.0937 -0.35937,-0.23438 -0.14063,-0.14062 -0.23438,-0.3125 -0.0937,-0.17187 -0.14062,-0.35937 -0.0469,-0.1875 -0.0469,-0.35938 0,-0.51562 0.23438,-0.9375 0.23437,-0.42187 0.5625,-0.79687 -0.14063,-0.17188 -0.26563,-0.34375 -0.10937,-0.17188 -0.1875,-0.375 -0.0781,-0.20313 -0.125,-0.42188 -0.0469,-0.23437 -0.0469,-0.53125 0,-0.60937 0.21875,-1.10937 0.23437,-0.51563 0.625,-0.875 0.40625,-0.35938 0.96875,-0.54688 0.57812,-0.20312 1.26562,-0.20312 0.28125,0 0.54688,0.0469 0.26562,0.0312 0.46875,0.0937 h 2.84375 v 1.10938 z m -4.71875,7.875 q 0,0.54687 0.57812,0.79687 0.57813,0.26563 1.60938,0.26563 0.64062,0 1.07812,-0.125 0.45313,-0.10938 0.71875,-0.3125 0.26563,-0.1875 0.375,-0.4375 0.125,-0.23438 0.125,-0.5 0,-0.46875 -0.39062,-0.70313 -0.39063,-0.23437 -1.1875,-0.26562 l -2.04688,-0.0781 q -0.26562,0.17188 -0.4375,0.34375 -0.15625,0.17188 -0.25,0.32813 -0.0937,0.17187 -0.14062,0.34375 -0.0312,0.17187 -0.0312,0.34375 z m 0.40625,-6.42188 q 0,0.375 0.125,0.6875 0.125,0.3125 0.34375,0.53125 0.23437,0.21875 0.54687,0.34375 0.3125,0.10938 0.6875,0.10938 0.40625,0 0.71875,-0.125 0.3125,-0.14063 0.53125,-0.375 0.21875,-0.23438 0.32813,-0.53125 0.10937,-0.3125 0.10937,-0.64063 0,-0.375 -0.125,-0.6875 -0.125,-0.3125 -0.35937,-0.53125 -0.21875,-0.21875 -0.53125,-0.34375 -0.29688,-0.125 -0.67188,-0.125 -0.40625,0 -0.73437,0.14063 -0.3125,0.14062 -0.53125,0.375 -0.20313,0.23437 -0.32813,0.54687 -0.10937,0.29688 -0.10937,0.625 z m 10.125,-4.64062 h -2.3125 v -1.125 h 3.6875 v 9.90625 h 2.34375 v 1.14062 h -6.29688 v -1.14062 h 2.57813 z m 12.75,5.57812 q 0,0.29688 -0.0156,0.5 0,0.1875 -0.0156,0.35938 h -5.5 q 0,1.20312 0.67187,1.84375 0.67188,0.64062 1.9375,0.64062 0.34375,0 0.6875,-0.0156 0.34375,-0.0312 0.65625,-0.0781 0.32813,-0.0469 0.60938,-0.10937 0.29687,-0.0625 0.54687,-0.125 v 1.10937 q -0.54687,0.15625 -1.25,0.25 -0.70312,0.10938 -1.45312,0.10938 -1,0 -1.73438,-0.26563 -0.71875,-0.28125 -1.1875,-0.79687 -0.46875,-0.53125 -0.6875,-1.28125 -0.21875,-0.75 -0.21875,-1.70313 0,-0.82812 0.23438,-1.5625 0.23437,-0.75 0.6875,-1.29687 0.46875,-0.5625 1.125,-0.89063 0.67187,-0.32812 1.51562,-0.32812 0.8125,0 1.4375,0.26562 0.64063,0.25 1.07813,0.71875 0.4375,0.46875 0.65625,1.15625 0.21875,0.67188 0.21875,1.5 z m -1.40625,-0.1875 q 0.0156,-0.53125 -0.10938,-0.95312 -0.125,-0.4375 -0.39062,-0.75 -0.25,-0.3125 -0.64063,-0.48438 -0.39062,-0.1875 -0.90625,-0.1875 -0.45312,0 -0.82812,0.17188 -0.35938,0.17187 -0.625,0.48437 -0.26563,0.3125 -0.4375,0.75 -0.15625,0.4375 -0.1875,0.96875 z"
         fill-rule="nonzero"
         id="path88" />
      <path
         fill="#000000"
         fill-opacity="0"
         d="m 420.29398,212.88977 h 111.46457 v 38.77165 H 420.29398 Z"
         fill-rule="evenodd"
         id="path90" />
      <path
         fill="#000000"
         d="m 430.8721,229.40602 h 1.23437 l 0.0469,1.4375 q 0.6875,-0.82813 1.35937,-1.20313 0.6875,-0.375 1.375,-0.375 1.21875,0 1.84375,0.79688 0.625,0.78125 0.57813,2.32812 h -1.375 q 0.0312,-1.03125 -0.29688,-1.48437 -0.32812,-0.46875 -0.95312,-0.46875 -0.26563,0 -0.54688,0.0937 -0.28125,0.0937 -0.57812,0.3125 -0.28125,0.21875 -0.60938,0.5625 -0.32812,0.32812 -0.70312,0.79687 v 5.04688 h -1.375 z m 15.09375,3.5 q 0,0.29687 -0.0156,0.5 0,0.1875 -0.0156,0.35937 h -5.5 q 0,1.20313 0.67187,1.84375 0.67188,0.64063 1.9375,0.64063 0.34375,0 0.6875,-0.0156 0.34375,-0.0312 0.65625,-0.0781 0.32813,-0.0469 0.60938,-0.10938 0.29687,-0.0625 0.54687,-0.125 v 1.10938 q -0.54687,0.15625 -1.25,0.25 -0.70312,0.10937 -1.45312,0.10937 -1,0 -1.73438,-0.26562 -0.71875,-0.28125 -1.1875,-0.79688 -0.46875,-0.53125 -0.6875,-1.28125 -0.21875,-0.75 -0.21875,-1.70312 0,-0.82813 0.23438,-1.5625 0.23437,-0.75 0.6875,-1.29688 0.46875,-0.5625 1.125,-0.89062 0.67187,-0.32813 1.51562,-0.32813 0.8125,0 1.4375,0.26563 0.64063,0.25 1.07813,0.71875 0.4375,0.46875 0.65625,1.15625 0.21875,0.67187 0.21875,1.5 z m -1.40625,-0.1875 q 0.0156,-0.53125 -0.10938,-0.95313 -0.125,-0.4375 -0.39062,-0.75 -0.25,-0.3125 -0.64063,-0.48437 -0.39062,-0.1875 -0.90625,-0.1875 -0.45312,0 -0.82812,0.17187 -0.35938,0.17188 -0.625,0.48438 -0.26563,0.3125 -0.4375,0.75 -0.15625,0.4375 -0.1875,0.96875 z m 9.67187,4.23437 q -0.53125,0.20313 -1.09375,0.29688 -0.54687,0.10937 -1.14062,0.10937 -1.85938,0 -2.875,-1 -1,-1.01562 -1,-2.95312 0,-0.9375 0.28125,-1.6875 0.29687,-0.76563 0.8125,-1.29688 0.53125,-0.54687 1.25,-0.82812 0.73437,-0.29688 1.60937,-0.29688 0.60938,0 1.14063,0.0937 0.53125,0.0781 1.01562,0.26563 v 1.29687 q -0.5,-0.26562 -1.03125,-0.375 -0.53125,-0.125 -1.09375,-0.125 -0.51562,0 -0.98437,0.20313 -0.46875,0.1875 -0.82813,0.5625 -0.34375,0.375 -0.54687,0.92187 -0.20313,0.53125 -0.20313,1.21875 0,1.42188 0.6875,2.125 0.70313,0.70313 1.92188,0.70313 0.5625,0 1.07812,-0.125 0.51563,-0.125 1,-0.375 z m 9.03125,0.1875 q -0.46875,0.125 -0.96875,0.17188 -0.48437,0.0469 -0.98437,0.0469 -1.48438,0 -2.21875,-0.67187 -0.71875,-0.67188 -0.71875,-2.04688 v -4.09375 h -2.1875 v -1.14062 h 2.1875 v -2.15625 l 1.35937,-0.35938 v 2.51563 h 3.53125 v 1.14062 h -3.53125 v 3.98438 q 0,0.84375 0.45313,1.26562 0.45312,0.40625 1.32812,0.40625 0.375,0 0.8125,-0.0469 0.45313,-0.0625 0.9375,-0.1875 z m 7.51563,0.10938 -0.0312,-1.0625 q -0.64063,0.64062 -1.3125,0.92187 -0.65625,0.28125 -1.375,0.28125 -0.67188,0 -1.15625,-0.17187 -0.46875,-0.17188 -0.78125,-0.46875 -0.3125,-0.3125 -0.45313,-0.71875 -0.14062,-0.40625 -0.14062,-0.875 0,-1.1875 0.875,-1.84375 0.875,-0.67188 2.59375,-0.67188 h 1.625 v -0.6875 q 0,-0.70312 -0.45313,-1.10937 -0.4375,-0.42188 -1.34375,-0.42188 -0.67187,0 -1.3125,0.15625 -0.64062,0.14063 -1.32812,0.40625 v -1.21875 q 0.25,-0.0937 0.5625,-0.1875 0.32812,-0.0937 0.67187,-0.15625 0.35938,-0.0781 0.73438,-0.10937 0.39062,-0.0469 0.78125,-0.0469 0.70312,0 1.26562,0.15625 0.57813,0.15625 0.96875,0.48438 0.40625,0.3125 0.60938,0.79687 0.21875,0.48438 0.21875,1.14063 v 5.40625 z m -0.15625,-3.57813 h -1.71875 q -0.51563,0 -0.89063,0.10938 -0.35937,0.0937 -0.59375,0.28125 -0.23437,0.1875 -0.34375,0.45312 -0.10937,0.26563 -0.10937,0.59375 0,0.21875 0.0625,0.4375 0.0781,0.20313 0.23437,0.35938 0.15625,0.15625 0.40625,0.25 0.25,0.0937 0.60938,0.0937 0.46875,0 1.0625,-0.28125 0.60937,-0.28125 1.28125,-0.90625 z m 3.90625,-4.26562 h 1.21875 l 0.0469,1.26562 q 0.34375,-0.40625 0.65625,-0.67187 0.32813,-0.28125 0.64063,-0.4375 0.3125,-0.17188 0.625,-0.23438 0.32812,-0.0625 0.67187,-0.0625 1.20313,0 1.82813,0.71875 0.625,0.70313 0.625,2.14063 v 5.125 h -1.35938 v -5.01563 q 0,-0.92187 -0.34375,-1.35937 -0.34375,-0.4375 -1.03125,-0.4375 -0.25,0 -0.48437,0.0781 -0.23438,0.0625 -0.5,0.25 -0.25,0.1875 -0.5625,0.5 -0.29688,0.3125 -0.67188,0.78125 v 5.20313 h -1.35937 z m 14.45312,1.10937 q 0.21875,0.26563 0.32813,0.64063 0.125,0.35937 0.125,0.78125 0,0.60937 -0.21875,1.10937 -0.21875,0.5 -0.625,0.85938 -0.40625,0.35937 -0.98438,0.5625 -0.5625,0.20312 -1.23437,0.20312 -0.5,0 -0.9375,-0.10937 -0.42188,-0.10938 -0.67188,-0.26563 -0.14062,0.21875 -0.25,0.42188 -0.0937,0.1875 -0.0937,0.4375 0,0.29687 0.28125,0.5 0.28125,0.1875 0.75,0.20312 l 2.0625,0.0781 q 0.59375,0.0156 1.07813,0.15625 0.5,0.125 0.85937,0.375 0.35938,0.25 0.54688,0.625 0.20312,0.35937 0.20312,0.84375 0,0.53125 -0.23437,1 -0.21875,0.46875 -0.6875,0.8125 -0.46875,0.35937 -1.20313,0.5625 -0.71875,0.21875 -1.71875,0.21875 -0.95312,0 -1.625,-0.15625 -0.67187,-0.14063 -1.10937,-0.42188 -0.42188,-0.26562 -0.625,-0.64062 -0.1875,-0.35938 -0.1875,-0.8125 0,-0.5625 0.26562,-1 0.26563,-0.4375 0.82813,-0.82813 -0.20313,-0.0937 -0.35938,-0.23437 -0.14062,-0.14063 -0.23437,-0.3125 -0.0937,-0.17188 -0.14063,-0.35938 -0.0469,-0.1875 -0.0469,-0.35937 0,-0.51563 0.23437,-0.9375 0.23438,-0.42188 0.5625,-0.79688 -0.14062,-0.17187 -0.26562,-0.34375 -0.10938,-0.17187 -0.1875,-0.375 -0.0781,-0.20312 -0.125,-0.42187 -0.0469,-0.23438 -0.0469,-0.53125 0,-0.60938 0.21875,-1.10938 0.23438,-0.51562 0.625,-0.875 0.40625,-0.35937 0.96875,-0.54687 0.57813,-0.20313 1.26563,-0.20313 0.28125,0 0.54687,0.0469 0.26563,0.0312 0.46875,0.0937 h 2.84375 v 1.10937 z m -4.71875,7.875 q 0,0.54688 0.57813,0.79688 0.57812,0.26562 1.60937,0.26562 0.64063,0 1.07813,-0.125 0.45312,-0.10937 0.71875,-0.3125 0.26562,-0.1875 0.375,-0.4375 0.125,-0.23437 0.125,-0.5 0,-0.46875 -0.39063,-0.70312 -0.39062,-0.23438 -1.1875,-0.26563 l -2.04687,-0.0781 q -0.26563,0.17187 -0.4375,0.34375 -0.15625,0.17187 -0.25,0.32812 -0.0937,0.17188 -0.14063,0.34375 -0.0312,0.17188 -0.0312,0.34375 z m 0.40625,-6.42187 q 0,0.375 0.125,0.6875 0.125,0.3125 0.34375,0.53125 0.23438,0.21875 0.54688,0.34375 0.3125,0.10937 0.6875,0.10937 0.40625,0 0.71875,-0.125 0.3125,-0.14062 0.53125,-0.375 0.21875,-0.23437 0.32812,-0.53125 0.10938,-0.3125 0.10938,-0.64062 0,-0.375 -0.125,-0.6875 -0.125,-0.3125 -0.35938,-0.53125 -0.21875,-0.21875 -0.53125,-0.34375 -0.29687,-0.125 -0.67187,-0.125 -0.40625,0 -0.73438,0.14062 -0.3125,0.14063 -0.53125,0.375 -0.20312,0.23438 -0.32812,0.54688 -0.10938,0.29687 -0.10938,0.625 z m 10.125,-4.64063 h -2.3125 v -1.125 h 3.6875 v 9.90625 h 2.34375 v 1.14063 h -6.29687 v -1.14063 h 2.57812 z m 12.75,5.57813 q 0,0.29687 -0.0156,0.5 0,0.1875 -0.0156,0.35937 h -5.5 q 0,1.20313 0.67188,1.84375 0.67187,0.64063 1.9375,0.64063 0.34375,0 0.6875,-0.0156 0.34375,-0.0312 0.65625,-0.0781 0.32812,-0.0469 0.60937,-0.10938 0.29688,-0.0625 0.54688,-0.125 v 1.10938 q -0.54688,0.15625 -1.25,0.25 -0.70313,0.10937 -1.45313,0.10937 -1,0 -1.73437,-0.26562 -0.71875,-0.28125 -1.1875,-0.79688 -0.46875,-0.53125 -0.6875,-1.28125 -0.21875,-0.75 -0.21875,-1.70312 0,-0.82813 0.23437,-1.5625 0.23438,-0.75 0.6875,-1.29688 0.46875,-0.5625 1.125,-0.89062 0.67188,-0.32813 1.51563,-0.32813 0.8125,0 1.4375,0.26563 0.64062,0.25 1.07812,0.71875 0.4375,0.46875 0.65625,1.15625 0.21875,0.67187 0.21875,1.5 z m -1.40625,-0.1875 q 0.0156,-0.53125 -0.10937,-0.95313 -0.125,-0.4375 -0.39063,-0.75 -0.25,-0.3125 -0.64062,-0.48437 -0.39063,-0.1875 -0.90625,-0.1875 -0.45313,0 -0.82813,0.17187 -0.35937,0.17188 -0.625,0.48438 -0.26562,0.3125 -0.4375,0.75 -0.15625,0.4375 -0.1875,0.96875 z"
         fill-rule="nonzero"
         id="path92" />
      <path
         fill="#000000"
         fill-opacity="0"
         d="M 97.22835,34.559055 H 610.6772 V 89.488189 H 97.22835 Z"
         fill-rule="evenodd"
         id="path94" />
      <path
         fill="#000000"
         d="m 191.99881,51.15468 q 0,0.5625 -0.21875,1.125 -0.20313,0.5625 -0.65625,1.015625 -0.45313,0.4375 -1.15625,0.71875 -0.70313,0.265625 -1.67188,0.265625 h -1.15625 v 3.359375 h -1.28125 V 48.27968 h 2.64063 q 0.6875,0 1.32812,0.15625 0.64063,0.15625 1.125,0.5 0.48438,0.34375 0.76563,0.890625 0.28125,0.546875 0.28125,1.328125 z m -1.3125,0.04687 q 0,-0.890625 -0.59375,-1.375 -0.59375,-0.484375 -1.65625,-0.484375 h -1.29688 v 3.859375 h 1.1875 q 1.125,0 1.73438,-0.5 0.625,-0.5 0.625,-1.5 z m 5.6987,-2.65625 h -2.125 v -1.01562 h 3.39062 v 9.078125 h 2.125 v 1.03125 h -5.75 v -1.03125 h 2.35938 z m 11.68307,5.125 q 0,0.265625 -0.0156,0.453125 0,0.171875 -0.0156,0.328125 h -5.04687 q 0,1.09375 0.60937,1.6875 0.625,0.59375 1.78125,0.59375 0.3125,0 0.625,-0.01563 0.3125,-0.03125 0.60938,-0.07813 0.29687,-0.04687 0.5625,-0.09375 0.26562,-0.0625 0.5,-0.125 v 1.03125 q -0.51563,0.140625 -1.15625,0.21875 -0.64063,0.09375 -1.32813,0.09375 -0.92187,0 -1.59375,-0.25 -0.65625,-0.25 -1.07812,-0.71875 -0.42188,-0.484375 -0.625,-1.171875 -0.20313,-0.6875 -0.20313,-1.5625 0,-0.765625 0.21875,-1.4375 0.21875,-0.671875 0.625,-1.1875 0.42188,-0.515625 1.03125,-0.8125 0.60938,-0.296875 1.375,-0.296875 0.76563,0 1.34375,0.234375 0.57813,0.234375 0.96875,0.671875 0.40625,0.4375 0.60938,1.0625 0.20312,0.609375 0.20312,1.375 z m -1.29687,-0.1875 q 0.0156,-0.46875 -0.10938,-0.859375 -0.10937,-0.40625 -0.34375,-0.6875 -0.23437,-0.296875 -0.59375,-0.453125 -0.35937,-0.15625 -0.82812,-0.15625 -0.40625,0 -0.75,0.15625 -0.32813,0.15625 -0.57813,0.4375 -0.25,0.28125 -0.40625,0.6875 -0.14062,0.40625 -0.17187,0.875 z m 7.90182,4.15625 -0.0312,-0.96875 q -0.59375,0.578125 -1.20312,0.84375 -0.59375,0.25 -1.26563,0.25 -0.60937,0 -1.04687,-0.15625 -0.4375,-0.15625 -0.71875,-0.421875 -0.28125,-0.28125 -0.42188,-0.65625 -0.125,-0.375 -0.125,-0.8125 0,-1.078125 0.79688,-1.6875 0.8125,-0.609375 2.39062,-0.609375 h 1.48438 v -0.64062 q 0,-0.625 -0.40625,-1 -0.40625,-0.390625 -1.25,-0.390625 -0.60938,0 -1.20313,0.140625 -0.57812,0.125 -1.21875,0.375 v -1.125 q 0.25,-0.07813 0.53125,-0.15625 0.29688,-0.09375 0.60938,-0.15625 0.32812,-0.0625 0.67187,-0.09375 0.35938,-0.04687 0.71875,-0.04687 0.64063,0 1.15625,0.140625 0.53125,0.140625 0.89063,0.4375 0.35937,0.296875 0.54687,0.75 0.20313,0.4375 0.20313,1.03125 v 4.953125 z m -0.14062,-3.265625 h -1.57813 q -0.46875,0 -0.8125,0.09375 -0.32812,0.09375 -0.54687,0.265625 -0.21875,0.171875 -0.32813,0.40625 -0.0937,0.234375 -0.0937,0.546875 0,0.203125 0.0625,0.390625 0.0625,0.1875 0.20313,0.34375 0.15625,0.140625 0.375,0.234375 0.23437,0.07813 0.5625,0.07813 0.4375,0 0.98437,-0.265625 0.5625,-0.265625 1.17188,-0.828125 z m 9.2612,1.3125 q 0,0.375 -0.125,0.671875 -0.125,0.296875 -0.34375,0.53125 -0.21875,0.234375 -0.51563,0.40625 -0.29687,0.15625 -0.64062,0.265625 -0.32813,0.109375 -0.6875,0.15625 -0.34375,0.04687 -0.67188,0.04687 -0.73437,0 -1.34375,-0.0625 -0.60937,-0.0625 -1.20312,-0.203125 v -1.140625 q 0.64062,0.171875 1.25,0.265625 0.625,0.09375 1.25,0.09375 0.89062,0 1.3125,-0.234375 0.4375,-0.25 0.4375,-0.703125 0,-0.1875 -0.0781,-0.34375 -0.0625,-0.15625 -0.25,-0.296875 -0.17187,-0.140625 -0.54687,-0.28125 -0.375,-0.15625 -1.01563,-0.359375 -0.5,-0.140625 -0.90625,-0.3125 -0.40625,-0.1875 -0.71875,-0.4375 -0.29687,-0.25 -0.46875,-0.578125 -0.17187,-0.34375 -0.17187,-0.8125 0,-0.296875 0.14062,-0.65625 0.14063,-0.359375 0.46875,-0.65625 0.34375,-0.3125 0.92188,-0.515625 0.57812,-0.203125 1.42187,-0.203125 0.42188,0 0.9375,0.04687 0.51563,0.04687 1.07813,0.15625 v 1.109375 q -0.57813,-0.140625 -1.10938,-0.203125 -0.53125,-0.07813 -0.90625,-0.07813 -0.46875,0 -0.79687,0.07813 -0.3125,0.0625 -0.51563,0.203125 -0.1875,0.125 -0.28125,0.296875 -0.0781,0.15625 -0.0781,0.34375 0,0.203125 0.0625,0.359375 0.0781,0.15625 0.28125,0.3125 0.21875,0.140625 0.57812,0.28125 0.35938,0.140625 0.95313,0.3125 0.64062,0.1875 1.0625,0.390625 0.4375,0.203125 0.70312,0.46875 0.28125,0.25 0.39063,0.5625 0.125,0.3125 0.125,0.71875 z m 8.4487,-2.015625 q 0,0.265625 -0.0156,0.453125 0,0.171875 -0.0156,0.328125 h -5.04688 q 0,1.09375 0.60938,1.6875 0.625,0.59375 1.78125,0.59375 0.3125,0 0.625,-0.01563 0.3125,-0.03125 0.60937,-0.07813 0.29688,-0.04687 0.5625,-0.09375 0.26563,-0.0625 0.5,-0.125 v 1.03125 q -0.51562,0.140625 -1.15625,0.21875 -0.64062,0.09375 -1.32812,0.09375 -0.92188,0 -1.59375,-0.25 -0.65625,-0.25 -1.07813,-0.71875 -0.42187,-0.484375 -0.625,-1.171875 -0.20312,-0.6875 -0.20312,-1.5625 0,-0.765625 0.21875,-1.4375 0.21875,-0.671875 0.625,-1.1875 0.42187,-0.515625 1.03125,-0.8125 0.60937,-0.296875 1.375,-0.296875 0.76562,0 1.34375,0.234375 0.57812,0.234375 0.96875,0.671875 0.40625,0.4375 0.60937,1.0625 0.20313,0.609375 0.20313,1.375 z m -1.29688,-0.1875 q 0.0156,-0.46875 -0.10937,-0.859375 -0.10938,-0.40625 -0.34375,-0.6875 -0.23438,-0.296875 -0.59375,-0.453125 -0.35938,-0.15625 -0.82813,-0.15625 -0.40625,0 -0.75,0.15625 -0.32812,0.15625 -0.57812,0.4375 -0.25,0.28125 -0.40625,0.6875 -0.14063,0.40625 -0.17188,0.875 z m 17.0224,2.203125 q 0,0.375 -0.125,0.671875 -0.125,0.296875 -0.34375,0.53125 -0.21875,0.234375 -0.51562,0.40625 -0.29688,0.15625 -0.64063,0.265625 -0.32812,0.109375 -0.6875,0.15625 -0.34375,0.04687 -0.67187,0.04687 -0.73438,0 -1.34375,-0.0625 -0.60938,-0.0625 -1.20313,-0.203125 v -1.140625 q 0.64063,0.171875 1.25,0.265625 0.625,0.09375 1.25,0.09375 0.89063,0 1.3125,-0.234375 0.4375,-0.25 0.4375,-0.703125 0,-0.1875 -0.0781,-0.34375 -0.0625,-0.15625 -0.25,-0.296875 -0.17188,-0.140625 -0.54688,-0.28125 -0.375,-0.15625 -1.01562,-0.359375 -0.5,-0.140625 -0.90625,-0.3125 -0.40625,-0.1875 -0.71875,-0.4375 -0.29688,-0.25 -0.46875,-0.578125 -0.17188,-0.34375 -0.17188,-0.8125 0,-0.296875 0.14063,-0.65625 0.14062,-0.359375 0.46875,-0.65625 0.34375,-0.3125 0.92187,-0.515625 0.57813,-0.203125 1.42188,-0.203125 0.42187,0 0.9375,0.04687 0.51562,0.04687 1.07812,0.15625 v 1.109375 q -0.57812,-0.140625 -1.10937,-0.203125 -0.53125,-0.07813 -0.90625,-0.07813 -0.46875,0 -0.79688,0.07813 -0.3125,0.0625 -0.51562,0.203125 -0.1875,0.125 -0.28125,0.296875 -0.0781,0.15625 -0.0781,0.34375 0,0.203125 0.0625,0.359375 0.0781,0.15625 0.28125,0.3125 0.21875,0.140625 0.57813,0.28125 0.35937,0.140625 0.95312,0.3125 0.64063,0.1875 1.0625,0.390625 0.4375,0.203125 0.70313,0.46875 0.28125,0.25 0.39062,0.5625 0.125,0.3125 0.125,0.71875 z m 8.4487,-2.015625 q 0,0.265625 -0.0156,0.453125 0,0.171875 -0.0156,0.328125 h -5.04687 q 0,1.09375 0.60937,1.6875 0.625,0.59375 1.78125,0.59375 0.3125,0 0.625,-0.01563 0.3125,-0.03125 0.60938,-0.07813 0.29687,-0.04687 0.5625,-0.09375 0.26562,-0.0625 0.5,-0.125 v 1.03125 q -0.51563,0.140625 -1.15625,0.21875 -0.64063,0.09375 -1.32813,0.09375 -0.92187,0 -1.59375,-0.25 -0.65625,-0.25 -1.07812,-0.71875 -0.42188,-0.484375 -0.625,-1.171875 -0.20313,-0.6875 -0.20313,-1.5625 0,-0.765625 0.21875,-1.4375 0.21875,-0.671875 0.625,-1.1875 0.42188,-0.515625 1.03125,-0.8125 0.60938,-0.296875 1.375,-0.296875 0.76563,0 1.34375,0.234375 0.57813,0.234375 0.96875,0.671875 0.40625,0.4375 0.60938,1.0625 0.20312,0.609375 0.20312,1.375 z m -1.29687,-0.1875 q 0.0156,-0.46875 -0.10938,-0.859375 -0.10937,-0.40625 -0.34375,-0.6875 -0.23437,-0.296875 -0.59375,-0.453125 -0.35937,-0.15625 -0.82812,-0.15625 -0.40625,0 -0.75,0.15625 -0.32813,0.15625 -0.57813,0.4375 -0.25,0.28125 -0.40625,0.6875 -0.14062,0.40625 -0.17187,0.875 z m 5.72995,-4.9375 h -2.125 v -1.01562 h 3.39062 v 9.078125 h 2.125 v 1.03125 h -5.75 v -1.03125 h 2.35938 z m 11.68307,5.125 q 0,0.265625 -0.0156,0.453125 0,0.171875 -0.0156,0.328125 h -5.04687 q 0,1.09375 0.60937,1.6875 0.625,0.59375 1.78125,0.59375 0.3125,0 0.625,-0.01563 0.3125,-0.03125 0.60938,-0.07813 0.29687,-0.04687 0.5625,-0.09375 0.26562,-0.0625 0.5,-0.125 v 1.03125 q -0.51563,0.140625 -1.15625,0.21875 -0.64063,0.09375 -1.32813,0.09375 -0.92187,0 -1.59375,-0.25 -0.65625,-0.25 -1.07812,-0.71875 -0.42188,-0.484375 -0.625,-1.171875 -0.20313,-0.6875 -0.20313,-1.5625 0,-0.765625 0.21875,-1.4375 0.21875,-0.671875 0.625,-1.1875 0.42188,-0.515625 1.03125,-0.8125 0.60938,-0.296875 1.375,-0.296875 0.76563,0 1.34375,0.234375 0.57813,0.234375 0.96875,0.671875 0.40625,0.4375 0.60938,1.0625 0.20312,0.609375 0.20312,1.375 z m -1.29687,-0.1875 q 0.0156,-0.46875 -0.10938,-0.859375 -0.10937,-0.40625 -0.34375,-0.6875 -0.23437,-0.296875 -0.59375,-0.453125 -0.35937,-0.15625 -0.82812,-0.15625 -0.40625,0 -0.75,0.15625 -0.32813,0.15625 -0.57813,0.4375 -0.25,0.28125 -0.40625,0.6875 -0.14062,0.40625 -0.17187,0.875 z m 8.87057,3.890625 q -0.5,0.1875 -1.01562,0.265625 -0.5,0.09375 -1.04688,0.09375 -1.70312,0 -2.625,-0.921875 -0.92187,-0.921875 -0.92187,-2.6875 0,-0.859375 0.26562,-1.546875 0.26563,-0.703125 0.75,-1.1875 0.48438,-0.5 1.14063,-0.765625 0.67187,-0.265625 1.46875,-0.265625 0.5625,0 1.04687,0.07813 0.48438,0.07813 0.9375,0.25 v 1.1875 q -0.46875,-0.234375 -0.95312,-0.34375 -0.48438,-0.109375 -1,-0.109375 -0.48438,0 -0.90625,0.1875 -0.42188,0.171875 -0.75,0.515625 -0.3125,0.34375 -0.5,0.84375 -0.1875,0.484375 -0.1875,1.109375 0,1.296875 0.625,1.953125 0.64062,0.640625 1.76562,0.640625 0.5,0 0.96875,-0.109375 0.48438,-0.109375 0.9375,-0.34375 z m 8.2612,0.171875 q -0.42187,0.09375 -0.875,0.140625 -0.45312,0.04687 -0.92187,0.04687 -1.34375,0 -2.01563,-0.609375 -0.65625,-0.609375 -0.65625,-1.875 v -3.75 h -2.01562 v -1.046875 h 2.01562 v -1.96875 l 1.23438,-0.328125 v 2.296875 h 3.23437 v 1.046875 h -3.23437 v 3.65625 q 0,0.765625 0.40625,1.15625 0.42187,0.375 1.21875,0.375 0.34375,0 0.75,-0.04687 0.40625,-0.0625 0.85937,-0.171875 z m 16.11615,0 q -0.42187,0.09375 -0.875,0.140625 -0.45312,0.04687 -0.92187,0.04687 -1.34375,0 -2.01563,-0.609375 -0.65625,-0.609375 -0.65625,-1.875 v -3.75 h -2.01562 v -1.046875 h 2.01562 v -1.96875 l 1.23438,-0.328125 v 2.296875 h 3.23437 v 1.046875 h -3.23437 v 3.65625 q 0,0.765625 0.40625,1.15625 0.42187,0.375 1.21875,0.375 0.34375,0 0.75,-0.04687 0.40625,-0.0625 0.85937,-0.171875 z m 8.04245,0.09375 h -1.25 V 53.0453 q 0,-0.828125 -0.3125,-1.234375 -0.3125,-0.40625 -0.89062,-0.40625 -0.25,0 -0.46875,0.0625 -0.21875,0.0625 -0.45313,0.234375 -0.23437,0.171875 -0.51562,0.453125 -0.28125,0.28125 -0.64063,0.71875 v 4.765625 h -1.25 V 47.52968 h 1.25 v 2.921875 l -0.0469,1.140625 q 0.29687,-0.359375 0.57812,-0.59375 0.28125,-0.25 0.5625,-0.390625 0.28125,-0.15625 0.57813,-0.21875 0.29687,-0.0625 0.60937,-0.0625 1.07813,0 1.65625,0.65625 0.59375,0.65625 0.59375,1.96875 z m 8.35495,-3.96875 q 0,0.265625 -0.0156,0.453125 0,0.171875 -0.0156,0.328125 h -5.04687 q 0,1.09375 0.60937,1.6875 0.625,0.59375 1.78125,0.59375 0.3125,0 0.625,-0.01563 0.3125,-0.03125 0.60938,-0.07813 0.29687,-0.04687 0.5625,-0.09375 0.26562,-0.0625 0.5,-0.125 v 1.03125 q -0.51563,0.140625 -1.15625,0.21875 -0.64063,0.09375 -1.32813,0.09375 -0.92187,0 -1.59375,-0.25 -0.65625,-0.25 -1.07812,-0.71875 -0.42188,-0.484375 -0.625,-1.171875 -0.20313,-0.6875 -0.20313,-1.5625 0,-0.765625 0.21875,-1.4375 0.21875,-0.671875 0.625,-1.1875 0.42188,-0.515625 1.03125,-0.8125 0.60938,-0.296875 1.375,-0.296875 0.76563,0 1.34375,0.234375 0.57813,0.234375 0.96875,0.671875 0.40625,0.4375 0.60938,1.0625 0.20312,0.609375 0.20312,1.375 z m -1.29687,-0.1875 q 0.0156,-0.46875 -0.10938,-0.859375 -0.10937,-0.40625 -0.34375,-0.6875 -0.23437,-0.296875 -0.59375,-0.453125 -0.35937,-0.15625 -0.82812,-0.15625 -0.40625,0 -0.75,0.15625 -0.32813,0.15625 -0.57813,0.4375 -0.25,0.28125 -0.40625,0.6875 -0.14062,0.40625 -0.17187,0.875 z m 11.3349,-3.03125 h 1.10937 l 0.0469,1.15625 q 0.32812,-0.359375 0.60937,-0.609375 0.29688,-0.25 0.57813,-0.390625 0.28125,-0.15625 0.57812,-0.21875 0.29688,-0.0625 0.60938,-0.0625 1.10937,0 1.67187,0.65625 0.57813,0.65625 0.57813,1.96875 v 4.6875 h -1.25 V 53.0453 q 0,-0.84375 -0.3125,-1.234375 -0.3125,-0.40625 -0.9375,-0.40625 -0.23438,0 -0.45313,0.0625 -0.21875,0.0625 -0.45312,0.234375 -0.23438,0.171875 -0.51563,0.453125 -0.26562,0.28125 -0.60937,0.71875 v 4.765625 h -1.25 z m 12.68307,7.1875 -0.0312,-0.96875 q -0.59375,0.578125 -1.20312,0.84375 -0.59375,0.25 -1.26563,0.25 -0.60937,0 -1.04687,-0.15625 -0.4375,-0.15625 -0.71875,-0.421875 -0.28125,-0.28125 -0.42188,-0.65625 -0.125,-0.375 -0.125,-0.8125 0,-1.078125 0.79688,-1.6875 0.8125,-0.609375 2.39062,-0.609375 h 1.48438 v -0.64062 q 0,-0.625 -0.40625,-1 -0.40625,-0.390625 -1.25,-0.390625 -0.60938,0 -1.20313,0.140625 -0.57812,0.125 -1.21875,0.375 v -1.125 q 0.25,-0.07813 0.53125,-0.15625 0.29688,-0.09375 0.60938,-0.15625 0.32812,-0.0625 0.67187,-0.09375 0.35938,-0.04687 0.71875,-0.04687 0.64063,0 1.15625,0.140625 0.53125,0.140625 0.89063,0.4375 0.35937,0.296875 0.54687,0.75 0.20313,0.4375 0.20313,1.03125 v 4.953125 z m -0.14062,-3.265625 h -1.57813 q -0.46875,0 -0.8125,0.09375 -0.32812,0.09375 -0.54687,0.265625 -0.21875,0.171875 -0.32813,0.40625 -0.0937,0.234375 -0.0937,0.546875 0,0.203125 0.0625,0.390625 0.0625,0.1875 0.20313,0.34375 0.15625,0.140625 0.375,0.234375 0.23437,0.07813 0.5625,0.07813 0.4375,0 0.98437,-0.265625 0.5625,-0.265625 1.17188,-0.828125 z m 8.6987,3.265625 V 52.4828 q 0,-0.34375 -0.0312,-0.546875 -0.0156,-0.21875 -0.0781,-0.34375 -0.0469,-0.125 -0.125,-0.171875 -0.0781,-0.0625 -0.20312,-0.0625 -0.14063,0 -0.26563,0.09375 -0.125,0.07813 -0.26562,0.28125 -0.14063,0.1875 -0.3125,0.515625 -0.15625,0.3125 -0.39063,0.78125 v 4.609375 h -1.14062 V 52.6078 q 0,-0.390625 -0.0312,-0.625 -0.0156,-0.25 -0.0781,-0.375 -0.0469,-0.140625 -0.14062,-0.1875 -0.0781,-0.0625 -0.20313,-0.0625 -0.125,0 -0.25,0.07813 -0.10937,0.0625 -0.25,0.25 -0.125,0.1875 -0.29687,0.515625 -0.17188,0.328125 -0.40625,0.828125 v 4.609375 h -1.15625 v -7.1875 h 0.95312 l 0.0625,1.375 q 0.1875,-0.40625 0.35938,-0.6875 0.17187,-0.296875 0.35937,-0.46875 0.1875,-0.1875 0.39063,-0.265625 0.21875,-0.07813 0.46875,-0.07813 0.59375,0 0.89062,0.375 0.29688,0.375 0.29688,1.171875 0.17187,-0.375 0.32812,-0.65625 0.17188,-0.296875 0.35938,-0.484375 0.1875,-0.203125 0.42187,-0.296875 0.23438,-0.109375 0.53125,-0.109375 1.34372,0 1.34372,2.078125 v 5.234375 z m 9.0112,-3.96875 q 0,0.265625 -0.0156,0.453125 0,0.171875 -0.0156,0.328125 h -5.04688 q 0,1.09375 0.60938,1.6875 0.625,0.59375 1.78125,0.59375 0.3125,0 0.625,-0.01563 0.3125,-0.03125 0.60937,-0.07813 0.29688,-0.04687 0.5625,-0.09375 0.26563,-0.0625 0.5,-0.125 v 1.03125 q -0.51562,0.140625 -1.15625,0.21875 -0.64062,0.09375 -1.32812,0.09375 -0.92188,0 -1.59375,-0.25 -0.65625,-0.25 -1.07813,-0.71875 -0.42187,-0.484375 -0.625,-1.171875 -0.20312,-0.6875 -0.20312,-1.5625 0,-0.765625 0.21875,-1.4375 0.21875,-0.671875 0.625,-1.1875 0.42187,-0.515625 1.03125,-0.8125 0.60937,-0.296875 1.375,-0.296875 0.76562,0 1.34375,0.234375 0.57812,0.234375 0.96875,0.671875 0.40625,0.4375 0.60937,1.0625 0.20313,0.609375 0.20313,1.375 z m -1.29688,-0.1875 q 0.0156,-0.46875 -0.10937,-0.859375 -0.10938,-0.40625 -0.34375,-0.6875 -0.23438,-0.296875 -0.59375,-0.453125 -0.35938,-0.15625 -0.82813,-0.15625 -0.40625,0 -0.75,0.15625 -0.32812,0.15625 -0.57812,0.4375 -0.25,0.28125 -0.40625,0.6875 -0.14063,0.40625 -0.17188,0.875 z m 17.60053,0.5 q 0,0.84375 -0.25,1.546875 -0.23438,0.6875 -0.67188,1.1875 -0.4375,0.5 -1.07812,0.78125 -0.64063,0.265625 -1.45313,0.265625 -0.76562,0 -1.39062,-0.234375 -0.60938,-0.234375 -1.03125,-0.703125 -0.42188,-0.46875 -0.65625,-1.15625 -0.21875,-0.6875 -0.21875,-1.578125 0,-0.84375 0.23437,-1.53125 0.23438,-0.6875 0.67188,-1.1875 0.45312,-0.5 1.09375,-0.765625 0.64062,-0.28125 1.4375,-0.28125 0.78125,0 1.39062,0.25 0.60938,0.234375 1.03125,0.703125 0.4375,0.453125 0.65625,1.140625 0.23438,0.6875 0.23438,1.5625 z m -1.28125,0.0625 q 0,-0.671875 -0.15625,-1.15625 -0.14063,-0.5 -0.42188,-0.828125 -0.26562,-0.34375 -0.65625,-0.5 -0.375,-0.171875 -0.85937,-0.171875 -0.5625,0 -0.96875,0.21875 -0.39063,0.21875 -0.64063,0.578125 -0.25,0.359375 -0.375,0.84375 -0.10937,0.484375 -0.10937,1.015625 0,0.671875 0.14062,1.171875 0.14063,0.5 0.40625,0.828125 0.28125,0.328125 0.67188,0.5 0.39062,0.171875 0.875,0.171875 0.5625,0 0.95312,-0.21875 0.39063,-0.21875 0.64063,-0.578125 0.26562,-0.375 0.375,-0.859375 0.125,-0.484375 0.125,-1.015625 z m 9.44867,-5.359375 q -0.96875,-0.203125 -1.6875,-0.203125 -1.67188,0 -1.67188,1.75 v 1.265625 h 3.14063 v 1.03125 h -3.14063 v 5.109375 h -1.26562 v -5.10937 h -2.3125 v -1.03125 h 2.3125 v -1.1875 q 0,-2.875 2.98437,-2.875 0.75,0 1.64063,0.171875 z m -7.51563,1.765625 z m 23.05365,7.09375 q -0.42187,0.09375 -0.875,0.140625 -0.45312,0.04687 -0.92187,0.04687 -1.34375,0 -2.01563,-0.609375 -0.65625,-0.609375 -0.65625,-1.875 v -3.75 h -2.01562 v -1.046875 h 2.01562 v -1.96875 l 1.23438,-0.328125 v 2.296875 h 3.23437 v 1.046875 h -3.23437 v 3.65625 q 0,0.765625 0.40625,1.15625 0.42187,0.375 1.21875,0.375 0.34375,0 0.75,-0.04687 0.40625,-0.0625 0.85937,-0.171875 z m 8.04248,0.09375 h -1.25 V 53.0453 q 0,-0.828125 -0.3125,-1.234375 -0.3125,-0.40625 -0.89062,-0.40625 -0.25,0 -0.46875,0.0625 -0.21875,0.0625 -0.45313,0.234375 -0.23437,0.171875 -0.51562,0.453125 -0.28125,0.28125 -0.64063,0.71875 v 4.765625 h -1.25 V 47.52968 h 1.25 v 2.921875 l -0.0469,1.140625 q 0.29687,-0.359375 0.57812,-0.59375 0.28125,-0.25 0.5625,-0.390625 0.28125,-0.15625 0.57813,-0.21875 0.29687,-0.0625 0.60937,-0.0625 1.07813,0 1.65625,0.65625 0.59375,0.65625 0.59375,1.96875 z M 417.578,53.6703 q 0,0.265625 -0.0156,0.453125 0,0.171875 -0.0156,0.328125 h -5.04687 q 0,1.09375 0.60937,1.6875 0.625,0.59375 1.78125,0.59375 0.3125,0 0.625,-0.01563 0.3125,-0.03125 0.60938,-0.07813 0.29687,-0.04687 0.5625,-0.09375 0.26562,-0.0625 0.5,-0.125 v 1.03125 q -0.51563,0.140625 -1.15625,0.21875 -0.64063,0.09375 -1.32813,0.09375 -0.92187,0 -1.59375,-0.25 -0.65625,-0.25 -1.07812,-0.71875 -0.42188,-0.484375 -0.625,-1.171875 -0.20313,-0.6875 -0.20313,-1.5625 0,-0.765625 0.21875,-1.4375 0.21875,-0.671875 0.625,-1.1875 0.42188,-0.515625 1.03125,-0.8125 0.60938,-0.296875 1.375,-0.296875 0.76563,0 1.34375,0.234375 0.57813,0.234375 0.96875,0.671875 0.40625,0.4375 0.60938,1.0625 0.20312,0.609375 0.20312,1.375 z m -1.29687,-0.1875 q 0.0156,-0.46875 -0.10938,-0.859375 -0.10937,-0.40625 -0.34375,-0.6875 -0.23437,-0.296875 -0.59375,-0.453125 -0.35937,-0.15625 -0.82812,-0.15625 -0.40625,0 -0.75,0.15625 -0.32813,0.15625 -0.57813,0.4375 -0.25,0.28125 -0.40625,0.6875 -0.14062,0.40625 -0.17187,0.875 z m 17.0224,2.203125 q 0,0.375 -0.125,0.671875 -0.125,0.296875 -0.34375,0.53125 -0.21875,0.234375 -0.51563,0.40625 -0.29687,0.15625 -0.64062,0.265625 -0.32813,0.109375 -0.6875,0.15625 -0.34375,0.04687 -0.67188,0.04687 -0.73437,0 -1.34375,-0.0625 -0.60937,-0.0625 -1.20312,-0.203125 v -1.140625 q 0.64062,0.171875 1.25,0.265625 0.625,0.09375 1.25,0.09375 0.89062,0 1.3125,-0.234375 0.4375,-0.25 0.4375,-0.703125 0,-0.1875 -0.0781,-0.34375 -0.0625,-0.15625 -0.25,-0.296875 -0.17187,-0.140625 -0.54687,-0.28125 -0.375,-0.15625 -1.01563,-0.359375 -0.5,-0.140625 -0.90625,-0.3125 -0.40625,-0.1875 -0.71875,-0.4375 -0.29687,-0.25 -0.46875,-0.578125 -0.17187,-0.34375 -0.17187,-0.8125 0,-0.296875 0.14062,-0.65625 0.14063,-0.359375 0.46875,-0.65625 0.34375,-0.3125 0.92188,-0.515625 0.57812,-0.203125 1.42187,-0.203125 0.42188,0 0.9375,0.04687 0.51563,0.04687 1.07813,0.15625 v 1.109375 q -0.57813,-0.140625 -1.10938,-0.203125 -0.53125,-0.07813 -0.90625,-0.07813 -0.46875,0 -0.79687,0.07813 -0.3125,0.0625 -0.51563,0.203125 -0.1875,0.125 -0.28125,0.296875 -0.0781,0.15625 -0.0781,0.34375 0,0.203125 0.0625,0.359375 0.0781,0.15625 0.28125,0.3125 0.21875,0.140625 0.57812,0.28125 0.35938,0.140625 0.95313,0.3125 0.64062,0.1875 1.0625,0.390625 0.4375,0.203125 0.70312,0.46875 0.28125,0.25 0.39063,0.5625 0.125,0.3125 0.125,0.71875 z m 8.15185,1.953125 h -1.25 V 53.0453 q 0,-0.828125 -0.3125,-1.234375 -0.3125,-0.40625 -0.89062,-0.40625 -0.25,0 -0.46875,0.0625 -0.21875,0.0625 -0.45313,0.234375 -0.23437,0.171875 -0.51562,0.453125 -0.28125,0.28125 -0.64063,0.71875 v 4.765625 h -1.25 V 47.52968 h 1.25 v 2.921875 l -0.0469,1.140625 q 0.29687,-0.359375 0.57812,-0.59375 0.28125,-0.25 0.5625,-0.390625 0.28125,-0.15625 0.57813,-0.21875 0.29687,-0.0625 0.60937,-0.0625 1.07813,0 1.65625,0.65625 0.59375,0.65625 0.59375,1.96875 z m 6.9018,0 -0.0312,-0.96875 q -0.59375,0.578125 -1.20313,0.84375 -0.59375,0.25 -1.26562,0.25 -0.60938,0 -1.04688,-0.15625 -0.4375,-0.15625 -0.71875,-0.421875 -0.28125,-0.28125 -0.42187,-0.65625 -0.125,-0.375 -0.125,-0.8125 0,-1.078125 0.79687,-1.6875 0.8125,-0.609375 2.39063,-0.609375 h 1.48437 v -0.64062 q 0,-0.625 -0.40625,-1 -0.40625,-0.390625 -1.25,-0.390625 -0.60937,0 -1.20312,0.140625 -0.57813,0.125 -1.21875,0.375 v -1.125 q 0.25,-0.07813 0.53125,-0.15625 0.29687,-0.09375 0.60937,-0.15625 0.32813,-0.0625 0.67188,-0.09375 0.35937,-0.04687 0.71875,-0.04687 0.64062,0 1.15625,0.140625 0.53125,0.140625 0.89062,0.4375 0.35938,0.296875 0.54688,0.75 0.20312,0.4375 0.20312,1.03125 v 4.953125 z m -0.14063,-3.265625 h -1.57812 q -0.46875,0 -0.8125,0.09375 -0.32813,0.09375 -0.54688,0.265625 -0.21875,0.171875 -0.32812,0.40625 -0.0937,0.234375 -0.0937,0.546875 0,0.203125 0.0625,0.390625 0.0625,0.1875 0.20312,0.34375 0.15625,0.140625 0.375,0.234375 0.23438,0.07813 0.5625,0.07813 0.4375,0 0.98438,-0.265625 0.5625,-0.265625 1.17187,-0.828125 z m 9.71436,-0.453125 q 0,0.953125 -0.26563,1.671875 -0.26562,0.71875 -0.75,1.1875 -0.46875,0.46875 -1.10937,0.703125 -0.64063,0.234375 -1.39063,0.234375 -0.34375,0 -0.6875,-0.03125 -0.34375,-0.03125 -0.6875,-0.125 v 3.015625 h -1.25 v -10.125 h 1.10938 l 0.0781,1.203125 q 0.54688,-0.734375 1.15625,-1.03125 0.60938,-0.296875 1.3125,-0.296875 0.60938,0 1.07813,0.265625 0.46875,0.25 0.78125,0.71875 0.3125,0.46875 0.46875,1.140625 0.15625,0.65625 0.15625,1.46875 z m -1.26563,0.04687 q 0,-0.5625 -0.0937,-1.03125 -0.0781,-0.46875 -0.26562,-0.796875 -0.17188,-0.34375 -0.45313,-0.53125 -0.26562,-0.1875 -0.65625,-0.1875 -0.23437,0 -0.48437,0.07813 -0.23438,0.0625 -0.5,0.25 -0.26563,0.171875 -0.5625,0.46875 -0.28125,0.28125 -0.60938,0.703125 v 3.484375 q 0.34375,0.140625 0.71875,0.234375 0.39063,0.07813 0.75,0.07813 1,0 1.57813,-0.6875 0.57812,-0.6875 0.57812,-2.0625 z m 9.26117,-0.296875 q 0,0.265625 -0.0156,0.453125 0,0.171875 -0.0156,0.328125 h -5.04687 q 0,1.09375 0.60937,1.6875 0.625,0.59375 1.78125,0.59375 0.3125,0 0.625,-0.01563 0.3125,-0.03125 0.60938,-0.07813 0.29687,-0.04687 0.5625,-0.09375 0.26562,-0.0625 0.5,-0.125 v 1.03125 q -0.51563,0.140625 -1.15625,0.21875 -0.64063,0.09375 -1.32813,0.09375 -0.92187,0 -1.59375,-0.25 -0.65625,-0.25 -1.07812,-0.71875 -0.42188,-0.484375 -0.625,-1.171875 -0.20313,-0.6875 -0.20313,-1.5625 0,-0.765625 0.21875,-1.4375 0.21875,-0.671875 0.625,-1.1875 0.42188,-0.515625 1.03125,-0.8125 0.60938,-0.296875 1.375,-0.296875 0.76563,0 1.34375,0.234375 0.57813,0.234375 0.96875,0.671875 0.40625,0.4375 0.60938,1.0625 0.20312,0.609375 0.20312,1.375 z m -1.29687,-0.1875 q 0.0156,-0.46875 -0.10938,-0.859375 -0.10937,-0.40625 -0.34375,-0.6875 -0.23437,-0.296875 -0.59375,-0.453125 -0.35937,-0.15625 -0.82812,-0.15625 -0.40625,0 -0.75,0.15625 -0.32813,0.15625 -0.57813,0.4375 -0.25,0.28125 -0.40625,0.6875 -0.14062,0.40625 -0.17187,0.875 z m 17.47552,0.4375 q 0,0.890625 -0.25,1.59375 -0.23437,0.703125 -0.70312,1.203125 -0.45313,0.484375 -1.10938,0.75 -0.64062,0.25 -1.45312,0.25 -0.64063,0 -1.3125,-0.109375 -0.65625,-0.125 -1.3125,-0.390625 v -9.6875 h 1.25 v 2.78125 l -0.0625,1.328125 q 0.54687,-0.71875 1.15625,-1.015625 0.60937,-0.296875 1.3125,-0.296875 0.60937,0 1.07812,0.265625 0.46875,0.25 0.78125,0.71875 0.3125,0.46875 0.46875,1.140625 0.15625,0.65625 0.15625,1.46875 z m -1.26562,0.04687 q 0,-0.5625 -0.0937,-1.03125 -0.0781,-0.46875 -0.26563,-0.796875 -0.17187,-0.34375 -0.45312,-0.53125 -0.26563,-0.1875 -0.65625,-0.1875 -0.23438,0 -0.48438,0.07813 -0.23437,0.0625 -0.5,0.25 -0.26562,0.171875 -0.5625,0.46875 -0.28125,0.28125 -0.60937,0.703125 v 3.484375 q 0.35937,0.140625 0.73437,0.234375 0.39063,0.07813 0.73438,0.07813 0.42187,0 0.8125,-0.125 0.39062,-0.140625 0.6875,-0.453125 0.29687,-0.328125 0.46875,-0.859375 0.1875,-0.53125 0.1875,-1.3125 z m 9.26123,-0.296875 q 0,0.265625 -0.0156,0.453125 0,0.171875 -0.0156,0.328125 h -5.04688 q 0,1.09375 0.60938,1.6875 0.625,0.59375 1.78125,0.59375 0.3125,0 0.625,-0.01563 0.3125,-0.03125 0.60937,-0.07813 0.29688,-0.04687 0.5625,-0.09375 0.26563,-0.0625 0.5,-0.125 v 1.03125 q -0.51562,0.140625 -1.15625,0.21875 -0.64062,0.09375 -1.32812,0.09375 -0.92188,0 -1.59375,-0.25 -0.65625,-0.25 -1.07813,-0.71875 -0.42187,-0.484375 -0.625,-1.171875 -0.20312,-0.6875 -0.20312,-1.5625 0,-0.765625 0.21875,-1.4375 0.21875,-0.671875 0.625,-1.1875 0.42187,-0.515625 1.03125,-0.8125 0.60937,-0.296875 1.375,-0.296875 0.76562,0 1.34375,0.234375 0.57812,0.234375 0.96875,0.671875 0.40625,0.4375 0.60937,1.0625 0.20313,0.609375 0.20313,1.375 z m -1.29688,-0.1875 q 0.0156,-0.46875 -0.10937,-0.859375 -0.10938,-0.40625 -0.34375,-0.6875 -0.23438,-0.296875 -0.59375,-0.453125 -0.35938,-0.15625 -0.82813,-0.15625 -0.40625,0 -0.75,0.15625 -0.32812,0.15625 -0.57812,0.4375 -0.25,0.28125 -0.40625,0.6875 -0.14063,0.40625 -0.17188,0.875 z m 5.72992,-4.9375 h -2.125 v -1.01561 h 3.39063 v 9.078125 h 2.125 v 1.03125 h -5.75 v -1.03125 h 2.35937 z m 11.87061,5.4375 q 0,0.84375 -0.25,1.546875 -0.23438,0.6875 -0.67188,1.1875 -0.4375,0.5 -1.07812,0.78125 -0.64063,0.265625 -1.45313,0.265625 -0.76562,0 -1.39062,-0.234375 -0.60938,-0.234375 -1.03125,-0.703125 -0.42188,-0.46875 -0.65625,-1.15625 -0.21875,-0.6875 -0.21875,-1.578125 0,-0.84375 0.23437,-1.53125 0.23438,-0.6875 0.67188,-1.1875 0.45312,-0.5 1.09375,-0.765625 0.64062,-0.28125 1.4375,-0.28125 0.78125,0 1.39062,0.25 0.60938,0.234375 1.03125,0.703125 0.4375,0.453125 0.65625,1.140625 0.23438,0.6875 0.23438,1.5625 z m -1.28125,0.0625 q 0,-0.671875 -0.15625,-1.15625 -0.14063,-0.5 -0.42188,-0.828125 -0.26562,-0.34375 -0.65625,-0.5 -0.375,-0.171875 -0.85937,-0.171875 -0.5625,0 -0.96875,0.21875 -0.39063,0.21875 -0.64063,0.578125 -0.25,0.359375 -0.375,0.84375 -0.10937,0.484375 -0.10937,1.015625 0,0.671875 0.14062,1.171875 0.14063,0.5 0.40625,0.828125 0.28125,0.328125 0.67188,0.5 0.39062,0.171875 0.875,0.171875 0.5625,0 0.95312,-0.21875 0.39063,-0.21875 0.64063,-0.578125 0.26562,-0.375 0.375,-0.859375 0.125,-0.484375 0.125,-1.015625 z m 9.72991,-3.59375 -1.04687,7.1875 h -1.5 l -1.04688,-3 -0.20312,-0.734375 -0.23438,0.765625 -1,2.96875 h -1.46875 l -1.03125,-7.1875 h 1.21875 l 0.59375,4.890625 0.14063,1.078125 0.29687,-0.953125 1.04688,-3.21875 h 0.89062 l 1.125,3.171875 0.32813,0.953125 0.10937,-1 0.54688,-4.921875 z m 4.22999,4.9375 q 0.25,0 0.46875,0.09375 0.21875,0.09375 0.375,0.265625 0.15625,0.15625 0.25,0.375 0.0937,0.21875 0.0937,0.46875 0,0.234375 -0.0937,0.453125 -0.0937,0.21875 -0.25,0.375 -0.15625,0.15625 -0.375,0.25 -0.21875,0.09375 -0.46875,0.09375 -0.25,0 -0.46875,-0.09375 -0.20313,-0.09375 -0.375,-0.25 -0.15625,-0.15625 -0.25,-0.375 -0.0937,-0.21875 -0.0937,-0.453125 0,-0.25 0.0937,-0.46875 0.0937,-0.21875 0.25,-0.375 0.17187,-0.171875 0.375,-0.265625 0.21875,-0.09375 0.46875,-0.09375 z"
         fill-rule="nonzero"
         id="path96" />
      <path
         fill="#000000"
         d="m 226.10168,67.31718 v -1.4375 h 5.90625 v 1.4375 h -2.0625 v 6.46875 h 2.0625 v 1.453125 h -5.90625 V 73.78593 h 2.0625 v -6.46875 z m 14.49557,-0.703125 q -0.3125,-0.109375 -0.75,-0.171875 -0.42187,-0.0625 -0.875,-0.0625 -0.3125,0 -0.57812,0.07813 -0.26563,0.07813 -0.45313,0.265625 -0.1875,0.171875 -0.3125,0.453125 -0.10937,0.265625 -0.10937,0.65625 v 1.1875 h 2.85937 v 1.359375 h -2.85937 v 4.859375 h -1.75 v -4.85938 h -2.10938 v -1.359375 h 2.10938 V 67.91093 q 0,-0.765625 0.21875,-1.3125 0.23437,-0.5625 0.64062,-0.921875 0.40625,-0.359375 0.98438,-0.515625 0.57812,-0.171875 1.29687,-0.171875 0.48438,0 0.90625,0.0625 0.42188,0.0625 0.78125,0.140625 z m -7.51562,1.359375 z m 21.44427,7.265625 V 70.50468 q 0,-1.203125 -0.89062,-1.203125 -0.4375,0 -0.84375,0.359375 -0.40625,0.359375 -0.85938,0.984375 v 4.59375 h -1.73437 V 67.97343 h 1.5 l 0.0469,1.0625 q 0.21875,-0.265625 0.45313,-0.5 0.25,-0.234375 0.53125,-0.390625 0.28125,-0.15625 0.59375,-0.234375 0.32812,-0.09375 0.73437,-0.09375 0.54688,0 0.95313,0.1875 0.42187,0.171875 0.70312,0.515625 0.28125,0.328125 0.42188,0.796875 0.14062,0.46875 0.14062,1.046875 v 4.875 z m 10.27683,-3.6875 q 0,0.859375 -0.25,1.578125 -0.23438,0.703125 -0.70313,1.21875 -0.45312,0.5 -1.125,0.78125 -0.65625,0.28125 -1.51562,0.28125 -0.79688,0 -1.4375,-0.234375 -0.64063,-0.25 -1.09375,-0.71875 -0.4375,-0.46875 -0.67188,-1.171875 -0.23437,-0.703125 -0.23437,-1.640625 0,-0.859375 0.25,-1.5625 0.25,-0.71875 0.70312,-1.21875 0.46875,-0.5 1.125,-0.765625 0.67188,-0.28125 1.5,-0.28125 0.82813,0 1.45313,0.234375 0.64062,0.234375 1.07812,0.71875 0.45313,0.46875 0.6875,1.171875 0.23438,0.6875 0.23438,1.609375 z m -1.82813,0.03125 q 0,-1.125 -0.42187,-1.6875 -0.42188,-0.578125 -1.25,-0.578125 -0.46875,0 -0.79688,0.1875 -0.3125,0.171875 -0.51562,0.484375 -0.20313,0.3125 -0.3125,0.734375 -0.0937,0.40625 -0.0937,0.875 0,1.140625 0.45312,1.71875 0.46875,0.578125 1.26563,0.578125 0.4375,0 0.75,-0.171875 0.32812,-0.1875 0.53125,-0.484375 0.20312,-0.3125 0.29687,-0.734375 0.0937,-0.421875 0.0937,-0.921875 z m 7.66745,3.65625 V 70.50468 q 0,-1.203125 -0.89062,-1.203125 -0.4375,0 -0.84375,0.359375 -0.40625,0.359375 -0.85938,0.984375 v 4.59375 h -1.73437 V 67.97343 h 1.5 l 0.0469,1.0625 q 0.21875,-0.265625 0.45313,-0.5 0.25,-0.234375 0.53125,-0.390625 0.28125,-0.15625 0.59375,-0.234375 0.32812,-0.09375 0.73437,-0.09375 0.54688,0 0.95313,0.1875 0.42187,0.171875 0.70312,0.515625 0.28125,0.328125 0.42188,0.796875 0.14062,0.46875 0.14062,1.046875 v 4.875 z m 10.05808,-4.1875 q 0,0.171875 -0.0156,0.46875 0,0.28125 -0.0312,0.53125 H 275.872 q 0,0.46875 0.14063,0.84375 0.15625,0.359375 0.42187,0.609375 0.26563,0.25 0.64063,0.375 0.39062,0.125 0.84375,0.125 0.53125,0 1.125,-0.07813 0.60937,-0.07813 1.26562,-0.265625 v 1.390625 q -0.28125,0.07813 -0.60937,0.140625 -0.32813,0.0625 -0.67188,0.109375 -0.34375,0.04687 -0.70312,0.07813 -0.34375,0.03125 -0.67188,0.03125 -0.82812,0 -1.5,-0.234375 -0.65625,-0.25 -1.10937,-0.703125 -0.45313,-0.46875 -0.70313,-1.140625 -0.23437,-0.6875 -0.23437,-1.578125 0,-0.890625 0.23437,-1.609375 0.25,-0.734375 0.6875,-1.25 0.45313,-0.515625 1.07813,-0.796875 0.64062,-0.28125 1.42187,-0.28125 0.76563,0 1.35938,0.234375 0.59375,0.234375 0.98437,0.671875 0.40625,0.421875 0.60938,1.015625 0.21875,0.59375 0.21875,1.3125 z m -1.78125,-0.25 q 0.0156,-0.4375 -0.10938,-0.75 -0.10937,-0.328125 -0.3125,-0.53125 -0.1875,-0.203125 -0.45312,-0.296875 -0.25,-0.109375 -0.5625,-0.109375 -0.65625,0 -1.07813,0.4375 -0.42187,0.4375 -0.5,1.25 z m 16.11615,4.4375 -0.0312,-0.953125 q -0.23438,0.25 -0.48438,0.453125 -0.25,0.203125 -0.5625,0.359375 -0.29687,0.140625 -0.65625,0.21875 -0.34375,0.09375 -0.76562,0.09375 -0.5625,0 -0.98438,-0.171875 -0.42187,-0.171875 -0.70312,-0.453125 -0.28125,-0.296875 -0.4375,-0.703125 -0.14063,-0.421875 -0.14063,-0.921875 0,-0.515625 0.21875,-0.953125 0.21875,-0.4375 0.65625,-0.75 0.45313,-0.3125 1.125,-0.484375 0.67188,-0.1875 1.5625,-0.1875 h 0.95313 v -0.4375 q 0,-0.28125 -0.0781,-0.5 -0.0781,-0.234375 -0.25,-0.390625 -0.17187,-0.15625 -0.45312,-0.234375 -0.28125,-0.09375 -0.6875,-0.09375 -0.64063,0 -1.26563,0.15625 -0.625,0.140625 -1.21875,0.40625 v -1.40625 q 0.53125,-0.203125 1.20313,-0.328125 0.6875,-0.140625 1.42187,-0.140625 0.8125,0 1.39063,0.15625 0.57812,0.140625 0.95312,0.453125 0.375,0.3125 0.54688,0.78125 0.1875,0.453125 0.1875,1.0625 v 4.96875 z m -0.25,-3.21875 h -1.0625 q -0.4375,0 -0.75,0.09375 -0.3125,0.07813 -0.5,0.234375 -0.1875,0.15625 -0.28125,0.359375 -0.0937,0.1875 -0.0937,0.40625 0,0.4375 0.28125,0.671875 0.29687,0.234375 0.78125,0.234375 0.375,0 0.76562,-0.265625 0.39063,-0.265625 0.85938,-0.75 z m 10.29245,-0.546875 q 0,1 -0.28125,1.734375 -0.28125,0.734375 -0.78125,1.21875 -0.5,0.46875 -1.1875,0.703125 -0.6875,0.234375 -1.5,0.234375 -0.28125,0 -0.54688,-0.03125 -0.26562,-0.03125 -0.5,-0.09375 v 2.84375 h -1.73437 V 67.97343 h 1.5 l 0.0469,1.0625 q 0.21875,-0.265625 0.45313,-0.5 0.25,-0.234375 0.53125,-0.390625 0.28125,-0.15625 0.59375,-0.234375 0.32812,-0.09375 0.73437,-0.09375 0.64063,0 1.14063,0.265625 0.5,0.25 0.82812,0.71875 0.34375,0.46875 0.51563,1.15625 0.1875,0.671875 0.1875,1.515625 z m -1.82813,0.07813 q 0,-0.609375 -0.0937,-1.03125 -0.0781,-0.421875 -0.25,-0.6875 -0.15625,-0.28125 -0.39062,-0.40625 -0.21875,-0.125 -0.53125,-0.125 -0.4375,0 -0.84375,0.359375 -0.40625,0.359375 -0.85938,0.984375 v 3.171875 q 0.21875,0.07813 0.51563,0.125 0.3125,0.04687 0.625,0.04687 0.40625,0 0.75,-0.171875 0.34375,-0.171875 0.57812,-0.484375 0.25,-0.3125 0.375,-0.765625 0.125,-0.453125 0.125,-1.015625 z m 9.8862,-0.07813 q 0,1 -0.28125,1.734375 -0.28125,0.734375 -0.78125,1.21875 -0.5,0.46875 -1.1875,0.703125 -0.6875,0.234375 -1.5,0.234375 -0.28125,0 -0.54687,-0.03125 -0.26563,-0.03125 -0.5,-0.09375 v 2.84375 H 306.6043 V 67.97343 h 1.5 l 0.0469,1.0625 q 0.21875,-0.265625 0.45312,-0.5 0.25,-0.234375 0.53125,-0.390625 0.28125,-0.15625 0.59375,-0.234375 0.32813,-0.09375 0.73438,-0.09375 0.64062,0 1.14062,0.265625 0.5,0.25 0.82813,0.71875 0.34375,0.46875 0.51562,1.15625 0.1875,0.671875 0.1875,1.515625 z m -1.82812,0.07813 q 0,-0.609375 -0.0937,-1.03125 -0.0781,-0.421875 -0.25,-0.6875 -0.15625,-0.28125 -0.39063,-0.40625 -0.21875,-0.125 -0.53125,-0.125 -0.4375,0 -0.84375,0.359375 -0.40625,0.359375 -0.85937,0.984375 v 3.171875 q 0.21875,0.07813 0.51562,0.125 0.3125,0.04687 0.625,0.04687 0.40625,0 0.75,-0.171875 0.34375,-0.171875 0.57813,-0.484375 0.25,-0.3125 0.375,-0.765625 0.125,-0.453125 0.125,-1.015625 z m 5.6987,-5.0625 h -2.0625 v -1.35938 h 3.84375 v 8.75 h 2.10937 v 1.359375 h -6.20312 V 73.87968 h 2.3125 z m 9.99557,-0.515625 q 0,0.234375 -0.0937,0.453125 -0.0781,0.203125 -0.23437,0.359375 -0.15625,0.15625 -0.375,0.25 -0.20313,0.07813 -0.4375,0.07813 -0.25,0 -0.46875,-0.07813 -0.20313,-0.09375 -0.35938,-0.25 -0.15625,-0.15625 -0.25,-0.359375 -0.0781,-0.21875 -0.0781,-0.453125 0,-0.234375 0.0781,-0.4375 0.0937,-0.203125 0.25,-0.359375 0.15625,-0.15625 0.35938,-0.25 0.21875,-0.09375 0.46875,-0.09375 0.23437,0 0.4375,0.09375 0.21875,0.09375 0.375,0.25 0.15625,0.15625 0.23437,0.359375 0.0937,0.203125 0.0937,0.4375 z m -1.9375,3.359375 h -2.0625 v -1.35938 h 3.84375 v 5.90625 h 2.10938 v 1.359375 H 322.7517 V 73.87968 h 2.3125 z m 12.04245,1.71875 q 0,0.171875 -0.0156,0.46875 0,0.28125 -0.0312,0.53125 h -4.78125 q 0,0.46875 0.14062,0.84375 0.15625,0.359375 0.42188,0.609375 0.26562,0.25 0.64062,0.375 0.39063,0.125 0.84375,0.125 0.53125,0 1.125,-0.07813 0.60938,-0.07813 1.26563,-0.265625 v 1.390625 q -0.28125,0.07813 -0.60938,0.140625 -0.32812,0.0625 -0.67187,0.109375 -0.34375,0.04687 -0.70313,0.07813 -0.34375,0.03125 -0.67187,0.03125 -0.82813,0 -1.5,-0.234375 -0.65625,-0.25 -1.10938,-0.703125 -0.45312,-0.46875 -0.70312,-1.140625 -0.23438,-0.6875 -0.23438,-1.578125 0,-0.890625 0.23438,-1.609375 0.25,-0.734375 0.6875,-1.25 0.45312,-0.515625 1.07812,-0.796875 0.64063,-0.28125 1.42188,-0.28125 0.76562,0 1.35937,0.234375 0.59375,0.234375 0.98438,0.671875 0.40625,0.421875 0.60937,1.015625 0.21875,0.59375 0.21875,1.3125 z m -1.78125,-0.25 q 0.0156,-0.4375 -0.10937,-0.75 -0.10938,-0.328125 -0.3125,-0.53125 -0.1875,-0.203125 -0.45313,-0.296875 -0.25,-0.109375 -0.5625,-0.109375 -0.65625,0 -1.07812,0.4375 -0.42188,0.4375 -0.5,1.25 z m 9.49558,2.296875 q 0,0.625 -0.28125,1.0625 -0.26563,0.4375 -0.71875,0.71875 -0.45313,0.28125 -1.03125,0.40625 -0.57813,0.125 -1.17188,0.125 -0.79687,0 -1.45312,-0.07813 -0.64063,-0.07813 -1.21875,-0.21875 V 73.53593 q 0.6875,0.28125 1.34375,0.40625 0.67187,0.125 1.26562,0.125 0.6875,0 1.03125,-0.21875 0.34375,-0.21875 0.34375,-0.5625 0,-0.171875 -0.0781,-0.296875 -0.0781,-0.140625 -0.28125,-0.265625 -0.1875,-0.125 -0.54688,-0.25 -0.35937,-0.140625 -0.9375,-0.3125 -0.53125,-0.15625 -0.9375,-0.34375 -0.40625,-0.1875 -0.67187,-0.4375 -0.26563,-0.265625 -0.40625,-0.59375 -0.125,-0.34375 -0.125,-0.8125 0,-0.4375 0.20312,-0.828125 0.20313,-0.390625 0.59375,-0.6875 0.40625,-0.296875 1,-0.46875 0.59375,-0.171875 1.39063,-0.171875 0.6875,0 1.21875,0.07813 0.53125,0.0625 0.9375,0.140625 v 1.421875 q -0.625,-0.1875 -1.17188,-0.265625 -0.54687,-0.09375 -1.09375,-0.09375 -0.53125,0 -0.85937,0.203125 -0.32813,0.1875 -0.32813,0.53125 0,0.15625 0.0625,0.296875 0.0781,0.125 0.26563,0.25 0.1875,0.109375 0.51562,0.25 0.34375,0.125 0.90625,0.28125 0.625,0.1875 1.04688,0.390625 0.4375,0.203125 0.70312,0.46875 0.26563,0.25 0.375,0.578125 0.10938,0.328125 0.10938,0.75 z m 2.58932,3.515625 q 0.42188,0.01563 0.79688,-0.04687 0.375,-0.0625 0.64062,-0.203125 0.28125,-0.140625 0.4375,-0.359375 0.15625,-0.203125 0.15625,-0.5 0,-0.203125 -0.0625,-0.34375 -0.0625,-0.15625 -0.15625,-0.265625 -0.0937,-0.125 -0.20312,-0.234375 -0.0937,-0.109375 -0.1875,-0.234375 -0.0937,-0.125 -0.15625,-0.28125 -0.0469,-0.171875 -0.0469,-0.40625 0,-0.21875 0.0781,-0.421875 0.0781,-0.21875 0.21875,-0.375 0.15625,-0.171875 0.375,-0.265625 0.21875,-0.109375 0.5,-0.109375 0.34375,0 0.625,0.171875 0.28125,0.15625 0.46875,0.4375 0.20312,0.265625 0.29687,0.625 0.0937,0.34375 0.0937,0.734375 0,0.671875 -0.25,1.25 -0.23437,0.59375 -0.71875,1.03125 -0.48437,0.4375 -1.21875,0.6875 -0.71875,0.25 -1.6875,0.25 z m 21.58487,-3.515625 q 0,0.625 -0.28125,1.0625 -0.26562,0.4375 -0.71875,0.71875 -0.45312,0.28125 -1.03125,0.40625 -0.57812,0.125 -1.17187,0.125 -0.79688,0 -1.45313,-0.07813 -0.64062,-0.07813 -1.21875,-0.21875 V 73.53593 q 0.6875,0.28125 1.34375,0.40625 0.67188,0.125 1.26563,0.125 0.6875,0 1.03125,-0.21875 0.34375,-0.21875 0.34375,-0.5625 0,-0.171875 -0.0781,-0.296875 -0.0781,-0.140625 -0.28125,-0.265625 -0.1875,-0.125 -0.54687,-0.25 -0.35938,-0.140625 -0.9375,-0.3125 -0.53125,-0.15625 -0.9375,-0.34375 -0.40625,-0.1875 -0.67188,-0.4375 -0.26562,-0.265625 -0.40625,-0.59375 -0.125,-0.34375 -0.125,-0.8125 0,-0.4375 0.20313,-0.828125 0.20312,-0.390625 0.59375,-0.6875 0.40625,-0.296875 1,-0.46875 0.59375,-0.171875 1.39062,-0.171875 0.6875,0 1.21875,0.07813 0.53125,0.0625 0.9375,0.140625 v 1.421875 q -0.625,-0.1875 -1.17187,-0.265625 -0.54688,-0.09375 -1.09375,-0.09375 -0.53125,0 -0.85938,0.203125 -0.32812,0.1875 -0.32812,0.53125 0,0.15625 0.0625,0.296875 0.0781,0.125 0.26562,0.25 0.1875,0.109375 0.51563,0.25 0.34375,0.125 0.90625,0.28125 0.625,0.1875 1.04687,0.390625 0.4375,0.203125 0.70313,0.46875 0.26562,0.25 0.375,0.578125 0.10937,0.328125 0.10937,0.75 z m 8.40186,-2.046875 q 0,0.171875 -0.0156,0.46875 0,0.28125 -0.0312,0.53125 h -4.78125 q 0,0.46875 0.14063,0.84375 0.15625,0.359375 0.42187,0.609375 0.26563,0.25 0.64063,0.375 0.39062,0.125 0.84375,0.125 0.53125,0 1.125,-0.07813 0.60937,-0.07813 1.26562,-0.265625 v 1.390625 q -0.28125,0.07813 -0.60937,0.140625 -0.32813,0.0625 -0.67188,0.109375 -0.34375,0.04687 -0.70312,0.07813 -0.34375,0.03125 -0.67188,0.03125 -0.82812,0 -1.5,-0.234375 -0.65625,-0.25 -1.10937,-0.703125 -0.45313,-0.46875 -0.70313,-1.140625 -0.23437,-0.6875 -0.23437,-1.578125 0,-0.890625 0.23437,-1.609375 0.25,-0.734375 0.6875,-1.25 0.45313,-0.515625 1.07813,-0.796875 0.64062,-0.28125 1.42187,-0.28125 0.76563,0 1.35938,0.234375 0.59375,0.234375 0.98437,0.671875 0.40625,0.421875 0.60938,1.015625 0.21875,0.59375 0.21875,1.3125 z m -1.78125,-0.25 q 0.0156,-0.4375 -0.10938,-0.75 -0.10937,-0.328125 -0.3125,-0.53125 -0.1875,-0.203125 -0.45312,-0.296875 -0.25,-0.109375 -0.5625,-0.109375 -0.65625,0 -1.07813,0.4375 -0.42187,0.4375 -0.5,1.25 z m 5.85492,-4.3125 h -2.0625 v -1.35938 h 3.84375 v 8.75 h 2.10937 v 1.359375 H 379.1582 V 73.87968 h 2.3125 z m 12.04248,4.5625 q 0,0.171875 -0.0156,0.46875 0,0.28125 -0.0312,0.53125 h -4.78125 q 0,0.46875 0.14063,0.84375 0.15625,0.359375 0.42187,0.609375 0.26563,0.25 0.64063,0.375 0.39062,0.125 0.84375,0.125 0.53125,0 1.125,-0.07813 0.60937,-0.07813 1.26562,-0.265625 v 1.390625 q -0.28125,0.07813 -0.60937,0.140625 -0.32813,0.0625 -0.67188,0.109375 -0.34375,0.04687 -0.70312,0.07813 -0.34375,0.03125 -0.67188,0.03125 -0.82812,0 -1.5,-0.234375 -0.65625,-0.25 -1.10937,-0.703125 -0.45313,-0.46875 -0.70313,-1.140625 -0.23437,-0.6875 -0.23437,-1.578125 0,-0.890625 0.23437,-1.609375 0.25,-0.734375 0.6875,-1.25 0.45313,-0.515625 1.07813,-0.796875 0.64062,-0.28125 1.42187,-0.28125 0.76563,0 1.35938,0.234375 0.59375,0.234375 0.98437,0.671875 0.40625,0.421875 0.60938,1.015625 0.21875,0.59375 0.21875,1.3125 z m -1.78125,-0.25 q 0.0156,-0.4375 -0.10938,-0.75 -0.10937,-0.328125 -0.3125,-0.53125 -0.1875,-0.203125 -0.45312,-0.296875 -0.25,-0.109375 -0.5625,-0.109375 -0.65625,0 -1.07813,0.4375 -0.42187,0.4375 -0.5,1.25 z m 9.38617,4.15625 q -0.51563,0.203125 -1.0625,0.296875 -0.54688,0.109375 -1.15625,0.109375 -0.85938,0 -1.54688,-0.234375 -0.6875,-0.234375 -1.17187,-0.703125 -0.48438,-0.46875 -0.73438,-1.140625 -0.25,-0.6875 -0.25,-1.59375 0,-0.875 0.26563,-1.578125 0.28125,-0.71875 0.78125,-1.21875 0.5,-0.5 1.20312,-0.765625 0.71875,-0.28125 1.57813,-0.28125 0.70312,0 1.1875,0.07813 0.48437,0.07813 0.875,0.1875 v 1.703125 q -0.45313,-0.21875 -0.96875,-0.34375 -0.51563,-0.125 -0.98438,-0.125 -0.48437,0 -0.875,0.171875 -0.375,0.15625 -0.64062,0.453125 -0.26563,0.296875 -0.40625,0.71875 -0.14063,0.40625 -0.14063,0.90625 0,0.53125 0.14063,0.953125 0.15625,0.40625 0.42187,0.703125 0.28125,0.28125 0.67188,0.4375 0.39062,0.15625 0.85937,0.15625 0.23438,0 0.48438,-0.03125 0.25,-0.03125 0.5,-0.09375 0.26562,-0.0625 0.5,-0.140625 0.25,-0.07813 0.46875,-0.171875 z m 8.16748,0.203125 q -0.46875,0.109375 -0.95313,0.171875 -0.46875,0.07813 -0.90625,0.07813 -0.70312,0 -1.23437,-0.15625 -0.51563,-0.15625 -0.85938,-0.453125 -0.32812,-0.3125 -0.5,-0.78125 -0.15625,-0.484375 -0.15625,-1.140625 v -3.546875 h -1.95312 V 67.97343 h 1.95312 v -1.859375 l 1.79688,-0.46875 v 2.328125 h 2.8125 v 1.359375 h -2.8125 v 3.421875 q 0,0.609375 0.28125,0.9375 0.28125,0.3125 0.95312,0.3125 0.4375,0 0.84375,-0.0625 0.40625,-0.07813 0.73438,-0.171875 z m 13.05365,-9.0625 q -0.76563,-0.03125 -1.17188,0.171875 -0.39062,0.1875 -0.39062,0.625 0,0.25 0.0937,0.40625 0.10937,0.15625 0.23437,0.296875 0.125,0.140625 0.21875,0.3125 0.0937,0.171875 0.0937,0.453125 0,0.203125 -0.0781,0.40625 -0.0625,0.1875 -0.20313,0.34375 -0.14062,0.140625 -0.34375,0.234375 -0.20312,0.09375 -0.45312,0.09375 -0.3125,0 -0.5625,-0.140625 -0.25,-0.140625 -0.42188,-0.375 -0.17187,-0.234375 -0.26562,-0.53125 -0.0781,-0.3125 -0.0781,-0.65625 0,-0.59375 0.20313,-1.09375 0.20312,-0.515625 0.60937,-0.875 0.42188,-0.359375 1.04688,-0.5625 0.625,-0.21875 1.46875,-0.21875 z m 3.75,0 q -0.76563,-0.03125 -1.17188,0.171875 -0.39062,0.1875 -0.39062,0.625 0,0.25 0.0937,0.40625 0.10937,0.15625 0.23437,0.296875 0.125,0.140625 0.21875,0.3125 0.0937,0.171875 0.0937,0.453125 0,0.203125 -0.0781,0.40625 -0.0625,0.1875 -0.20313,0.34375 -0.14062,0.140625 -0.34375,0.234375 -0.20312,0.09375 -0.45312,0.09375 -0.3125,0 -0.5625,-0.140625 -0.25,-0.140625 -0.42188,-0.375 -0.17187,-0.234375 -0.26562,-0.53125 -0.0781,-0.3125 -0.0781,-0.65625 0,-0.59375 0.20313,-1.09375 0.20312,-0.515625 0.60937,-0.875 0.42188,-0.359375 1.04688,-0.5625 0.625,-0.21875 1.46875,-0.21875 z m 7.93304,5.453125 q 0,0.859375 -0.25,1.578125 -0.23437,0.703125 -0.70312,1.21875 -0.45313,0.5 -1.125,0.78125 -0.65625,0.28125 -1.51563,0.28125 -0.79687,0 -1.4375,-0.234375 -0.64062,-0.25 -1.09375,-0.71875 -0.4375,-0.46875 -0.67187,-1.171875 -0.23438,-0.703125 -0.23438,-1.640625 0,-0.859375 0.25,-1.5625 0.25,-0.71875 0.70313,-1.21875 0.46875,-0.5 1.125,-0.765625 0.67187,-0.28125 1.5,-0.28125 0.82812,0 1.45312,0.234375 0.64063,0.234375 1.07813,0.71875 0.45312,0.46875 0.6875,1.171875 0.23437,0.6875 0.23437,1.609375 z m -1.82812,0.03125 q 0,-1.125 -0.42188,-1.6875 -0.42187,-0.578125 -1.25,-0.578125 -0.46875,0 -0.79687,0.1875 -0.3125,0.171875 -0.51563,0.484375 -0.20312,0.3125 -0.3125,0.734375 -0.0937,0.40625 -0.0937,0.875 0,1.140625 0.45313,1.71875 0.46875,0.578125 1.26562,0.578125 0.4375,0 0.75,-0.171875 0.32813,-0.1875 0.53125,-0.484375 0.20313,-0.3125 0.29688,-0.734375 0.0937,-0.421875 0.0937,-0.921875 z m 9.32373,3.578125 q -0.46875,0.109375 -0.95313,0.171875 -0.46875,0.07813 -0.90625,0.07813 -0.70312,0 -1.23437,-0.15625 -0.51563,-0.15625 -0.85938,-0.453125 -0.32812,-0.3125 -0.5,-0.78125 -0.15625,-0.484375 -0.15625,-1.140625 v -3.546875 h -1.95312 V 67.97343 h 1.95312 v -1.859375 l 1.79688,-0.46875 v 2.328125 h 2.8125 v 1.359375 h -2.8125 v 3.421875 q 0,0.609375 0.28125,0.9375 0.28125,0.3125 0.95312,0.3125 0.4375,0 0.84375,-0.0625 0.40625,-0.07813 0.73438,-0.171875 z m 6.40179,0.07813 V 70.50468 q 0,-1.203125 -0.89062,-1.203125 -0.4375,0 -0.84375,0.359375 -0.40625,0.359375 -0.85938,0.984375 v 4.59375 h -1.73437 V 65.12968 h 1.73437 v 2.484375 l -0.0781,1.3125 q 0.21875,-0.25 0.4375,-0.453125 0.23437,-0.21875 0.5,-0.359375 0.26562,-0.15625 0.57812,-0.21875 0.3125,-0.07813 0.6875,-0.07813 0.54688,0 0.95313,0.1875 0.42187,0.171875 0.70312,0.515625 0.28125,0.328125 0.42188,0.796875 0.14062,0.46875 0.14062,1.046875 v 4.875 z m 10.05811,-4.1875 q 0,0.171875 -0.0156,0.46875 0,0.28125 -0.0312,0.53125 h -4.78125 q 0,0.46875 0.14063,0.84375 0.15625,0.359375 0.42187,0.609375 0.26563,0.25 0.64063,0.375 0.39062,0.125 0.84375,0.125 0.53125,0 1.125,-0.07813 0.60937,-0.07813 1.26562,-0.265625 v 1.390625 q -0.28125,0.07813 -0.60937,0.140625 -0.32813,0.0625 -0.67188,0.109375 -0.34375,0.04687 -0.70312,0.07813 -0.34375,0.03125 -0.67188,0.03125 -0.82812,0 -1.5,-0.234375 -0.65625,-0.25 -1.10937,-0.703125 -0.45313,-0.46875 -0.70313,-1.140625 -0.23437,-0.6875 -0.23437,-1.578125 0,-0.890625 0.23437,-1.609375 0.25,-0.734375 0.6875,-1.25 0.45313,-0.515625 1.07813,-0.796875 0.64062,-0.28125 1.42187,-0.28125 0.76563,0 1.35938,0.234375 0.59375,0.234375 0.98437,0.671875 0.40625,0.421875 0.60938,1.015625 0.21875,0.59375 0.21875,1.3125 z m -1.78125,-0.25 q 0.0156,-0.4375 -0.10938,-0.75 -0.10937,-0.328125 -0.3125,-0.53125 -0.1875,-0.203125 -0.45312,-0.296875 -0.25,-0.109375 -0.5625,-0.109375 -0.65625,0 -1.07813,0.4375 -0.42187,0.4375 -0.5,1.25 z m 8.18304,0 q 0.0156,-0.421875 -0.0469,-0.703125 -0.0469,-0.28125 -0.17188,-0.46875 -0.10937,-0.1875 -0.28125,-0.265625 -0.17187,-0.09375 -0.39062,-0.09375 -0.39063,0 -0.79688,0.328125 -0.40625,0.3125 -0.90625,1.046875 v 4.59375 h -1.79687 V 67.97343 h 1.59375 l 0.0625,1.046875 q 0.17187,-0.265625 0.39062,-0.484375 0.23438,-0.234375 0.5,-0.390625 0.28125,-0.15625 0.60938,-0.234375 0.34375,-0.09375 0.75,-0.09375 0.54687,0 0.96875,0.1875 0.4375,0.1875 0.71875,0.5625 0.29687,0.359375 0.4375,0.921875 0.14062,0.5625 0.10937,1.3125 z m 6.54248,-2.46875 q 0.75,0.01563 1.14063,-0.15625 0.40625,-0.1875 0.40625,-0.640625 0,-0.25 -0.10938,-0.40625 -0.0937,-0.15625 -0.21875,-0.296875 -0.10937,-0.140625 -0.21875,-0.296875 -0.0937,-0.171875 -0.0937,-0.46875 0,-0.203125 0.0625,-0.390625 0.0781,-0.203125 0.21875,-0.34375 0.14063,-0.15625 0.34375,-0.25 0.20313,-0.09375 0.45313,-0.09375 0.32812,0 0.5625,0.140625 0.25,0.140625 0.42187,0.375 0.17188,0.21875 0.25,0.53125 0.0937,0.3125 0.0937,0.65625 0,0.59375 -0.20312,1.09375 -0.20313,0.5 -0.625,0.875 -0.40625,0.359375 -1.03125,0.578125 -0.625,0.203125 -1.45313,0.203125 z m -3.76562,0 q 0.76562,0.01563 1.15625,-0.15625 0.40625,-0.1875 0.40625,-0.640625 0,-0.25 -0.10938,-0.40625 -0.0937,-0.15625 -0.21875,-0.296875 -0.125,-0.140625 -0.23437,-0.296875 -0.0937,-0.171875 -0.0937,-0.46875 0,-0.203125 0.0781,-0.390625 0.0781,-0.203125 0.21875,-0.34375 0.14063,-0.15625 0.34375,-0.25 0.20313,-0.09375 0.45313,-0.09375 0.32812,0 0.5625,0.140625 0.25,0.140625 0.42187,0.375 0.17188,0.21875 0.25,0.53125 0.0937,0.3125 0.0937,0.65625 0,0.59375 -0.20312,1.09375 -0.20313,0.5 -0.625,0.875 -0.40625,0.359375 -1.03125,0.578125 -0.625,0.203125 -1.46875,0.203125 z m 11.65179,4.265625 q 0.29688,0 0.54688,0.109375 0.26562,0.109375 0.45312,0.296875 0.20313,0.1875 0.29688,0.453125 0.10937,0.25 0.10937,0.546875 0,0.296875 -0.10937,0.546875 -0.0937,0.25 -0.29688,0.4375 -0.1875,0.1875 -0.45312,0.296875 -0.25,0.125 -0.54688,0.125 -0.28125,0 -0.53125,-0.125 -0.25,-0.109375 -0.4375,-0.296875 -0.1875,-0.1875 -0.29687,-0.4375 -0.10938,-0.25 -0.10938,-0.546875 0,-0.296875 0.10938,-0.546875 0.10937,-0.265625 0.29687,-0.453125 0.1875,-0.1875 0.4375,-0.296875 0.25,-0.109375 0.53125,-0.109375 z"
         fill-rule="nonzero"
         id="path98" />
      <path
         fill="#808080"
         d="m 209.77377,146.17711 c 7.29863,-7.78534 28.90697,-15.69186 44.76445,-12.65123 15.8575,3.04065 42.57875,11.94592 50.38048,30.8951 7.80169,18.94917 2.85397,63.64622 -3.57022,82.79997 -6.4242,19.15377 -14.75043,27.83966 -34.97501,32.12259 -20.22459,4.28292 -68.58615,2.61666 -86.37253,-6.42499 -17.78639,-9.04166 -18.9823,-34.48674 -20.34578,-47.82497 -1.36348,-13.33824 3.6497,-24.72847 12.16492,-32.20442 8.5152,-7.47594 32.60071,-4.86588 38.92631,-12.65123 6.32563,-7.78534 -8.27127,-26.27548 -0.97262,-34.06082 z"
         fill-rule="evenodd"
         id="path100" />
      <path
         stroke="#000000"
         stroke-width="1"
         stroke-linejoin="round"
         stroke-linecap="butt"
         d="m 209.77377,146.17711 c 7.29863,-7.78534 28.90697,-15.69186 44.76445,-12.65123 15.8575,3.04065 42.57875,11.94592 50.38048,30.8951 7.80169,18.94917 2.85397,63.64622 -3.57022,82.79997 -6.4242,19.15377 -14.75043,27.83966 -34.97501,32.12259 -20.22459,4.28292 -68.58615,2.61666 -86.37253,-6.42499 -17.78639,-9.04166 -18.9823,-34.48674 -20.34578,-47.82497 -1.36348,-13.33824 3.6497,-24.72847 12.16492,-32.20442 8.5152,-7.47594 32.60071,-4.86588 38.92631,-12.65123 6.32563,-7.78534 -8.27127,-26.27548 -0.97262,-34.06082 z"
         fill-rule="evenodd"
         id="path102" />
      <path
         fill="#000000"
         fill-opacity="0"
         d="m 422.13733,253.81305 h 111.46454 v 38.77167 H 422.13733 Z"
         fill-rule="evenodd"
         id="path104" />
      <path
         fill="#000000"
         d="m 439.21545,274.1887 q 0,0.90625 -0.26563,1.67187 -0.25,0.76563 -0.73437,1.3125 -0.48438,0.53125 -1.1875,0.84375 -0.6875,0.29688 -1.5625,0.29688 -0.84375,0 -1.51563,-0.26563 -0.67187,-0.26562 -1.14062,-0.76562 -0.45313,-0.51563 -0.70313,-1.26563 -0.25,-0.75 -0.25,-1.71875 0,-0.92187 0.25,-1.67187 0.26563,-0.75 0.75,-1.29688 0.48438,-0.54687 1.17188,-0.84375 0.70312,-0.29687 1.59375,-0.29687 0.84375,0 1.5,0.26562 0.67187,0.25 1.14062,0.76563 0.46875,0.5 0.70313,1.25 0.25,0.75 0.25,1.71875 z m -1.39063,0.0625 q 0,-0.73438 -0.15625,-1.26563 -0.15625,-0.54687 -0.45312,-0.90625 -0.29688,-0.375 -0.73438,-0.54687 -0.42187,-0.1875 -0.9375,-0.1875 -0.60937,0 -1.04687,0.23437 -0.4375,0.23438 -0.71875,0.64063 -0.26563,0.39062 -0.40625,0.92187 -0.125,0.53125 -0.125,1.10938 0,0.71875 0.15625,1.26562 0.17187,0.54688 0.46875,0.92188 0.29687,0.35937 0.71875,0.54687 0.42187,0.17188 0.95312,0.17188 0.60938,0 1.03125,-0.23438 0.4375,-0.23437 0.71875,-0.625 0.28125,-0.40625 0.40625,-0.9375 0.125,-0.53125 0.125,-1.10937 z m 9.6875,3.8125 q -0.46875,0.125 -0.96875,0.17187 -0.48437,0.0469 -0.98437,0.0469 -1.48438,0 -2.21875,-0.67188 -0.71875,-0.67187 -0.71875,-2.04687 v -4.09375 h -2.1875 v -1.14063 h 2.1875 v -2.15625 l 1.35937,-0.35937 v 2.51562 h 3.53125 v 1.14063 h -3.53125 v 3.98437 q 0,0.84375 0.45313,1.26563 0.45312,0.40625 1.32812,0.40625 0.375,0 0.8125,-0.0469 0.45313,-0.0625 0.9375,-0.1875 z m 8.78125,0.10937 h -1.35937 v -5.01562 q 0,-0.90625 -0.34375,-1.34375 -0.34375,-0.45313 -0.96875,-0.45313 -0.28125,0 -0.51563,0.0781 -0.23437,0.0625 -0.5,0.25 -0.25,0.1875 -0.5625,0.5 -0.29687,0.3125 -0.70312,0.78125 v 5.20312 h -1.35938 V 267.1262 h 1.35938 v 3.20312 l -0.0469,1.23438 q 0.32813,-0.39063 0.625,-0.64063 0.3125,-0.26562 0.625,-0.42187 0.3125,-0.17188 0.625,-0.23438 0.32813,-0.0781 0.67188,-0.0781 1.17187,0 1.8125,0.71875 0.64062,0.70312 0.64062,2.14062 z m 9.10938,-4.34375 q 0,0.29688 -0.0156,0.5 0,0.1875 -0.0156,0.35938 h -5.5 q 0,1.20312 0.67187,1.84375 0.67188,0.64062 1.9375,0.64062 0.34375,0 0.6875,-0.0156 0.34375,-0.0312 0.65625,-0.0781 0.32813,-0.0469 0.60938,-0.10937 0.29687,-0.0625 0.54687,-0.125 v 1.10937 q -0.54687,0.15625 -1.25,0.25 -0.70312,0.10938 -1.45312,0.10938 -1,0 -1.73438,-0.26563 -0.71875,-0.28125 -1.1875,-0.79687 -0.46875,-0.53125 -0.6875,-1.28125 -0.21875,-0.75 -0.21875,-1.70313 0,-0.82812 0.23438,-1.5625 0.23437,-0.75 0.6875,-1.29687 0.46875,-0.5625 1.125,-0.89063 0.67187,-0.32812 1.51562,-0.32812 0.8125,0 1.4375,0.26562 0.64063,0.25 1.07813,0.71875 0.4375,0.46875 0.65625,1.15625 0.21875,0.67188 0.21875,1.5 z m -1.40625,-0.1875 q 0.0156,-0.53125 -0.10938,-0.95312 -0.125,-0.4375 -0.39062,-0.75 -0.25,-0.3125 -0.64063,-0.48438 -0.39062,-0.1875 -0.90625,-0.1875 -0.45312,0 -0.82812,0.17188 -0.35938,0.17187 -0.625,0.48437 -0.26563,0.3125 -0.4375,0.75 -0.15625,0.4375 -0.1875,0.96875 z m 3.90625,-3.3125 h 1.23437 l 0.0469,1.4375 q 0.6875,-0.82812 1.35937,-1.20312 0.6875,-0.375 1.375,-0.375 1.21875,0 1.84375,0.79687 0.625,0.78125 0.57813,2.32813 h -1.375 q 0.0312,-1.03125 -0.29688,-1.48438 -0.32812,-0.46875 -0.95312,-0.46875 -0.26563,0 -0.54688,0.0937 -0.28125,0.0937 -0.57812,0.3125 -0.28125,0.21875 -0.60938,0.5625 -0.32812,0.32813 -0.70312,0.79688 v 5.04687 h -1.375 z"
         fill-rule="nonzero"
         id="path106" />
      <path
         fill="#000000"
         fill-opacity="0"
         d="m 389.51636,145.47737 h 18.23624 v 18.23622 h -18.23624 z"
         fill-rule="evenodd"
         id="path108" />
      <path
         stroke="#000000"
         stroke-width="2"
         stroke-linejoin="round"
         stroke-linecap="butt"
         d="m 389.51636,145.47737 h 18.23624 v 18.23622 h -18.23624 z"
         fill-rule="evenodd"
         id="path110" />
      <path
         fill="#000000"
         fill-opacity="0"
         d="m 389.51636,184.71269 h 18.23624 v 18.23622 h -18.23624 z"
         fill-rule="evenodd"
         id="path112" />
      <path
         stroke="#000000"
         stroke-width="2"
         stroke-linejoin="round"
         stroke-linecap="butt"
         d="m 389.51636,184.71269 h 18.23624 v 18.23622 h -18.23624 z"
         fill-rule="evenodd"
         id="path114" />
      <path
         fill="#000000"
         fill-opacity="0"
         d="m 389.44653,224.97066 h 18.23624 v 18.23622 h -18.23624 z"
         fill-rule="evenodd"
         id="path116" />
      <path
         stroke="#000000"
         stroke-width="2"
         stroke-linejoin="round"
         stroke-linecap="butt"
         d="m 389.44653,224.97066 h 18.23624 v 18.23622 h -18.23624 z"
         fill-rule="evenodd"
         id="path118" />
      <path
         fill="#000000"
         fill-opacity="0"
         d="m 389.44653,263.52542 h 18.23624 v 18.23621 h -18.23624 z"
         fill-rule="evenodd"
         id="path120" />
      <path
         stroke="#000000"
         stroke-width="2"
         stroke-linejoin="round"
         stroke-linecap="butt"
         d="m 389.44653,263.52542 h 18.23624 v 18.23621 h -18.23624 z"
         fill-rule="evenodd"
         id="path122" />
    </g>
  </g>
</svg>
