<?xml version="1.0" encoding="UTF-8" standalone="no"?>
<svg
   xmlns:dc="http://purl.org/dc/elements/1.1/"
   xmlns:cc="http://creativecommons.org/ns#"
   xmlns:rdf="http://www.w3.org/1999/02/22-rdf-syntax-ns#"
   xmlns:svg="http://www.w3.org/2000/svg"
   xmlns="http://www.w3.org/2000/svg"
   xmlns:sodipodi="http://sodipodi.sourceforge.net/DTD/sodipodi-0.dtd"
   xmlns:inkscape="http://www.inkscape.org/namespaces/inkscape"
   inkscape:version="1.0 (4035a4f, 2020-05-01)"
   height="559.521"
   width="331.62027"
   sodipodi:docname="labels_2.svg"
   id="svg140"
   stroke-miterlimit="10"
   stroke-linecap="square"
   stroke="none"
   fill="none"
   viewBox="0 0 331.62027 559.521"
   version="1.1">
  <metadata
     id="metadata146">
    <rdf:RDF>
      <cc:Work
         rdf:about="">
        <dc:format>image/svg+xml</dc:format>
        <dc:type
           rdf:resource="http://purl.org/dc/dcmitype/StillImage" />
      </cc:Work>
    </rdf:RDF>
  </metadata>
  <defs
     id="defs144" />
  <sodipodi:namedview
     inkscape:current-layer="g138"
     inkscape:window-maximized="0"
     inkscape:window-y="25"
     inkscape:window-x="0"
     inkscape:cy="255.39549"
     inkscape:cx="20.82817"
     inkscape:zoom="1.0208333"
     showgrid="false"
     id="namedview142"
     inkscape:window-height="758"
     inkscape:window-width="898"
     inkscape:pageshadow="2"
     inkscape:pageopacity="0"
     guidetolerance="10"
     gridtolerance="10"
     objecttolerance="10"
     borderopacity="1"
     bordercolor="#666666"
     pagecolor="#ffffff" />
  <clipPath
     id="p.0">
    <path
       id="path79"
       clip-rule="nonzero"
       d="M 0,0 H 960 V 720 H 0 Z" />
  </clipPath>
  <g
     transform="translate(-232.39632,-84.79003)"
     id="g138"
     clip-path="url(#p.0)">
    <path
       id="path82"
       fill-rule="evenodd"
       d="M 0,0 H 960 V 720 H 0 Z"
       fill-opacity="0"
       fill="#000000" />
    <path
       id="path92"
       fill-rule="evenodd"
       d="m 229.0315,75.79003 h 131.08661 v 42.01575 H 229.0315 Z"
       fill-opacity="0"
       fill="#000000" />
    <g
       inkscape:export-ydpi="96"
       inkscape:export-xdpi="96"
       id="g370">
      <path
         fill="#000000"
         fill-opacity="0"
         d="M 240.5613,108.34659 H 431.7037 V 483.43521 H 240.5613 Z"
         fill-rule="evenodd"
         id="path84"
         style="stroke-width:0.998013" />
      <path
         stroke="#000000"
         stroke-width="2.99403"
         stroke-linejoin="round"
         stroke-linecap="butt"
         d="M 240.5613,108.34659 H 431.7037 V 483.43521 H 240.5613 Z"
         fill-rule="evenodd"
         id="path86" />
      <path
         fill="#000000"
         fill-opacity="0"
         d="m 242.60153,106.29821 h 191.1424 v 375.08863 h -191.1424 z"
         fill-rule="evenodd"
         id="path88"
         style="stroke-width:0.998013" />
      <path
         stroke="#ffffff"
         stroke-width="2.99403"
         stroke-linejoin="round"
         stroke-linecap="butt"
         d="m 242.60153,106.29821 h 191.1424 v 375.08863 h -191.1424 z"
         fill-rule="evenodd"
         id="path90" />
      <path
         fill="#ffffff"
         d="m 239.32478,84.79003 h 61.29904 v 22.40012 h -61.29904 z"
         fill-rule="nonzero"
         id="path94"
         style="stroke-width:0.998013" />
      <path
         fill="#000000"
         fill-opacity="0"
         d="m 239.32478,88.854507 h 61.29904 V 110.6992 h -61.29904 z"
         fill-rule="nonzero"
         id="path96"
         style="stroke-width:0.998013" />
      <path
         fill="#000000"
         d="m 248.56911,97.975726 q 0,1.218757 -0.34238,2.140634 -0.34239,0.90626 -0.94933,1.51564 -0.5914,0.59375 -1.41622,0.89063 -0.80927,0.29687 -1.75862,0.29687 -0.43576,0 -0.87151,-0.0469 -0.43576,-0.0469 -0.87152,-0.15625 v 3.82814 h -1.58742 V 93.569452 h 1.41623 l 0.0934,1.531259 q 0.68477,-0.937505 1.44735,-1.312508 0.77814,-0.390627 1.68079,-0.390627 0.77815,0 1.36953,0.328127 0.59139,0.328127 0.98046,0.937505 0.40464,0.593753 0.60695,1.437508 0.20232,0.82813 0.20232,1.87501 z m -1.61853,0.0625 q 0,-0.718753 -0.10897,-1.312507 -0.10896,-0.609378 -0.34238,-1.031255 -0.21788,-0.421878 -0.57583,-0.656253 -0.34238,-0.250002 -0.84039,-0.250002 -0.2957,0 -0.60696,0.09375 -0.31125,0.09375 -0.63807,0.328127 -0.32682,0.218752 -0.70033,0.593753 -0.35795,0.359377 -0.77815,0.906255 v 4.437526 q 0.43576,0.17187 0.91822,0.28125 0.48244,0.10938 0.93376,0.10938 1.27616,0 2.00761,-0.87501 0.73146,-0.875004 0.73146,-2.625014 z m 9.88968,4.671904 -0.0311,-1.23439 q -0.74702,0.75001 -1.5096,1.07814 -0.76258,0.3125 -1.61853,0.3125 -0.77814,0 -1.33841,-0.1875 -0.5447,-0.20313 -0.90264,-0.54688 -0.35795,-0.35938 -0.52914,-0.82813 -0.15563,-0.48438 -0.15563,-1.03126 0,-1.375004 1.01158,-2.156258 1.02716,-0.781254 3.0192,-0.781254 h 1.88311 v -0.79688 q 0,-0.812504 -0.51358,-1.296882 -0.51357,-0.500002 -1.57185,-0.500002 -0.77814,0 -1.52516,0.187501 -0.74702,0.171876 -1.54072,0.484377 v -1.437507 q 0.29569,-0.109376 0.65364,-0.203127 0.37351,-0.109375 0.77814,-0.1875 0.40464,-0.07813 0.85596,-0.125001 0.45132,-0.0625 0.90264,-0.0625 0.82484,0 1.47848,0.187502 0.6692,0.171875 1.12052,0.546878 0.46689,0.375002 0.70034,0.95313 0.24899,0.562502 0.24899,1.328132 v 6.296911 z m -0.17119,-4.156276 h -2.00761 q -0.57583,0 -1.01159,0.125001 -0.42019,0.109376 -0.70033,0.328127 -0.26456,0.218751 -0.40463,0.531253 -0.1245,0.296876 -0.1245,0.671875 0,0.26563 0.0778,0.51563 0.0779,0.23438 0.26457,0.42188 0.18675,0.1875 0.46689,0.29687 0.29569,0.10938 0.71589,0.10938 0.5447,0 1.24503,-0.32813 0.70033,-0.34375 1.47847,-1.0625 z m 4.90957,-4.984402 h 1.44734 l 0.0467,1.687509 q 0.80926,-0.98438 1.5874,-1.421882 0.79371,-0.437503 1.58742,-0.437503 1.41621,0 2.14768,0.92188 0.73145,0.92188 0.6692,2.73439 h -1.58742 q 0.0156,-1.203131 -0.35795,-1.734384 -0.37351,-0.546878 -1.10496,-0.546878 -0.31125,0 -0.63807,0.109375 -0.32682,0.109376 -0.66921,0.359377 -0.32682,0.250002 -0.71589,0.640629 -0.3735,0.390627 -0.80926,0.95313 v 5.875035 h -1.60298 z m 17.54661,4.078147 q 0,0.343752 -0.0156,0.578129 0,0.21875 -0.0311,0.421877 h -6.39635 q 0,1.406255 0.77814,2.156265 0.79371,0.75 2.25662,0.75 0.40463,0 0.79371,-0.0312 0.40463,-0.0312 0.77815,-0.0781 0.37351,-0.0625 0.71589,-0.125 0.34238,-0.0781 0.62251,-0.15625 v 1.29689 q -0.63807,0.1875 -1.46291,0.29687 -0.80927,0.10938 -1.68079,0.10938 -1.16721,0 -2.00761,-0.3125 -0.84039,-0.31251 -1.38509,-0.92188 -0.5447,-0.60938 -0.80927,-1.48439 -0.24901,-0.875002 -0.24901,-2.000008 0,-0.95313 0.28014,-1.81251 0.28012,-0.859379 0.80927,-1.515633 0.52913,-0.656253 1.29171,-1.031256 0.77815,-0.390627 1.75861,-0.390627 0.94932,0 1.68079,0.312502 0.74701,0.296877 1.24503,0.843755 0.498,0.546878 0.76258,1.343757 0.26456,0.781254 0.26456,1.750009 z m -1.64966,-0.218751 q 0.0311,-0.609378 -0.12451,-1.109381 -0.14005,-0.515628 -0.45132,-0.875004 -0.29569,-0.375002 -0.74702,-0.578129 -0.45132,-0.203126 -1.05827,-0.203126 -0.51358,0 -0.94934,0.203126 -0.42019,0.203127 -0.73145,0.562504 -0.29569,0.359376 -0.49801,0.875004 -0.18675,0.515628 -0.23345,1.125006 z m 4.16255,-3.859396 h 1.41623 l 0.0623,1.468759 q 0.38907,-0.468753 0.76258,-0.781255 0.37351,-0.312502 0.73146,-0.500003 0.35794,-0.203126 0.73145,-0.281251 0.37351,-0.07813 0.77814,-0.07813 1.40066,0 2.11655,0.843755 0.73145,0.82813 0.73145,2.500013 v 5.96879 h -1.58744 v -5.843789 q 0,-1.078131 -0.40464,-1.578134 -0.38906,-0.515627 -1.18277,-0.515627 -0.28014,0 -0.56027,0.09375 -0.28013,0.07813 -0.57582,0.296877 -0.29569,0.203126 -0.65364,0.578128 -0.34239,0.359377 -0.77815,0.906255 v 6.06254 h -1.58741 z m 17.56219,9.015678 q -0.52915,0.14062 -1.10497,0.1875 -0.57583,0.0625 -1.16722,0.0625 -1.71192,0 -2.55231,-0.78126 -0.84039,-0.78125 -0.84039,-2.390635 v -4.76565 h -2.55231 v -1.328133 h 2.55231 v -2.515638 l 1.57184,-0.406253 v 2.921891 h 4.09305 v 1.328133 h -4.09305 v 4.64065 q 0,0.984375 0.51358,1.468755 0.52914,0.48438 1.54073,0.48438 0.43576,0 0.94933,-0.0625 0.52914,-0.0625 1.08941,-0.21875 z"
         fill-rule="nonzero"
         id="path98"
         style="stroke-width:0.998013" />
      <path
         fill="#010000"
         fill-opacity="0"
         d="m 300.62382,88.854507 v 0 21.844693 0 z"
         fill-rule="nonzero"
         id="path100"
         style="stroke-width:0.998013" />
      <path
         fill="#000000"
         fill-opacity="0"
         d="M 240.5613,473.17531 H 404.16014 V 642.81403 H 240.5613 Z"
         fill-rule="evenodd"
         id="path102"
         style="stroke-width:0.998013" />
      <path
         stroke="#000000"
         stroke-width="2.99403"
         stroke-linejoin="round"
         stroke-linecap="butt"
         d="M 240.5613,473.17531 H 404.16014 V 642.81403 H 240.5613 Z"
         fill-rule="evenodd"
         id="path104" />
      <path
         fill="#000000"
         fill-opacity="0"
         d="M 325.22962,294.07779 H 560.47939 V 499.8112 H 325.22962 Z"
         fill-rule="evenodd"
         id="path106"
         style="stroke-width:0.998013" />
      <path
         stroke="#000000"
         stroke-width="2.99403"
         stroke-linejoin="round"
         stroke-linecap="butt"
         d="M 325.22962,294.07779 H 560.47939 V 499.8112 H 325.22962 Z"
         fill-rule="evenodd"
         id="path108" />
      <path
         fill="#000000"
         fill-opacity="0"
         d="m 315.28176,261.21935 h 130.56535 v 42.01598 H 315.28176 Z"
         fill-rule="evenodd"
         id="path110"
         style="stroke-width:0.998013" />
      <path
         fill="#ffffff"
         d="m 324.24597,270.2194 h 71.51554 v 22.40012 h -71.51554 z"
         fill-rule="nonzero"
         id="path112"
         style="stroke-width:0.998013" />
      <path
         fill="#000000"
         fill-opacity="0"
         d="m 324.24597,274.28389 h 71.51554 v 21.8447 h -71.51554 z"
         fill-rule="nonzero"
         id="path114"
         style="stroke-width:0.998013" />
      <path
         fill="#000000"
         d="m 328.80589,276.57693 h -2.69238 v -1.3125 h 4.27978 v 11.54694 h 2.72351 v 1.32813 h -7.31455 v -1.32813 h 3.00364 z m 12.95556,11.56257 -0.0311,-1.23439 q -0.74703,0.75001 -1.50961,1.07814 -0.76258,0.3125 -1.61853,0.3125 -0.77814,0 -1.33841,-0.1875 -0.5447,-0.20313 -0.90265,-0.54688 -0.35794,-0.35938 -0.52913,-0.82813 -0.15563,-0.48438 -0.15563,-1.03126 0,-1.375 1.01158,-2.15626 1.02716,-0.78125 3.0192,-0.78125 h 1.88311 v -0.79688 q 0,-0.8125 -0.51357,-1.29688 -0.51358,-0.50001 -1.57185,-0.50001 -0.77815,0 -1.52517,0.1875 -0.74702,0.17188 -1.54073,0.48438 v -1.43751 q 0.29571,-0.10937 0.65364,-0.20312 0.37352,-0.10938 0.77815,-0.1875 0.40464,-0.0781 0.85596,-0.125 0.45133,-0.0625 0.90265,-0.0625 0.82483,0 1.47847,0.1875 0.6692,0.17188 1.12052,0.54688 0.46689,0.375 0.70034,0.95313 0.249,0.5625 0.249,1.32813 v 6.29691 z m -0.17119,-4.15627 h -2.00761 q -0.57583,0 -1.01159,0.125 -0.42019,0.10937 -0.70033,0.32812 -0.26456,0.21875 -0.40463,0.53125 -0.1245,0.29688 -0.1245,0.67188 0,0.26563 0.0779,0.51563 0.0778,0.23438 0.26456,0.42188 0.18675,0.1875 0.46689,0.29687 0.29569,0.10938 0.71588,0.10938 0.54472,0 1.24504,-0.32813 0.70033,-0.34375 1.47847,-1.0625 z m 11.86618,4.15627 h -1.41623 l -0.0623,-1.46876 q -0.40464,0.46875 -0.77815,0.78125 -0.35795,0.3125 -0.73145,0.51563 -0.35795,0.1875 -0.73146,0.25 -0.35795,0.0781 -0.76258,0.0781 -1.41622,0 -2.13211,-0.82813 -0.71589,-0.82813 -0.71589,-2.50002 v -5.96878 h 1.5874 v 5.84379 q 0,2.10938 1.57186,2.10938 0.29569,0 0.56026,-0.0781 0.28014,-0.0937 0.57583,-0.3125 0.31125,-0.21875 0.65364,-0.57813 0.35795,-0.35937 0.79371,-0.92188 v -6.06253 h 1.58741 z m 2.88639,-9.14068 h 1.41622 l 0.0623,1.46876 q 0.38906,-0.46875 0.76258,-0.78125 0.37351,-0.3125 0.73145,-0.5 0.35794,-0.20313 0.73146,-0.28126 0.3735,-0.0781 0.77814,-0.0781 1.40065,0 2.11655,0.84375 0.73145,0.82813 0.73145,2.50002 v 5.96878 h -1.58741 v -5.84379 q 0,-1.07813 -0.40463,-1.57813 -0.38908,-0.51563 -1.18278,-0.51563 -0.28014,0 -0.56026,0.0937 -0.28014,0.0781 -0.57583,0.29688 -0.29569,0.20313 -0.65364,0.57813 -0.34238,0.35937 -0.77814,0.90625 v 6.06254 h -1.58742 z m 9.76519,4.76565 q 0,-1.17188 0.31125,-2.07813 0.31126,-0.90626 0.90265,-1.53126 0.59138,-0.625 1.40065,-0.93751 0.82484,-0.32812 1.83643,-0.32812 0.43576,0 0.85595,0.0625 0.4202,0.0469 0.82483,0.15625 v -3.84377 h 1.58741 v 12.87507 h -1.41622 l -0.0467,-1.73439 q -0.6692,0.96876 -1.44734,1.43751 -0.76258,0.45313 -1.66523,0.45313 -0.77814,0 -1.36953,-0.3125 -0.59139,-0.32813 -0.99602,-0.92188 -0.38908,-0.60938 -0.59139,-1.43751 -0.18675,-0.84376 -0.18675,-1.85939 z m 1.60296,-0.10937 q 0,1.65626 0.48246,2.48438 0.498,0.81251 1.38509,0.81251 0.59139,0 1.26059,-0.53125 0.66921,-0.54688 1.40066,-1.60939 v -4.23439 q -0.38907,-0.1875 -0.85596,-0.28126 -0.46689,-0.0937 -0.93376,-0.0937 -1.29173,0 -2.02318,0.84376 -0.7159,0.82813 -0.7159,2.60939 z m 9.43837,-4.65628 h 1.44735 l 0.0467,1.68751 q 0.80928,-0.98438 1.58742,-1.42188 0.79371,-0.4375 1.58741,-0.4375 1.41622,0 2.14767,0.92187 0.73146,0.92189 0.66921,2.7344 h -1.58741 q 0.0156,-1.20313 -0.35795,-1.73439 -0.37351,-0.54688 -1.10496,-0.54688 -0.31125,0 -0.63809,0.10938 -0.32682,0.10938 -0.6692,0.35938 -0.32682,0.25 -0.71588,0.64063 -0.37352,0.39062 -0.80928,0.95312 v 5.87504 h -1.60297 z m 17.95126,0 -3.09702,8.17192 q -0.48244,1.25001 -0.99603,2.15626 -0.51357,0.90626 -1.12052,1.48439 -0.60695,0.57813 -1.33841,0.84375 -0.73145,0.28125 -1.61853,0.28125 -0.24901,0 -0.43576,-0.0156 -0.18675,-0.0156 -0.4202,-0.0312 v -1.43751 q 0.20232,0.0312 0.43576,0.0469 0.24901,0.0312 0.49801,0.0312 0.43576,0 0.80927,-0.14063 0.38908,-0.125 0.7159,-0.40625 0.34238,-0.28126 0.65363,-0.75001 0.31126,-0.45313 0.59139,-1.09375 l -3.64171,-9.14068 h 1.80529 l 2.3033,6.04691 0.46689,1.42189 0.52914,-1.46876 2.13211,-6.00004 z"
         fill-rule="nonzero"
         id="path116"
         style="stroke-width:0.998013" />
      <path
         fill="#000000"
         fill-opacity="0"
         d="m 395.76151,274.28389 v 0 21.8447 0 z"
         fill-rule="nonzero"
         id="path118"
         style="stroke-width:0.998013" />
      <path
         fill="#000000"
         fill-opacity="0"
         d="M 242.60153,471.12696 H 406.20036 V 640.76564 H 242.60153 Z"
         fill-rule="evenodd"
         id="path120"
         style="stroke-width:0.998013" />
      <path
         stroke="#ffffff"
         stroke-width="2.99403"
         stroke-linejoin="round"
         stroke-linecap="butt"
         d="M 242.60153,471.12696 H 406.20036 V 640.76564 H 242.60153 Z"
         fill-rule="evenodd"
         id="path122" />
      <path
         fill="#000000"
         fill-opacity="0"
         d="M 327.26981,292.02944 H 562.51959 V 497.76282 H 327.26981 Z"
         fill-rule="evenodd"
         id="path124"
         style="stroke-width:0.998013" />
      <path
         stroke="#ffffff"
         stroke-width="2.99403"
         stroke-linejoin="round"
         stroke-linecap="butt"
         d="M 327.26981,292.02944 H 562.51959 V 497.76282 H 327.26981 Z"
         fill-rule="evenodd"
         id="path126" />
      <path
         fill="#000000"
         fill-opacity="0"
         d="m 232.39632,452.15701 h 130.56535 v 42.01597 H 232.39632 Z"
         fill-rule="evenodd"
         id="path128"
         style="stroke-width:0.998013" />
      <path
         fill="#ffffff"
         d="m 241.36053,461.15706 h 71.51555 v 22.40011 h -71.51555 z"
         fill-rule="nonzero"
         id="path130"
         style="stroke-width:0.998013" />
      <path
         fill="#000000"
         fill-opacity="0"
         d="m 241.36053,465.22153 h 71.51555 v 21.84469 h -71.51555 z"
         fill-rule="nonzero"
         id="path132"
         style="stroke-width:0.998013" />
      <path
         fill="#000000"
         d="m 245.92045,467.5146 h -2.69238 v -1.3125 h 4.27979 v 11.54694 h 2.7235 v 1.32813 h -7.31455 v -1.32813 h 3.00364 z m 12.95557,11.56257 -0.0311,-1.23439 q -0.74701,0.75001 -1.50959,1.07814 -0.76259,0.3125 -1.61855,0.3125 -0.77814,0 -1.3384,-0.18751 -0.5447,-0.20312 -0.90265,-0.54687 -0.35795,-0.35938 -0.52914,-0.82813 -0.15563,-0.48438 -0.15563,-1.03126 0,-1.375 1.01159,-2.15626 1.02715,-0.78125 3.0192,-0.78125 h 1.8831 v -0.79688 q 0,-0.8125 -0.51357,-1.29689 -0.51358,-0.5 -1.57185,-0.5 -0.77814,0 -1.52516,0.1875 -0.74702,0.17188 -1.54072,0.48438 v -1.4375 q 0.29569,-0.10938 0.65364,-0.20313 0.3735,-0.10938 0.77814,-0.1875 0.40463,-0.0781 0.85596,-0.12501 0.45132,-0.0625 0.90264,-0.0625 0.82483,0 1.47848,0.1875 0.6692,0.17187 1.12052,0.54688 0.46688,0.375 0.70033,0.95312 0.24901,0.56251 0.24901,1.32814 v 6.29691 z m -0.1712,-4.15627 h -2.00761 q -0.57583,0 -1.01158,0.125 -0.4202,0.10937 -0.70033,0.32812 -0.26457,0.21875 -0.40464,0.53125 -0.1245,0.29688 -0.1245,0.67188 0,0.26563 0.0779,0.51563 0.0778,0.23438 0.26456,0.42188 0.18676,0.1875 0.46689,0.29687 0.2957,0.10938 0.7159,0.10938 0.5447,0 1.24503,-0.32812 0.70032,-0.34376 1.47846,-1.06251 z m 11.86618,4.15627 h -1.41622 l -0.0623,-1.46876 q -0.40463,0.46875 -0.77814,0.78125 -0.35795,0.3125 -0.73145,0.51563 -0.35795,0.1875 -0.73147,0.25 -0.35793,0.0781 -0.76258,0.0781 -1.41621,0 -2.13211,-0.82813 -0.71589,-0.82813 -0.71589,-2.50002 v -5.96878 h 1.58742 v 5.84379 q 0,2.10938 1.57184,2.10938 0.2957,0 0.56026,-0.0781 0.28014,-0.0937 0.57583,-0.3125 0.31126,-0.21875 0.65364,-0.57813 0.35795,-0.35937 0.79371,-0.92187 v -6.06254 h 1.58741 z m 2.88639,-9.14068 h 1.41623 l 0.0623,1.46876 q 0.38907,-0.46875 0.76258,-0.78125 0.37351,-0.3125 0.73146,-0.50001 0.35794,-0.20312 0.73145,-0.28125 0.37351,-0.0781 0.77815,-0.0781 1.40065,0 2.11655,0.84375 0.73145,0.82813 0.73145,2.50002 v 5.96878 h -1.58741 v -5.84379 q 0,-1.07813 -0.40464,-1.57813 -0.38907,-0.51563 -1.18277,-0.51563 -0.28014,0 -0.56027,0.0937 -0.28014,0.0781 -0.57583,0.29688 -0.29569,0.20313 -0.65364,0.57813 -0.34238,0.35938 -0.77814,0.90625 v 6.06254 h -1.58742 z m 9.76519,4.76565 q 0,-1.17188 0.31125,-2.07813 0.31126,-0.90626 0.90265,-1.53126 0.59139,-0.625 1.40065,-0.9375 0.82484,-0.32814 1.83643,-0.32814 0.43576,0 0.85595,0.0625 0.4202,0.0469 0.82484,0.15625 v -3.84377 h 1.5874 v 12.87507 h -1.41621 l -0.0467,-1.73439 q -0.6692,0.96876 -1.44734,1.43751 -0.76259,0.45313 -1.66523,0.45313 -0.77814,0 -1.36954,-0.3125 -0.59139,-0.32813 -0.99602,-0.92189 -0.38908,-0.60937 -0.59139,-1.4375 -0.18675,-0.84376 -0.18675,-1.85939 z m 1.60297,-0.10937 q 0,1.65626 0.48245,2.48438 0.49802,0.81251 1.3851,0.81251 0.59138,0 1.26058,-0.53125 0.66921,-0.54688 1.40067,-1.60939 v -4.23439 q -0.38908,-0.1875 -0.85597,-0.28126 -0.46687,-0.0937 -0.93376,-0.0937 -1.29173,0 -2.02318,0.84376 -0.71589,0.82813 -0.71589,2.60939 z m 9.43837,-4.65628 h 1.44734 l 0.0467,1.68751 q 0.80928,-0.98438 1.58742,-1.42188 0.79371,-0.4375 1.58742,-0.4375 1.41621,0 2.14768,0.92188 0.73145,0.92187 0.6692,2.73439 h -1.58742 q 0.0156,-1.20313 -0.35795,-1.73439 -0.37351,-0.54688 -1.10496,-0.54688 -0.31125,0 -0.63807,0.10938 -0.32682,0.10938 -0.66921,0.35937 -0.32682,0.25001 -0.71589,0.64064 -0.3735,0.39062 -0.80928,0.95312 v 5.87504 h -1.60296 z m 17.95125,0 -3.09701,8.17192 q -0.48245,1.25001 -0.99602,2.15627 -0.51359,0.90625 -1.12053,1.48438 -0.60696,0.57813 -1.33841,0.84375 -0.73146,0.28125 -1.61854,0.28125 -0.249,0 -0.43576,-0.0156 -0.18675,-0.0156 -0.4202,-0.0312 v -1.43751 q 0.20232,0.0312 0.43576,0.0469 0.24901,0.0312 0.49802,0.0312 0.43576,0 0.80926,-0.14063 0.38908,-0.125 0.7159,-0.40625 0.34238,-0.28126 0.65364,-0.75001 0.31125,-0.45312 0.59139,-1.09375 l -3.64172,-9.14068 h 1.80529 l 2.30331,6.04691 0.46688,1.42188 0.52914,-1.46875 2.13211,-6.00004 z"
         fill-rule="nonzero"
         id="path134"
         style="stroke-width:0.998013" />
      <path
         fill="#010000"
         fill-opacity="0"
         d="m 312.87607,465.22153 v 0 21.84469 0 z"
         fill-rule="nonzero"
         id="path136"
         style="stroke-width:0.998013" />
    </g>
  </g>
</svg>
