<?xml version="1.0" encoding="UTF-8" standalone="no"?>
<svg
   xmlns:dc="http://purl.org/dc/elements/1.1/"
   xmlns:cc="http://creativecommons.org/ns#"
   xmlns:rdf="http://www.w3.org/1999/02/22-rdf-syntax-ns#"
   xmlns:svg="http://www.w3.org/2000/svg"
   xmlns="http://www.w3.org/2000/svg"
   xmlns:sodipodi="http://sodipodi.sourceforge.net/DTD/sodipodi-0.dtd"
   xmlns:inkscape="http://www.inkscape.org/namespaces/inkscape"
   inkscape:version="1.0 (4035a4f, 2020-05-01)"
   height="433.70508"
   width="369.28616"
   sodipodi:docname="labels_1.svg"
   id="svg71"
   stroke-miterlimit="10"
   stroke-linecap="square"
   stroke="none"
   fill="none"
   viewBox="0 0 369.28616 433.70508"
   version="1.1">
  <metadata
     id="metadata77">
    <rdf:RDF>
      <cc:Work
         rdf:about="">
        <dc:format>image/svg+xml</dc:format>
        <dc:type
           rdf:resource="http://purl.org/dc/dcmitype/StillImage" />
      </cc:Work>
    </rdf:RDF>
  </metadata>
  <defs
     id="defs75" />
  <sodipodi:namedview
     inkscape:current-layer="g69"
     inkscape:window-maximized="0"
     inkscape:window-y="25"
     inkscape:window-x="0"
     inkscape:cy="217.45363"
     inkscape:cx="-257.48062"
     inkscape:zoom="0.54326164"
     showgrid="false"
     id="namedview73"
     inkscape:window-height="745"
     inkscape:window-width="981"
     inkscape:pageshadow="2"
     inkscape:pageopacity="0"
     guidetolerance="10"
     gridtolerance="10"
     objecttolerance="10"
     borderopacity="1"
     bordercolor="#666666"
     pagecolor="#ffffff" />
  <clipPath
     id="p.0">
    <path
       id="path10"
       clip-rule="nonzero"
       d="M 0,0 H 960 V 720 H 0 Z" />
  </clipPath>
  <g
     transform="translate(-230.33564,-68.2336)"
     id="g69"
     clip-path="url(#p.0)">
    <path
       id="path13"
       fill-rule="evenodd"
       d="M 0,0 H 960 V 720 H 0 Z"
       fill-opacity="0"
       fill="#000000" />
    <path
       id="path59"
       fill-rule="evenodd"
       d="m 496.97263,232.41225 h 131.08664 v 42.01576 H 496.97263 Z"
       fill-opacity="0"
       fill="#000000" />
    <g
       inkscape:export-ydpi="96"
       inkscape:export-xdpi="96"
       id="g304">
      <path
         fill="#000000"
         fill-opacity="0"
         d="M 240.54098,101.3939 H 437.88989 V 483.41201 H 240.54098 Z"
         fill-rule="evenodd"
         id="path15"
         style="stroke-width:0.998239" />
      <path
         stroke="#000000"
         stroke-width="2.99471"
         stroke-linejoin="round"
         stroke-linecap="butt"
         d="M 240.54098,101.3939 H 437.88989 V 483.41201 H 240.54098 Z"
         fill-rule="evenodd"
         id="path17" />
      <path
         fill="#000000"
         fill-opacity="0"
         d="m 328.6936,355.90503 h 235.35615 v 144.5363 H 328.6936 Z"
         fill-rule="evenodd"
         id="path19"
         style="stroke-width:0.998239" />
      <path
         stroke="#000000"
         stroke-width="2.99471"
         stroke-linejoin="round"
         stroke-linecap="butt"
         d="m 328.6936,355.90503 h 235.35615 v 144.5363 H 328.6936 Z"
         fill-rule="evenodd"
         id="path21" />
      <path
         fill="#000000"
         fill-opacity="0"
         d="m 318.74084,323.10673 h 130.62438 v 42.01601 H 318.74084 Z"
         fill-rule="evenodd"
         id="path23"
         style="stroke-width:0.998239" />
      <path
         fill="#ffffff"
         d="m 327.70911,332.10678 h 61.32674 v 22.40013 h -61.32674 z"
         fill-rule="nonzero"
         id="path25"
         style="stroke-width:0.998239" />
      <path
         fill="#000000"
         fill-opacity="0"
         d="m 327.70911,336.17127 h 61.32674 v 21.84471 h -61.32674 z"
         fill-rule="nonzero"
         id="path27"
         style="stroke-width:0.998239" />
      <path
         fill="#000000"
         d="m 336.95764,345.29248 q 0,1.14062 -0.32697,2.04688 -0.3114,0.89063 -0.88749,1.51564 -0.57608,0.60937 -1.40128,0.95312 -0.82521,0.32814 -1.85283,0.32814 -0.80963,0 -1.66597,-0.15625 -0.84078,-0.15626 -1.66599,-0.48439 V 337.1518 h 1.58813 v 3.5469 l -0.0778,1.68751 q 0.68508,-0.90626 1.448,-1.28126 0.7785,-0.39063 1.68155,-0.39063 0.7785,0 1.37015,0.32813 0.59166,0.32812 0.98091,0.93751 0.40482,0.59375 0.60722,1.43751 0.20241,0.82812 0.20241,1.87501 z m -1.61927,0.0625 q 0,-0.71876 -0.10901,-1.31251 -0.10901,-0.60938 -0.34254,-1.03125 -0.21798,-0.42189 -0.57608,-0.65626 -0.34254,-0.25 -0.84077,-0.25 -0.29583,0 -0.60723,0.0937 -0.3114,0.0937 -0.63837,0.32812 -0.32696,0.21875 -0.70064,0.59375 -0.35811,0.35938 -0.7785,0.90626 v 4.43753 q 0.45153,0.17188 0.93419,0.28125 0.48267,0.10938 0.91863,0.10938 0.54494,0 1.04319,-0.17188 0.49823,-0.17187 0.8719,-0.57813 0.37368,-0.40625 0.59166,-1.07813 0.23355,-0.67188 0.23355,-1.67188 z m 11.37329,4.6719 h -1.41685 l -0.0622,-1.46876 q -0.40482,0.46875 -0.7785,0.78125 -0.35812,0.3125 -0.73178,0.51563 -0.35811,0.18751 -0.73179,0.25 -0.35811,0.0781 -0.76293,0.0781 -1.41685,0 -2.13307,-0.82813 -0.71621,-0.82813 -0.71621,-2.50001 v -5.96879 h 1.58813 v 5.84379 q 0,2.10938 1.57255,2.10938 0.29583,0 0.56052,-0.0781 0.28025,-0.0937 0.57608,-0.3125 0.3114,-0.21876 0.65395,-0.57814 0.3581,-0.35937 0.79405,-0.92187 v -6.06254 h 1.58813 z m 9.97201,-0.34375 q -0.6228,0.25 -1.27673,0.35938 -0.63837,0.10937 -1.32345,0.10937 -2.1642,0 -3.33196,-1.17188 -1.16773,-1.17189 -1.16773,-3.43752 0,-1.07814 0.32696,-1.95314 0.34254,-0.89063 0.94977,-1.51563 0.60722,-0.64064 1.448,-0.98439 0.85634,-0.34375 1.86838,-0.34375 0.71622,0 1.32345,0.10938 0.62279,0.0937 1.18331,0.32812 v 1.51564 q -0.59165,-0.3125 -1.21445,-0.45313 -0.60723,-0.14062 -1.26116,-0.14062 -0.60722,0 -1.15218,0.23437 -0.52937,0.23438 -0.93419,0.67189 -0.40482,0.42187 -0.65394,1.0625 -0.23354,0.62501 -0.23354,1.42188 0,1.65626 0.79405,2.48439 0.80965,0.81251 2.24208,0.81251 0.63836,0 1.24558,-0.14063 0.60723,-0.14062 1.16775,-0.4375 z m 11.34216,0.34375 h -2.17979 l -4.23502,-4.90628 v 4.90628 h -1.58813 V 337.1518 h 1.58813 v 7.9063 l 4.07932,-4.1719 h 2.10194 l -4.28173,4.21878 z m 9.72289,-5.06253 q 0,0.34375 -0.0156,0.57813 0,0.21875 -0.0311,0.42187 h -6.39922 q 0,1.40626 0.77849,2.15626 0.79406,0.75001 2.25763,0.75001 0.40482,0 0.79408,-0.0312 0.40481,-0.0312 0.77848,-0.0781 0.37369,-0.0625 0.71622,-0.125 0.34255,-0.0781 0.6228,-0.15625 v 1.29688 q -0.63837,0.1875 -1.46357,0.29688 -0.80963,0.10937 -1.68155,0.10937 -1.16774,0 -2.00852,-0.31251 -0.84077,-0.3125 -1.38572,-0.92187 -0.54495,-0.60938 -0.80963,-1.48439 -0.24912,-0.875 -0.24912,-2.00001 0,-0.95313 0.28025,-1.81251 0.28026,-0.85938 0.80965,-1.51563 0.52936,-0.65626 1.29228,-1.03126 0.7785,-0.39063 1.75941,-0.39063 0.94976,0 1.68155,0.3125 0.74735,0.29688 1.24559,0.84376 0.49824,0.54688 0.76293,1.34375 0.26468,0.78126 0.26468,1.75002 z m -1.65041,-0.21876 q 0.0311,-0.60937 -0.12455,-1.10937 -0.14015,-0.51564 -0.45155,-0.87501 -0.29581,-0.375 -0.74735,-0.57813 -0.45152,-0.20312 -1.05875,-0.20312 -0.5138,0 -0.94976,0.20312 -0.42039,0.20313 -0.73179,0.5625 -0.29583,0.35938 -0.49824,0.87501 -0.18684,0.51563 -0.23354,1.125 z m 11.51342,5.15629 q -0.52937,0.14063 -1.10546,0.1875 -0.57609,0.0625 -1.16774,0.0625 -1.7127,0 -2.55347,-0.78126 -0.84078,-0.78125 -0.84078,-2.39063 v -4.76566 h -2.55346 v -1.32813 h 2.55346 v -2.51564 l 1.57256,-0.40626 v 2.9219 h 4.09489 v 1.32813 h -4.09489 v 4.64066 q 0,0.98437 0.51381,1.46876 0.52938,0.48437 1.54142,0.48437 0.43597,0 0.94977,-0.0625 0.52937,-0.0625 1.08989,-0.21875 z"
         fill-rule="nonzero"
         id="path29"
         style="stroke-width:0.998239" />
      <path
         fill="#010000"
         fill-opacity="0"
         d="m 389.03585,336.17127 v 0 21.84471 0 z"
         fill-rule="nonzero"
         id="path31"
         style="stroke-width:0.998239" />
      <path
         fill="#000000"
         fill-opacity="0"
         d="m 507.29519,263.2153 h 88.78818 v 90.64622 h -88.78818 z"
         fill-rule="evenodd"
         id="path33"
         style="stroke-width:0.998239" />
      <path
         stroke="#000000"
         stroke-width="2.99471"
         stroke-linejoin="round"
         stroke-linecap="butt"
         d="m 507.29519,263.2153 h 88.78818 v 90.64622 h -88.78818 z"
         fill-rule="evenodd"
         id="path35" />
      <path
         fill="#000000"
         fill-opacity="0"
         d="m 230.33564,68.2336 h 130.62437 v 42.01601 H 230.33564 Z"
         fill-rule="evenodd"
         id="path37"
         style="stroke-width:0.998239" />
      <path
         fill="#ffffff"
         d="m 239.3039,77.233655 h 61.32675 V 99.633787 H 239.3039 Z"
         fill-rule="nonzero"
         id="path39"
         style="stroke-width:0.998239" />
      <path
         fill="#000000"
         fill-opacity="0"
         d="m 239.3039,81.29813 h 61.32675 v 21.84471 H 239.3039 Z"
         fill-rule="nonzero"
         id="path41"
         style="stroke-width:0.998239" />
      <path
         fill="#000000"
         d="m 248.55241,90.419357 q 0,1.218757 -0.34253,2.140638 -0.34254,0.906256 -0.94977,1.515634 -0.59166,0.593754 -1.41685,0.890631 -0.80964,0.296876 -1.75941,0.296876 -0.43595,0 -0.87192,-0.04687 -0.43595,-0.04687 -0.87191,-0.156251 v 3.828149 h -1.58813 V 86.013085 h 1.41686 l 0.0933,1.531259 q 0.68507,-0.937506 1.44799,-1.312508 0.7785,-0.390627 1.68155,-0.390627 0.7785,0 1.37016,0.328126 0.59165,0.328128 0.9809,0.937506 0.40482,0.593754 0.60722,1.437509 0.20242,0.82813 0.20242,1.875012 z m -1.61926,0.0625 q 0,-0.718754 -0.10901,-1.312508 -0.10901,-0.609379 -0.34254,-1.031256 -0.21798,-0.421878 -0.57608,-0.656255 -0.34254,-0.250001 -0.84077,-0.250001 -0.29583,0 -0.60723,0.09375 -0.3114,0.09375 -0.63837,0.328127 -0.32696,0.218751 -0.70064,0.593753 -0.35811,0.359378 -0.7785,0.906256 v 4.437527 q 0.43596,0.171876 0.91863,0.281252 0.48266,0.109376 0.93419,0.109376 1.27674,0 2.00852,-0.875006 0.73178,-0.875005 0.73178,-2.625016 z m 11.74697,-0.390627 q 0,0.343752 -0.0155,0.578128 0,0.218752 -0.0311,0.421878 h -6.39923 q 0,1.406259 0.7785,2.156263 0.79406,0.750005 2.25763,0.750005 0.40481,0 0.79406,-0.03125 0.40482,-0.03125 0.7785,-0.07813 0.37367,-0.0625 0.71621,-0.125001 0.34254,-0.07813 0.62279,-0.156251 v 1.296883 q -0.63835,0.187502 -1.46356,0.296877 -0.80964,0.109376 -1.68155,0.109376 -1.16774,0 -2.00852,-0.312502 -0.84076,-0.312502 -1.38573,-0.921881 -0.54493,-0.609379 -0.80963,-1.484384 -0.24912,-0.875005 -0.24912,-2.000012 0,-0.953131 0.28027,-1.812511 0.28025,-0.859381 0.80963,-1.515635 0.52937,-0.656254 1.2923,-1.031256 0.7785,-0.390627 1.7594,-0.390627 0.94976,0 1.68155,0.312502 0.74735,0.296876 1.2456,0.843755 0.49823,0.546878 0.76293,1.343758 0.26468,0.781255 0.26468,1.750011 z m -1.65041,-0.218752 q 0.0311,-0.609379 -0.12455,-1.109382 -0.14014,-0.515628 -0.45154,-0.875005 -0.29583,-0.375002 -0.74735,-0.578129 -0.45153,-0.203126 -1.05875,-0.203126 -0.51381,0 -0.94977,0.203126 -0.42039,0.203127 -0.73177,0.562504 -0.29585,0.359377 -0.49825,0.875006 -0.18684,0.515627 -0.23355,1.125006 z m 4.53811,-3.859399 h 1.448 l 0.0468,1.687511 q 0.80963,-0.984381 1.58813,-1.421884 0.79407,-0.437503 1.58813,-0.437503 1.41687,0 2.14865,0.921881 0.73178,0.921881 0.6695,2.734392 h -1.58812 q 0.0156,-1.203132 -0.35811,-1.734386 -0.37368,-0.546878 -1.10547,-0.546878 -0.3114,0 -0.63836,0.109376 -0.32697,0.109375 -0.6695,0.359377 -0.32698,0.250001 -0.71622,0.640629 -0.37368,0.390627 -0.80963,0.953131 v 5.875036 h -1.60371 z m 17.07189,6.640667 q 0,0.484377 -0.17128,0.875005 -0.1557,0.375002 -0.43595,0.671879 -0.28026,0.296877 -0.65393,0.515628 -0.37369,0.203126 -0.79407,0.343752 -0.4204,0.125001 -0.87192,0.187502 -0.45153,0.0625 -0.87191,0.0625 -0.91863,0 -1.69712,-0.07813 -0.77849,-0.07813 -1.52586,-0.265626 v -1.453129 q 0.79408,0.234376 1.58813,0.359377 0.79408,0.109376 1.57257,0.109376 1.1366,0 1.68156,-0.312502 0.54493,-0.312502 0.54493,-0.890631 0,-0.234376 -0.0933,-0.421877 -0.0778,-0.203127 -0.3114,-0.375003 -0.21798,-0.187501 -0.70063,-0.375002 -0.48268,-0.203126 -1.30788,-0.437503 -0.60723,-0.187501 -1.1366,-0.421877 -0.5138,-0.234377 -0.90307,-0.546879 -0.37367,-0.328127 -0.59165,-0.750004 -0.21798,-0.421878 -0.21798,-1.015631 0,-0.375003 0.17128,-0.828131 0.17126,-0.453127 0.59165,-0.843755 0.43597,-0.406252 1.16774,-0.656254 0.73179,-0.265627 1.80611,-0.265627 0.54495,0 1.19888,0.0625 0.65395,0.0625 1.35458,0.203126 v 1.406259 q -0.74735,-0.171876 -1.41685,-0.250002 -0.65394,-0.09375 -1.15218,-0.09375 -0.59165,0 -0.99647,0.09375 -0.38926,0.07813 -0.65394,0.250002 -0.24912,0.156251 -0.3581,0.375002 -0.10901,0.203126 -0.10901,0.453128 0,0.250001 0.0933,0.453128 0.10901,0.187501 0.3581,0.375002 0.26469,0.187501 0.71622,0.375002 0.4671,0.187502 1.21445,0.406253 0.80963,0.234376 1.35458,0.500003 0.56052,0.250002 0.90306,0.578128 0.3581,0.312502 0.49824,0.718755 0.1557,0.406252 0.1557,0.906256 z m 10.93733,-2.140639 q 0,1.062507 -0.3114,1.953137 -0.29582,0.890631 -0.85633,1.53126 -0.56052,0.625004 -1.37015,0.968756 -0.80964,0.343752 -1.83725,0.343752 -0.98091,0 -1.75941,-0.296877 -0.76292,-0.312502 -1.30787,-0.89063 -0.54494,-0.593754 -0.8252,-1.468759 -0.28025,-0.875006 -0.28025,-2.015638 0,-1.062507 0.29582,-1.937512 0.29583,-0.89063 0.85635,-1.515634 0.56051,-0.640629 1.37015,-0.984381 0.80963,-0.359378 1.83724,-0.359378 0.9809,0 1.7594,0.312502 0.7785,0.296877 1.30787,0.890631 0.54495,0.578128 0.82521,1.453134 0.29582,0.875005 0.29582,2.015637 z m -1.61927,0.0625 q 0,-0.843755 -0.18683,-1.468759 -0.18685,-0.640629 -0.52938,-1.062507 -0.34254,-0.421878 -0.84078,-0.640629 -0.49824,-0.218751 -1.10545,-0.218751 -0.70065,0 -1.21445,0.281252 -0.49824,0.281251 -0.82522,0.750004 -0.3114,0.453128 -0.4671,1.078132 -0.1557,0.609379 -0.1557,1.281258 0,0.85938 0.18685,1.500009 0.18684,0.625004 0.52937,1.046881 0.35811,0.421878 0.84078,0.640629 0.49824,0.218752 1.10547,0.218752 0.71621,0 1.21445,-0.281252 0.49823,-0.281252 0.8252,-0.73438 0.32698,-0.468752 0.4671,-1.078131 0.15569,-0.625004 0.15569,-1.312508 z m 3.89974,-4.562529 h 1.41687 l 0.0622,1.468759 q 0.38925,-0.468752 0.76292,-0.781254 0.37368,-0.312502 0.73179,-0.500003 0.3581,-0.203126 0.73179,-0.281252 0.37367,-0.07813 0.77848,-0.07813 1.4013,0 2.11751,0.843755 0.73179,0.82813 0.73179,2.500015 v 5.968787 h -1.58812 V 89.30997 q 0,-1.078132 -0.40482,-1.578135 -0.38926,-0.515628 -1.18331,-0.515628 -0.28027,0 -0.56052,0.09375 -0.28026,0.07813 -0.5761,0.296876 -0.29581,0.203127 -0.65393,0.578129 -0.34253,0.359377 -0.7785,0.906256 v 6.062537 h -1.58813 z"
         fill-rule="nonzero"
         id="path43"
         style="stroke-width:0.998239" />
      <path
         fill="#000000"
         fill-opacity="0"
         d="m 300.63065,81.29813 v 0 21.84471 0 z"
         fill-rule="nonzero"
         id="path45"
         style="stroke-width:0.998239" />
      <path
         fill="#000000"
         fill-opacity="0"
         d="M 242.58213,99.345532 H 439.931 V 481.36364 H 242.58213 Z"
         fill-rule="evenodd"
         id="path47"
         style="stroke-width:0.998239" />
      <path
         stroke="#ffffff"
         stroke-width="2.99471"
         stroke-linejoin="round"
         stroke-linecap="butt"
         d="M 242.58213,99.345532 H 439.931 V 481.36364 H 242.58213 Z"
         fill-rule="evenodd"
         id="path49" />
      <path
         fill="#000000"
         fill-opacity="0"
         d="m 330.73476,353.85668 h 235.3561 V 498.393 h -235.3561 z"
         fill-rule="evenodd"
         id="path51"
         style="stroke-width:0.998239" />
      <path
         stroke="#ffffff"
         stroke-width="2.99471"
         stroke-linejoin="round"
         stroke-linecap="butt"
         d="m 330.73476,353.85668 h 235.3561 V 498.393 h -235.3561 z"
         fill-rule="evenodd"
         id="path53" />
      <path
         fill="#000000"
         fill-opacity="0"
         d="m 509.33634,261.16693 h 88.78812 v 90.64622 h -88.78812 z"
         fill-rule="evenodd"
         id="path55"
         style="stroke-width:0.998239" />
      <path
         stroke="#ffffff"
         stroke-width="2.99471"
         stroke-linejoin="round"
         stroke-linecap="butt"
         d="m 509.33634,261.16693 h 88.78812 v 90.64622 h -88.78812 z"
         fill-rule="evenodd"
         id="path57" />
      <path
         fill="#ffffff"
         d="m 506.30022,241.41332 h 61.32677 v 22.40015 h -61.32677 z"
         fill-rule="nonzero"
         id="path61"
         style="stroke-width:0.998239" />
      <path
         fill="#000000"
         fill-opacity="0"
         d="m 506.30022,245.47779 h 61.32677 v 21.84473 h -61.32677 z"
         fill-rule="nonzero"
         id="path63"
         style="stroke-width:0.998239" />
      <path
         fill="#000000"
         d="m 515.54875,254.59902 q 0,1.14063 -0.32695,2.04688 -0.3114,0.89063 -0.8875,1.51564 -0.57608,0.60937 -1.40128,0.95313 -0.82525,0.32813 -1.85286,0.32813 -0.80964,0 -1.66597,-0.15625 -0.84078,-0.15625 -1.66598,-0.48438 v -12.34383 h 1.58813 v 3.5469 l -0.0778,1.68751 q 0.68507,-0.90626 1.44799,-1.28126 0.77849,-0.39063 1.68159,-0.39063 0.7785,0 1.37015,0.32813 0.59165,0.32813 0.9809,0.93751 0.40482,0.59375 0.60723,1.4375 0.20241,0.82813 0.20241,1.87502 z m -1.61926,0.0625 q 0,-0.71876 -0.10901,-1.31251 -0.10901,-0.60938 -0.34254,-1.03126 -0.21798,-0.42188 -0.57609,-0.65625 -0.34254,-0.25 -0.84081,-0.25 -0.29583,0 -0.60723,0.0937 -0.3114,0.0937 -0.63835,0.32812 -0.32698,0.21875 -0.70066,0.59376 -0.3581,0.35938 -0.77849,0.90625 v 4.43753 q 0.45153,0.17188 0.93419,0.28125 0.48268,0.10938 0.91863,0.10938 0.54495,0 1.04318,-0.17188 0.49827,-0.17187 0.87195,-0.57813 0.37368,-0.40625 0.59167,-1.07813 0.23353,-0.67187 0.23353,-1.67188 z m 11.37326,4.6719 h -1.41686 l -0.0622,-1.46876 q -0.40481,0.46875 -0.77848,0.78125 -0.35812,0.3125 -0.7318,0.51564 -0.3581,0.1875 -0.73178,0.25 -0.35812,0.0781 -0.76293,0.0781 -1.41686,0 -2.13307,-0.82813 -0.71622,-0.82813 -0.71622,-2.50001 v -5.96879 h 1.58813 v 5.84379 q 0,2.10938 1.57256,2.10938 0.29583,0 0.56051,-0.0781 0.28027,-0.0937 0.5761,-0.3125 0.3114,-0.21876 0.65393,-0.57813 0.3581,-0.35938 0.79407,-0.92188 v -6.06254 h 1.58812 z m 9.97204,-0.34376 q -0.6228,0.25001 -1.27673,0.35939 -0.63837,0.10937 -1.32345,0.10937 -2.16421,0 -3.33196,-1.17188 -1.16773,-1.17189 -1.16773,-3.43752 0,-1.07814 0.32696,-1.95314 0.34254,-0.89063 0.94977,-1.51563 0.60722,-0.64064 1.448,-0.98439 0.85635,-0.34375 1.86838,-0.34375 0.71622,0 1.32345,0.10938 0.6228,0.0937 1.18331,0.32812 v 1.51564 q -0.59165,-0.3125 -1.21445,-0.45313 -0.60723,-0.14062 -1.26116,-0.14062 -0.60723,0 -1.15218,0.23437 -0.52937,0.23438 -0.9342,0.67188 -0.40482,0.42188 -0.65393,1.06251 -0.23354,0.625 -0.23354,1.42188 0,1.65626 0.79405,2.48439 0.80964,0.81251 2.24207,0.81251 0.63838,0 1.2456,-0.14063 0.60723,-0.14062 1.16774,-0.43751 z m 11.34213,0.34376 h -2.17979 l -4.23501,-4.90628 v 4.90628 h -1.58813 v -12.87508 h 1.58813 v 7.9063 l 4.07931,-4.1719 h 2.10195 l -4.28174,4.21878 z m 9.72291,-5.06253 q 0,0.34375 -0.0155,0.57813 0,0.21875 -0.0311,0.42187 H 549.894 q 0,1.40626 0.7785,2.15627 0.79406,0.75 2.25763,0.75 0.40482,0 0.79407,-0.0312 0.40481,-0.0312 0.77849,-0.0781 0.37367,-0.0625 0.71621,-0.125 0.34254,-0.0781 0.6228,-0.15625 v 1.29688 q -0.63836,0.1875 -1.46357,0.29688 -0.80963,0.10937 -1.68155,0.10937 -1.16773,0 -2.00851,-0.3125 -0.84077,-0.3125 -1.38573,-0.92188 -0.54494,-0.60938 -0.80964,-1.48439 -0.24911,-0.875 -0.24911,-2.00001 0,-0.95313 0.28026,-1.81251 0.28025,-0.85938 0.80963,-1.51563 0.52937,-0.65625 1.2923,-1.03126 0.7785,-0.39063 1.7594,-0.39063 0.94977,0 1.68155,0.3125 0.74735,0.29688 1.2456,0.84376 0.49823,0.54688 0.76293,1.34375 0.26468,0.78126 0.26468,1.75002 z m -1.65041,-0.21875 q 0.0311,-0.60938 -0.12455,-1.10938 -0.14013,-0.51564 -0.45153,-0.87501 -0.29584,-0.375 -0.74735,-0.57813 -0.45154,-0.20312 -1.05875,-0.20312 -0.51382,0 -0.94978,0.20312 -0.42039,0.20313 -0.73177,0.5625 -0.29585,0.35939 -0.49825,0.87501 -0.18683,0.51563 -0.23355,1.12501 z m 11.5134,5.15628 q -0.52938,0.14063 -1.10546,0.1875 -0.57609,0.0625 -1.16775,0.0625 -1.71268,0 -2.55346,-0.78126 -0.84077,-0.78125 -0.84077,-2.39063 v -4.76566 h -2.55347 v -1.32813 h 2.55347 v -2.51565 l 1.57256,-0.40625 v 2.9219 h 4.09488 v 1.32813 h -4.09488 v 4.64066 q 0,0.98438 0.5138,1.46876 0.52937,0.48437 1.54142,0.48437 0.43596,0 0.94977,-0.0625 0.52938,-0.0625 1.08989,-0.21875 z"
         fill-rule="nonzero"
         id="path65"
         style="stroke-width:0.998239" />
      <path
         fill="#000000"
         fill-opacity="0"
         d="m 567.62697,245.47779 v 0 21.84473 0 z"
         fill-rule="nonzero"
         id="path67"
         style="stroke-width:0.998239" />
    </g>
  </g>
</svg>
