<?xml version="1.0" encoding="UTF-8" standalone="no"?>
<svg
   xmlns:dc="http://purl.org/dc/elements/1.1/"
   xmlns:cc="http://creativecommons.org/ns#"
   xmlns:rdf="http://www.w3.org/1999/02/22-rdf-syntax-ns#"
   xmlns:svg="http://www.w3.org/2000/svg"
   xmlns="http://www.w3.org/2000/svg"
   xmlns:sodipodi="http://sodipodi.sourceforge.net/DTD/sodipodi-0.dtd"
   xmlns:inkscape="http://www.inkscape.org/namespaces/inkscape"
   inkscape:version="1.0 (4035a4f, 2020-05-01)"
   height="380.41284"
   width="480.30469"
   sodipodi:docname="labels_3.svg"
   id="svg227"
   stroke-miterlimit="10"
   stroke-linecap="square"
   stroke="none"
   fill="none"
   viewBox="0 0 480.30469 380.41284"
   version="1.1">
  <metadata
     id="metadata233">
    <rdf:RDF>
      <cc:Work
         rdf:about="">
        <dc:format>image/svg+xml</dc:format>
        <dc:type
           rdf:resource="http://purl.org/dc/dcmitype/StillImage" />
      </cc:Work>
    </rdf:RDF>
  </metadata>
  <defs
     id="defs231" />
  <sodipodi:namedview
     inkscape:current-layer="g225"
     inkscape:window-maximized="0"
     inkscape:window-y="25"
     inkscape:window-x="0"
     inkscape:cy="278.17089"
     inkscape:cx="79.520624"
     inkscape:zoom="1.0208333"
     showgrid="false"
     id="namedview229"
     inkscape:window-height="874"
     inkscape:window-width="888"
     inkscape:pageshadow="2"
     inkscape:pageopacity="0"
     guidetolerance="10"
     gridtolerance="10"
     objecttolerance="10"
     borderopacity="1"
     bordercolor="#666666"
     pagecolor="#ffffff" />
  <clipPath
     id="p.0">
    <path
       id="path148"
       clip-rule="nonzero"
       d="M 0,0 H 960 V 720 H 0 Z" />
  </clipPath>
  <g
     transform="translate(-229.5406,-78.89033)"
     id="g225"
     clip-path="url(#p.0)">
    <path
       id="path151"
       fill-rule="evenodd"
       d="M 0,0 H 960 V 720 H 0 Z"
       fill-opacity="0"
       fill="#000000" />
    <g
       inkscape:export-ydpi="96"
       inkscape:export-xdpi="96"
       id="g342">
      <path
         fill="#000000"
         fill-opacity="0"
         d="m 239.27296,217.12599 h 75.14961 v 84.03148 h -75.14961 z"
         fill-rule="evenodd"
         id="path153" />
      <path
         stroke="#434343"
         stroke-width="3"
         stroke-linejoin="round"
         stroke-linecap="butt"
         d="m 239.27296,217.12599 h 75.14961 v 84.03148 h -75.14961 z"
         fill-rule="evenodd"
         id="path155" />
      <path
         fill="#000000"
         fill-opacity="0"
         d="m 427.65125,321.25674 h 278.6457 v 131.05515 h -278.6457 z"
         fill-rule="evenodd"
         id="path157" />
      <path
         stroke="#434343"
         stroke-width="3"
         stroke-linejoin="round"
         stroke-linecap="butt"
         d="m 427.65125,321.25674 h 278.6457 v 131.05515 h -278.6457 z"
         fill-rule="evenodd"
         id="path159" />
      <path
         fill="#000000"
         fill-opacity="0"
         d="M 239.27296,111.63517 H 352.31234 V 228.42258 H 239.27296 Z"
         fill-rule="evenodd"
         id="path161" />
      <path
         stroke="#434343"
         stroke-width="3"
         stroke-linejoin="round"
         stroke-linecap="butt"
         d="M 239.27296,111.63517 H 352.31234 V 228.42258 H 239.27296 Z"
         fill-rule="evenodd"
         id="path163" />
      <path
         fill="#000000"
         fill-opacity="0"
         d="m 239.27296,288.16534 h 146.3307 v 169.63782 h -146.3307 z"
         fill-rule="evenodd"
         id="path165" />
      <path
         stroke="#434343"
         stroke-width="3"
         stroke-linejoin="round"
         stroke-linecap="butt"
         d="m 239.27296,288.16534 h 146.3307 v 169.63782 h -146.3307 z"
         fill-rule="evenodd"
         id="path167" />
      <path
         fill="#000000"
         fill-opacity="0"
         d="m 241.32133,215.07762 h 75.14961 v 84.03151 h -75.14961 z"
         fill-rule="evenodd"
         id="path169" />
      <path
         stroke="#ffffff"
         stroke-width="3"
         stroke-linejoin="round"
         stroke-linecap="butt"
         d="m 241.32133,215.07762 h 75.14961 v 84.03151 h -75.14961 z"
         fill-rule="evenodd"
         id="path171" />
      <path
         fill="#000000"
         fill-opacity="0"
         d="M 429.69962,319.2084 H 708.34528 V 450.26351 H 429.69962 Z"
         fill-rule="evenodd"
         id="path173" />
      <path
         stroke="#ffffff"
         stroke-width="3"
         stroke-linejoin="round"
         stroke-linecap="butt"
         d="M 429.69962,319.2084 H 708.34528 V 450.26351 H 429.69962 Z"
         fill-rule="evenodd"
         id="path175" />
      <path
         fill="#000000"
         fill-opacity="0"
         d="m 241.32133,109.58681 h 113.03935 v 116.7874 H 241.32133 Z"
         fill-rule="evenodd"
         id="path177" />
      <path
         stroke="#ffffff"
         stroke-width="3"
         stroke-linejoin="round"
         stroke-linecap="butt"
         d="m 241.32133,109.58681 h 113.03935 v 116.7874 H 241.32133 Z"
         fill-rule="evenodd"
         id="path179" />
      <path
         fill="#000000"
         fill-opacity="0"
         d="m 241.32133,286.117 h 146.3307 v 169.63779 h -146.3307 z"
         fill-rule="evenodd"
         id="path181" />
      <path
         stroke="#ffffff"
         stroke-width="3"
         stroke-linejoin="round"
         stroke-linecap="butt"
         d="m 241.32133,286.117 h 146.3307 v 169.63779 h -146.3307 z"
         fill-rule="evenodd"
         id="path183" />
      <path
         fill="#000000"
         fill-opacity="0"
         d="m 231.07611,186.4042 h 221.6063 v 42.01575 h -221.6063 z"
         fill-rule="evenodd"
         id="path185" />
      <path
         fill="#ffffff"
         d="m 240.07611,195.4042 h 174.374 v 22.39999 h -174.374 z"
         fill-rule="nonzero"
         id="path187" />
      <path
         fill="#000000"
         fill-opacity="0"
         d="m 240.07611,199.46866 h 174.374 v 21.84457 h -174.374 z"
         fill-rule="nonzero"
         id="path189" />
      <path
         fill="#000000"
         d="m 248.77924,210.8242 q 0,0.48437 -0.17188,0.875 -0.15625,0.375 -0.4375,0.67187 -0.28125,0.29688 -0.65625,0.51563 -0.375,0.20312 -0.79687,0.34375 -0.42188,0.125 -0.875,0.1875 -0.45313,0.0625 -0.875,0.0625 -0.92188,0 -1.70313,-0.0781 -0.78125,-0.0781 -1.53125,-0.26562 v -1.45313 q 0.79688,0.23438 1.59375,0.35938 0.79688,0.10937 1.57813,0.10937 1.14062,0 1.6875,-0.3125 0.54687,-0.3125 0.54687,-0.89062 0,-0.23438 -0.0937,-0.42188 -0.0781,-0.20312 -0.3125,-0.375 -0.21875,-0.1875 -0.70312,-0.375 -0.48438,-0.20312 -1.3125,-0.4375 -0.60938,-0.1875 -1.14063,-0.42187 -0.51562,-0.23438 -0.90625,-0.54688 -0.375,-0.32812 -0.59375,-0.75 -0.21875,-0.42187 -0.21875,-1.01562 0,-0.375 0.17188,-0.82813 0.17187,-0.45312 0.59375,-0.84375 0.4375,-0.40625 1.17187,-0.65625 0.73438,-0.26562 1.8125,-0.26562 0.54688,0 1.20313,0.0625 0.65625,0.0625 1.35937,0.20312 v 1.40625 q -0.75,-0.17187 -1.42187,-0.25 -0.65625,-0.0937 -1.15625,-0.0937 -0.59375,0 -1,0.0937 -0.39063,0.0781 -0.65625,0.25 -0.25,0.15625 -0.35938,0.375 -0.10937,0.20313 -0.10937,0.45313 0,0.25 0.0937,0.45312 0.10937,0.1875 0.35937,0.375 0.26563,0.1875 0.71875,0.375 0.46875,0.1875 1.21875,0.40625 0.8125,0.23438 1.35938,0.5 0.5625,0.25 0.90625,0.57813 0.35937,0.3125 0.5,0.71875 0.15625,0.40625 0.15625,0.90625 z m 10.38229,2.375 q -0.53125,0.14062 -1.10937,0.1875 -0.57813,0.0625 -1.17188,0.0625 -1.71875,0 -2.5625,-0.78125 -0.84375,-0.78125 -0.84375,-2.39063 v -4.76562 h -2.5625 v -1.32813 h 2.5625 v -2.51562 l 1.57813,-0.40625 v 2.92187 h 4.10937 v 1.32813 h -4.10937 v 4.64062 q 0,0.98438 0.51562,1.46875 0.53125,0.48438 1.54688,0.48438 0.4375,0 0.95312,-0.0625 0.53125,-0.0625 1.09375,-0.21875 z m 11.02292,-9.01563 -3.10937,8.17188 q -0.48438,1.25 -1,2.15625 -0.51563,0.90625 -1.125,1.48437 -0.60938,0.57813 -1.34375,0.84375 -0.73438,0.28125 -1.625,0.28125 -0.25,0 -0.4375,-0.0156 -0.1875,-0.0156 -0.42188,-0.0312 v -1.4375 q 0.20313,0.0312 0.4375,0.0469 0.25,0.0312 0.5,0.0312 0.4375,0 0.8125,-0.14062 0.39063,-0.125 0.71875,-0.40625 0.34375,-0.28125 0.65625,-0.75 0.3125,-0.45313 0.59375,-1.09375 l -3.65625,-9.14063 h 1.8125 l 2.3125,6.04688 0.46875,1.42187 0.53125,-1.46875 2.14063,-6 z m 5.24167,-2.42187 H 272.723 v -1.3125 h 4.29687 v 11.54687 h 2.73438 v 1.32813 h -7.34375 v -1.32813 h 3.01562 z m 14.86667,6.5 q 0,0.34375 -0.0156,0.57812 0,0.21875 -0.0312,0.42188 h -6.42188 q 0,1.40625 0.78125,2.15625 0.79688,0.75 2.26563,0.75 0.40625,0 0.79687,-0.0312 0.40625,-0.0312 0.78125,-0.0781 0.375,-0.0625 0.71875,-0.125 0.34375,-0.0781 0.625,-0.15625 v 1.29688 q -0.64062,0.1875 -1.46875,0.29687 -0.8125,0.10938 -1.6875,0.10938 -1.17187,0 -2.01562,-0.3125 -0.84375,-0.3125 -1.39063,-0.92188 -0.54687,-0.60937 -0.8125,-1.48437 -0.25,-0.875 -0.25,-2 0,-0.95313 0.28125,-1.8125 0.28125,-0.85938 0.8125,-1.51563 0.53125,-0.65625 1.29688,-1.03125 0.78125,-0.39062 1.76562,-0.39062 0.95313,0 1.6875,0.3125 0.75,0.29687 1.25,0.84375 0.5,0.54687 0.76563,1.34375 0.26562,0.78125 0.26562,1.75 z m -1.65625,-0.21875 q 0.0312,-0.60938 -0.125,-1.10938 -0.14062,-0.51562 -0.45312,-0.875 -0.29688,-0.375 -0.75,-0.57812 -0.45313,-0.20313 -1.0625,-0.20313 -0.51563,0 -0.95313,0.20313 -0.42187,0.20312 -0.73437,0.5625 -0.29688,0.35937 -0.5,0.875 -0.1875,0.51562 -0.23438,1.125 z m 12.97604,9.01562 h -10.25 v -1.3125 h 10.25 z m 7.33542,-3.73437 -0.0312,-1.23438 q -0.75,0.75 -1.51562,1.07813 -0.76563,0.3125 -1.625,0.3125 -0.78125,0 -1.34375,-0.1875 -0.54688,-0.20313 -0.90625,-0.54688 -0.35938,-0.35937 -0.53125,-0.82812 -0.15625,-0.48438 -0.15625,-1.03125 0,-1.375 1.01562,-2.15625 1.03125,-0.78125 3.03125,-0.78125 h 1.89063 v -0.79688 q 0,-0.8125 -0.51563,-1.29687 -0.51562,-0.5 -1.57812,-0.5 -0.78125,0 -1.53125,0.1875 -0.75,0.17187 -1.54688,0.48437 v -1.4375 q 0.29688,-0.10937 0.65625,-0.20312 0.375,-0.10938 0.78125,-0.1875 0.40625,-0.0781 0.85938,-0.125 0.45312,-0.0625 0.90625,-0.0625 0.82812,0 1.48437,0.1875 0.67188,0.17187 1.125,0.54687 0.46875,0.375 0.70313,0.95313 0.25,0.5625 0.25,1.32812 v 6.29688 z m -0.17187,-4.15625 h -2.01563 q -0.57812,0 -1.01562,0.125 -0.42188,0.10937 -0.70313,0.32812 -0.26562,0.21875 -0.40625,0.53125 -0.125,0.29688 -0.125,0.67188 0,0.26562 0.0781,0.51562 0.0781,0.23438 0.26562,0.42188 0.1875,0.1875 0.46875,0.29687 0.29688,0.10938 0.71875,0.10938 0.54688,0 1.25,-0.32813 0.70313,-0.34375 1.48438,-1.0625 z m 3.69479,-4.98438 h 1.8125 l 2.23438,6.04688 0.48437,1.46875 0.5,-1.51563 2.23438,-6 h 1.73437 l -3.59375,9.14063 h -1.8125 z m 16.99167,9.14063 -0.0312,-1.23438 q -0.75,0.75 -1.51562,1.07813 -0.76563,0.3125 -1.625,0.3125 -0.78125,0 -1.34375,-0.1875 -0.54688,-0.20313 -0.90625,-0.54688 -0.35938,-0.35937 -0.53125,-0.82812 -0.15625,-0.48438 -0.15625,-1.03125 0,-1.375 1.01562,-2.15625 1.03125,-0.78125 3.03125,-0.78125 h 1.89063 v -0.79688 q 0,-0.8125 -0.51563,-1.29687 -0.51562,-0.5 -1.57812,-0.5 -0.78125,0 -1.53125,0.1875 -0.75,0.17187 -1.54688,0.48437 v -1.4375 q 0.29688,-0.10937 0.65625,-0.20312 0.375,-0.10938 0.78125,-0.1875 0.40625,-0.0781 0.85938,-0.125 0.45312,-0.0625 0.90625,-0.0625 0.82812,0 1.48437,0.1875 0.67188,0.17187 1.125,0.54687 0.46875,0.375 0.70313,0.95313 0.25,0.5625 0.25,1.32812 v 6.29688 z m -0.17187,-4.15625 h -2.01563 q -0.57812,0 -1.01562,0.125 -0.42188,0.10937 -0.70313,0.32812 -0.26562,0.21875 -0.40625,0.53125 -0.125,0.29688 -0.125,0.67188 0,0.26562 0.0781,0.51562 0.0781,0.23438 0.26562,0.42188 0.1875,0.1875 0.46875,0.29687 0.29688,0.10938 0.71875,0.10938 0.54688,0 1.25,-0.32813 0.70313,-0.34375 1.48438,-1.0625 z m 4.55416,-4.98438 h 1.42188 l 0.0625,1.46875 q 0.39062,-0.46875 0.76562,-0.78125 0.375,-0.3125 0.73438,-0.5 0.35937,-0.20312 0.73437,-0.28125 0.375,-0.0781 0.78125,-0.0781 1.40625,0 2.125,0.84375 0.73438,0.82812 0.73438,2.5 v 5.96875 h -1.59375 v -5.84375 q 0,-1.07813 -0.40625,-1.57813 -0.39063,-0.51562 -1.1875,-0.51562 -0.28125,0 -0.5625,0.0937 -0.28125,0.0781 -0.57813,0.29687 -0.29687,0.20313 -0.65625,0.57813 -0.34375,0.35937 -0.78125,0.90625 v 6.0625 h -1.59375 z m 17.6323,9.01563 q -0.53125,0.14062 -1.10938,0.1875 -0.57812,0.0625 -1.17187,0.0625 -1.71875,0 -2.5625,-0.78125 -0.84375,-0.78125 -0.84375,-2.39063 v -4.76562 h -2.5625 v -1.32813 h 2.5625 v -2.51562 l 1.57812,-0.40625 v 2.92187 h 4.10938 v 1.32813 h -4.10938 v 4.64062 q 0,0.98438 0.51563,1.46875 0.53125,0.48438 1.54687,0.48438 0.4375,0 0.95313,-0.0625 0.53125,-0.0625 1.09375,-0.21875 z m 11.67917,3.85937 h -10.25 v -1.3125 h 10.25 z m 9.28854,-8.46875 q 0,1.14063 -0.32812,2.04688 -0.3125,0.89062 -0.89063,1.51562 -0.57812,0.60938 -1.40625,0.95313 -0.82812,0.32812 -1.85937,0.32812 -0.8125,0 -1.67188,-0.15625 -0.84375,-0.15625 -1.67187,-0.48437 V 200.4492 h 1.59375 v 3.54687 l -0.0781,1.6875 q 0.6875,-0.90625 1.45313,-1.28125 0.78125,-0.39062 1.6875,-0.39062 0.78125,0 1.375,0.32812 0.59375,0.32813 0.98437,0.9375 0.40625,0.59375 0.60938,1.4375 0.20312,0.82813 0.20312,1.875 z m -1.625,0.0625 q 0,-0.71875 -0.10937,-1.3125 -0.10938,-0.60937 -0.34375,-1.03125 -0.21875,-0.42187 -0.57813,-0.65625 -0.34375,-0.25 -0.84375,-0.25 -0.29687,0 -0.60937,0.0937 -0.3125,0.0937 -0.64063,0.32813 -0.32812,0.21875 -0.70312,0.59375 -0.35938,0.35937 -0.78125,0.90625 v 4.4375 q 0.45312,0.17187 0.9375,0.28125 0.48437,0.10937 0.92187,0.10937 0.54688,0 1.04688,-0.17187 0.5,-0.17188 0.875,-0.57813 0.375,-0.40625 0.59375,-1.07812 0.23437,-0.67188 0.23437,-1.67188 z m 9.92917,4.67188 -0.0312,-1.23438 q -0.75,0.75 -1.51562,1.07813 -0.76563,0.3125 -1.625,0.3125 -0.78125,0 -1.34375,-0.1875 -0.54688,-0.20313 -0.90625,-0.54688 -0.35938,-0.35937 -0.53125,-0.82812 -0.15625,-0.48438 -0.15625,-1.03125 0,-1.375 1.01562,-2.15625 1.03125,-0.78125 3.03125,-0.78125 h 1.89063 v -0.79688 q 0,-0.8125 -0.51563,-1.29687 -0.51562,-0.5 -1.57812,-0.5 -0.78125,0 -1.53125,0.1875 -0.75,0.17187 -1.54688,0.48437 v -1.4375 q 0.29688,-0.10937 0.65625,-0.20312 0.375,-0.10938 0.78125,-0.1875 0.40625,-0.0781 0.85938,-0.125 0.45312,-0.0625 0.90625,-0.0625 0.82812,0 1.48437,0.1875 0.67188,0.17187 1.125,0.54687 0.46875,0.375 0.70313,0.95313 0.25,0.5625 0.25,1.32812 v 6.29688 z m -0.17187,-4.15625 h -2.01563 q -0.57812,0 -1.01562,0.125 -0.42188,0.10937 -0.70313,0.32812 -0.26562,0.21875 -0.40625,0.53125 -0.125,0.29688 -0.125,0.67188 0,0.26562 0.0781,0.51562 0.0781,0.23438 0.26562,0.42188 0.1875,0.1875 0.46875,0.29687 0.29688,0.10938 0.71875,0.10938 0.54688,0 1.25,-0.32813 0.70313,-0.34375 1.48438,-1.0625 z m 11.80416,1.65625 q 0,0.48437 -0.17187,0.875 -0.15625,0.375 -0.4375,0.67187 -0.28125,0.29688 -0.65625,0.51563 -0.375,0.20312 -0.79688,0.34375 -0.42187,0.125 -0.875,0.1875 -0.45312,0.0625 -0.875,0.0625 -0.92187,0 -1.70312,-0.0781 -0.78125,-0.0781 -1.53125,-0.26562 v -1.45313 q 0.79687,0.23438 1.59375,0.35938 0.79687,0.10937 1.57812,0.10937 1.14063,0 1.6875,-0.3125 0.54688,-0.3125 0.54688,-0.89062 0,-0.23438 -0.0937,-0.42188 -0.0781,-0.20312 -0.3125,-0.375 -0.21875,-0.1875 -0.70313,-0.375 -0.48437,-0.20312 -1.3125,-0.4375 -0.60937,-0.1875 -1.14062,-0.42187 -0.51563,-0.23438 -0.90625,-0.54688 -0.375,-0.32812 -0.59375,-0.75 -0.21875,-0.42187 -0.21875,-1.01562 0,-0.375 0.17187,-0.82813 0.17188,-0.45312 0.59375,-0.84375 0.4375,-0.40625 1.17188,-0.65625 0.73437,-0.26562 1.8125,-0.26562 0.54687,0 1.20312,0.0625 0.65625,0.0625 1.35938,0.20312 v 1.40625 q -0.75,-0.17187 -1.42188,-0.25 -0.65625,-0.0937 -1.15625,-0.0937 -0.59375,0 -1,0.0937 -0.39062,0.0781 -0.65625,0.25 -0.25,0.15625 -0.35937,0.375 -0.10938,0.20313 -0.10938,0.45313 0,0.25 0.0937,0.45312 0.10938,0.1875 0.35938,0.375 0.26562,0.1875 0.71875,0.375 0.46875,0.1875 1.21875,0.40625 0.8125,0.23438 1.35937,0.5 0.5625,0.25 0.90625,0.57813 0.35938,0.3125 0.5,0.71875 0.15625,0.40625 0.15625,0.90625 z m 6.1323,-5.32813 h -2.70313 v -1.3125 h 4.29688 v 7.8125 h 2.73437 v 1.32813 h -7.34375 v -1.32813 h 3.01563 z m 0.54687,-5.15625 q 0.26563,0 0.48438,0.0937 0.23437,0.0937 0.40625,0.28125 0.17187,0.17188 0.26562,0.39063 0.0937,0.21875 0.0937,0.48437 0,0.25 -0.0937,0.48438 -0.0937,0.23437 -0.26562,0.40625 -0.17188,0.17187 -0.40625,0.26562 -0.21875,0.0937 -0.48438,0.0937 -0.26562,0 -0.5,-0.0937 -0.21875,-0.0937 -0.39062,-0.26562 -0.15625,-0.17188 -0.26563,-0.40625 -0.0937,-0.23438 -0.0937,-0.48438 0,-0.26562 0.0937,-0.48437 0.10938,-0.21875 0.26563,-0.39063 0.17187,-0.1875 0.39062,-0.28125 0.23438,-0.0937 0.5,-0.0937 z m 13.6948,12.64063 q -0.625,0.25 -1.28125,0.35937 -0.64063,0.10938 -1.32813,0.10938 -2.17187,0 -3.34375,-1.17188 -1.17187,-1.17187 -1.17187,-3.4375 0,-1.07812 0.32812,-1.95312 0.34375,-0.89063 0.95313,-1.51563 0.60937,-0.64062 1.45312,-0.98437 0.85938,-0.34375 1.875,-0.34375 0.71875,0 1.32813,0.10937 0.625,0.0937 1.1875,0.32813 v 1.51562 q -0.59375,-0.3125 -1.21875,-0.45312 -0.60938,-0.14063 -1.26563,-0.14063 -0.60937,0 -1.15625,0.23438 -0.53125,0.23437 -0.9375,0.67187 -0.40625,0.42188 -0.65625,1.0625 -0.23437,0.625 -0.23437,1.42188 0,1.65625 0.79687,2.48437 0.8125,0.8125 2.25,0.8125 0.64063,0 1.25,-0.14062 0.60938,-0.14063 1.17188,-0.4375 z"
         fill-rule="nonzero"
         id="path191" />
      <path
         fill="#010000"
         fill-opacity="0"
         d="m 414.4501,199.46866 v 0 21.84457 0 z"
         fill-rule="nonzero"
         id="path193" />
      <path
         fill="#000000"
         fill-opacity="0"
         d="m 418.88974,289.18896 h 255.02365 v 42.01575 H 418.88974 Z"
         fill-rule="evenodd"
         id="path195" />
      <path
         fill="#ffffff"
         d="m 427.88974,298.18896 h 205.1459 v 22.40002 h -205.1459 z"
         fill-rule="nonzero"
         id="path197" />
      <path
         fill="#000000"
         fill-opacity="0"
         d="m 427.88974,302.25342 h 205.1459 v 21.84457 h -205.1459 z"
         fill-rule="nonzero"
         id="path199" />
      <path
         fill="#000000"
         d="m 428.88974,311.73398 q 0,-1.17188 0.3125,-2.07813 0.3125,-0.90625 0.90625,-1.53125 0.59375,-0.625 1.40625,-0.9375 0.82813,-0.32812 1.84375,-0.32812 0.4375,0 0.85938,0.0625 0.42187,0.0469 0.82812,0.15625 v -3.84375 h 1.59375 v 12.875 h -1.42187 l -0.0469,-1.73438 q -0.67187,0.96875 -1.45312,1.4375 -0.76563,0.45313 -1.67188,0.45313 -0.78125,0 -1.375,-0.3125 -0.59375,-0.32813 -1,-0.92188 -0.39062,-0.60937 -0.59375,-1.4375 -0.1875,-0.84375 -0.1875,-1.85937 z m 1.60938,-0.10938 q 0,1.65625 0.48437,2.48438 0.5,0.8125 1.39063,0.8125 0.59375,0 1.26562,-0.53125 0.67188,-0.54688 1.40625,-1.60938 v -4.23437 q -0.39062,-0.1875 -0.85937,-0.28125 -0.46875,-0.0937 -0.9375,-0.0937 -1.29688,0 -2.03125,0.84375 -0.71875,0.82812 -0.71875,2.60937 z m 16.83541,-0.57812 q 0,0.34375 -0.0156,0.57812 0,0.21875 -0.0312,0.42188 h -6.42188 q 0,1.40625 0.78125,2.15625 0.79688,0.75 2.26563,0.75 0.40625,0 0.79687,-0.0312 0.40625,-0.0312 0.78125,-0.0781 0.375,-0.0625 0.71875,-0.125 0.34375,-0.0781 0.625,-0.15625 v 1.29688 q -0.64062,0.1875 -1.46875,0.29687 -0.8125,0.10938 -1.6875,0.10938 -1.17187,0 -2.01562,-0.3125 -0.84375,-0.3125 -1.39063,-0.92188 -0.54687,-0.60937 -0.8125,-1.48437 -0.25,-0.875 -0.25,-2 0,-0.95313 0.28125,-1.8125 0.28125,-0.85938 0.8125,-1.51563 0.53125,-0.65625 1.29688,-1.03125 0.78125,-0.39062 1.76562,-0.39062 0.95313,0 1.6875,0.3125 0.75,0.29687 1.25,0.84375 0.5,0.54687 0.76563,1.34375 0.26562,0.78125 0.26562,1.75 z m -1.65625,-0.21875 q 0.0312,-0.60938 -0.125,-1.10938 -0.14062,-0.51562 -0.45312,-0.875 -0.29688,-0.375 -0.75,-0.57812 -0.45313,-0.20313 -1.0625,-0.20313 -0.51563,0 -0.95313,0.20313 -0.42187,0.20312 -0.73437,0.5625 -0.29688,0.35937 -0.5,0.875 -0.1875,0.51562 -0.23438,1.125 z m 11.28855,4.9375 q -0.625,0.25 -1.28125,0.35937 -0.64063,0.10938 -1.32813,0.10938 -2.17187,0 -3.34375,-1.17188 -1.17187,-1.17187 -1.17187,-3.4375 0,-1.07812 0.32812,-1.95312 0.34375,-0.89063 0.95313,-1.51563 0.60937,-0.64062 1.45312,-0.98437 0.85938,-0.34375 1.875,-0.34375 0.71875,0 1.32813,0.10937 0.625,0.0937 1.1875,0.32813 v 1.51562 q -0.59375,-0.3125 -1.21875,-0.45312 -0.60938,-0.14063 -1.26563,-0.14063 -0.60937,0 -1.15625,0.23438 -0.53125,0.23437 -0.9375,0.67187 -0.40625,0.42188 -0.65625,1.0625 -0.23437,0.625 -0.23437,1.42188 0,1.65625 0.79687,2.48437 0.8125,0.8125 2.25,0.8125 0.64063,0 1.25,-0.14062 0.60938,-0.14063 1.17188,-0.4375 z m 11.11667,-4.29688 q 0,1.0625 -0.3125,1.95313 -0.29688,0.89062 -0.85938,1.53125 -0.5625,0.625 -1.375,0.96875 -0.8125,0.34375 -1.84375,0.34375 -0.98437,0 -1.76562,-0.29688 -0.76563,-0.3125 -1.3125,-0.89062 -0.54688,-0.59375 -0.82813,-1.46875 -0.28125,-0.875 -0.28125,-2.01563 0,-1.0625 0.29688,-1.9375 0.29687,-0.89062 0.85937,-1.51562 0.5625,-0.64063 1.375,-0.98438 0.8125,-0.35937 1.84375,-0.35937 0.98438,0 1.76563,0.3125 0.78125,0.29687 1.3125,0.89062 0.54687,0.57813 0.82812,1.45313 0.29688,0.875 0.29688,2.01562 z m -1.625,0.0625 q 0,-0.84375 -0.1875,-1.46875 -0.1875,-0.64062 -0.53125,-1.0625 -0.34375,-0.42187 -0.84375,-0.64062 -0.5,-0.21875 -1.10938,-0.21875 -0.70312,0 -1.21875,0.28125 -0.5,0.28125 -0.82812,0.75 -0.3125,0.45312 -0.46875,1.07812 -0.15625,0.60938 -0.15625,1.28125 0,0.85938 0.1875,1.5 0.1875,0.625 0.53125,1.04688 0.35937,0.42187 0.84375,0.64062 0.5,0.21875 1.10937,0.21875 0.71875,0 1.21875,-0.28125 0.5,-0.28125 0.82813,-0.73437 0.32812,-0.46875 0.46875,-1.07813 0.15625,-0.625 0.15625,-1.3125 z m 4.28854,-4.5625 h 1.45313 l 0.0469,1.6875 q 0.8125,-0.98437 1.59375,-1.42187 0.79688,-0.4375 1.59375,-0.4375 1.42188,0 2.15625,0.92187 0.73438,0.92188 0.67188,2.73438 h -1.59375 q 0.0156,-1.20313 -0.35938,-1.73438 -0.375,-0.54687 -1.10937,-0.54687 -0.3125,0 -0.64063,0.10937 -0.32812,0.10938 -0.67187,0.35938 -0.32813,0.25 -0.71875,0.64062 -0.375,0.39063 -0.8125,0.95313 v 5.875 h -1.60938 z m 18.67917,12.875 h -10.25 v -1.3125 h 10.25 z m 9.42917,-8.375 q 0,1.0625 -0.3125,1.95313 -0.29688,0.89062 -0.85938,1.53125 -0.5625,0.625 -1.375,0.96875 -0.8125,0.34375 -1.84375,0.34375 -0.98437,0 -1.76562,-0.29688 -0.76563,-0.3125 -1.3125,-0.89062 -0.54688,-0.59375 -0.82813,-1.46875 -0.28125,-0.875 -0.28125,-2.01563 0,-1.0625 0.29688,-1.9375 0.29687,-0.89062 0.85937,-1.51562 0.5625,-0.64063 1.375,-0.98438 0.8125,-0.35937 1.84375,-0.35937 0.98438,0 1.76563,0.3125 0.78125,0.29687 1.3125,0.89062 0.54687,0.57813 0.82812,1.45313 0.29688,0.875 0.29688,2.01562 z m -1.625,0.0625 q 0,-0.84375 -0.1875,-1.46875 -0.1875,-0.64062 -0.53125,-1.0625 -0.34375,-0.42187 -0.84375,-0.64062 -0.5,-0.21875 -1.10938,-0.21875 -0.70312,0 -1.21875,0.28125 -0.5,0.28125 -0.82812,0.75 -0.3125,0.45312 -0.46875,1.07812 -0.15625,0.60938 -0.15625,1.28125 0,0.85938 0.1875,1.5 0.1875,0.625 0.53125,1.04688 0.35937,0.42187 0.84375,0.64062 0.5,0.21875 1.10937,0.21875 0.71875,0 1.21875,-0.28125 0.5,-0.28125 0.82813,-0.73437 0.32812,-0.46875 0.46875,-1.07813 0.15625,-0.625 0.15625,-1.3125 z m 11.27292,4.57813 h -1.42188 l -0.0625,-1.46875 q -0.40625,0.46875 -0.78125,0.78125 -0.35937,0.3125 -0.73437,0.51562 -0.35938,0.1875 -0.73438,0.25 -0.35937,0.0781 -0.76562,0.0781 -1.42188,0 -2.14063,-0.82813 -0.71875,-0.82812 -0.71875,-2.5 v -5.96875 h 1.59375 v 5.84375 q 0,2.10938 1.57813,2.10938 0.29687,0 0.5625,-0.0781 0.28125,-0.0937 0.57812,-0.3125 0.3125,-0.21875 0.65625,-0.57812 0.35938,-0.35938 0.79688,-0.92188 v -6.0625 h 1.59375 z m 10.27295,-0.125 q -0.53125,0.14062 -1.10938,0.1875 -0.57812,0.0625 -1.17187,0.0625 -1.71875,0 -2.5625,-0.78125 -0.84375,-0.78125 -0.84375,-2.39063 v -4.76562 h -2.56253 v -1.32813 h 2.56253 v -2.51562 l 1.57812,-0.40625 v 2.92187 h 4.10938 v 1.32813 h -4.10938 v 4.64062 q 0,0.98438 0.51563,1.46875 0.53125,0.48438 1.54687,0.48438 0.4375,0 0.95313,-0.0625 0.53125,-0.0625 1.09375,-0.21875 z m 2.42913,-4.25 q 0,-1.17188 0.3125,-2.07813 0.3125,-0.90625 0.90625,-1.53125 0.59375,-0.625 1.40625,-0.9375 0.82813,-0.32812 1.84375,-0.32812 0.4375,0 0.85938,0.0625 0.42187,0.0469 0.82812,0.15625 v -3.84375 h 1.59375 v 12.875 h -1.42187 l -0.0469,-1.73438 q -0.67187,0.96875 -1.45312,1.4375 -0.76563,0.45313 -1.67188,0.45313 -0.78125,0 -1.375,-0.3125 -0.59375,-0.32813 -1,-0.92188 -0.39062,-0.60937 -0.59375,-1.4375 -0.1875,-0.84375 -0.1875,-1.85937 z m 1.60938,-0.10938 q 0,1.65625 0.48437,2.48438 0.5,0.8125 1.39063,0.8125 0.59375,0 1.26562,-0.53125 0.67188,-0.54688 1.40625,-1.60938 v -4.23437 q -0.39062,-0.1875 -0.85937,-0.28125 -0.46875,-0.0937 -0.9375,-0.0937 -1.29688,0 -2.03125,0.84375 -0.71875,0.82812 -0.71875,2.60937 z m 17.06982,-0.15625 q 0,1.0625 -0.3125,1.95313 -0.29687,0.89062 -0.85937,1.53125 -0.5625,0.625 -1.375,0.96875 -0.8125,0.34375 -1.84375,0.34375 -0.98438,0 -1.76563,-0.29688 -0.76562,-0.3125 -1.3125,-0.89062 -0.54687,-0.59375 -0.82812,-1.46875 -0.28125,-0.875 -0.28125,-2.01563 0,-1.0625 0.29687,-1.9375 0.29688,-0.89062 0.85938,-1.51562 0.5625,-0.64063 1.375,-0.98438 0.8125,-0.35937 1.84375,-0.35937 0.98437,0 1.76562,0.3125 0.78125,0.29687 1.3125,0.89062 0.54688,0.57813 0.82813,1.45313 0.29687,0.875 0.29687,2.01562 z m -1.625,0.0625 q 0,-0.84375 -0.1875,-1.46875 -0.1875,-0.64062 -0.53125,-1.0625 -0.34375,-0.42187 -0.84375,-0.64062 -0.5,-0.21875 -1.10937,-0.21875 -0.70313,0 -1.21875,0.28125 -0.5,0.28125 -0.82813,0.75 -0.3125,0.45312 -0.46875,1.07812 -0.15625,0.60938 -0.15625,1.28125 0,0.85938 0.1875,1.5 0.1875,0.625 0.53125,1.04688 0.35938,0.42187 0.84375,0.64062 0.5,0.21875 1.10938,0.21875 0.71875,0 1.21875,-0.28125 0.5,-0.28125 0.82812,-0.73437 0.32813,-0.46875 0.46875,-1.07813 0.15625,-0.625 0.15625,-1.3125 z m 11.88227,-0.0625 q 0,1.0625 -0.3125,1.95313 -0.29688,0.89062 -0.85938,1.53125 -0.5625,0.625 -1.375,0.96875 -0.8125,0.34375 -1.84375,0.34375 -0.98437,0 -1.76562,-0.29688 -0.76563,-0.3125 -1.3125,-0.89062 -0.54688,-0.59375 -0.82813,-1.46875 -0.28125,-0.875 -0.28125,-2.01563 0,-1.0625 0.29688,-1.9375 0.29687,-0.89062 0.85937,-1.51562 0.5625,-0.64063 1.375,-0.98438 0.8125,-0.35937 1.84375,-0.35937 0.98438,0 1.76563,0.3125 0.78125,0.29687 1.3125,0.89062 0.54687,0.57813 0.82812,1.45313 0.29688,0.875 0.29688,2.01562 z m -1.625,0.0625 q 0,-0.84375 -0.1875,-1.46875 -0.1875,-0.64062 -0.53125,-1.0625 -0.34375,-0.42187 -0.84375,-0.64062 -0.5,-0.21875 -1.10938,-0.21875 -0.70312,0 -1.21875,0.28125 -0.5,0.28125 -0.82812,0.75 -0.3125,0.45312 -0.46875,1.07812 -0.15625,0.60938 -0.15625,1.28125 0,0.85938 0.1875,1.5 0.1875,0.625 0.53125,1.04688 0.35937,0.42187 0.84375,0.64062 0.5,0.21875 1.10937,0.21875 0.71875,0 1.21875,-0.28125 0.5,-0.28125 0.82813,-0.73437 0.32812,-0.46875 0.46875,-1.07813 0.15625,-0.625 0.15625,-1.3125 z m 4.28857,-4.5625 h 1.45313 l 0.0469,1.6875 q 0.8125,-0.98437 1.59375,-1.42187 0.79688,-0.4375 1.59375,-0.4375 1.42188,0 2.15625,0.92187 0.73438,0.92188 0.67188,2.73438 h -1.59375 q 0.0156,-1.20313 -0.35938,-1.73438 -0.375,-0.54687 -1.10937,-0.54687 -0.3125,0 -0.64063,0.10937 -0.32812,0.10938 -0.67187,0.35938 -0.32813,0.25 -0.71875,0.64062 -0.375,0.39063 -0.8125,0.95313 v 5.875 h -1.60938 z m 18.67914,12.875 h -10.25 v -1.3125 h 10.25 z m 1.83545,-12.875 h 1.45312 l 0.0469,1.6875 q 0.8125,-0.98437 1.59375,-1.42187 0.79687,-0.4375 1.59375,-0.4375 1.42187,0 2.15625,0.92187 0.73437,0.92188 0.67187,2.73438 h -1.59375 q 0.0156,-1.20313 -0.35937,-1.73438 -0.375,-0.54687 -1.10938,-0.54687 -0.3125,0 -0.64062,0.10937 -0.32813,0.10938 -0.67188,0.35938 -0.32812,0.25 -0.71875,0.64062 -0.375,0.39063 -0.8125,0.95313 v 5.875 h -1.60937 z m 17.24164,9.14063 h -1.42188 l -0.0625,-1.46875 q -0.40625,0.46875 -0.78125,0.78125 -0.35937,0.3125 -0.73437,0.51562 -0.35938,0.1875 -0.73438,0.25 -0.35937,0.0781 -0.76562,0.0781 -1.42188,0 -2.14063,-0.82813 -0.71875,-0.82812 -0.71875,-2.5 v -5.96875 h 1.59375 v 5.84375 q 0,2.10938 1.57813,2.10938 0.29687,0 0.5625,-0.0781 0.28125,-0.0937 0.57812,-0.3125 0.3125,-0.21875 0.65625,-0.57812 0.35938,-0.35938 0.79688,-0.92188 v -6.0625 h 1.59375 z m 10.14795,-2.5 q 0,0.48437 -0.17188,0.875 -0.15625,0.375 -0.4375,0.67187 -0.28125,0.29688 -0.65625,0.51563 -0.375,0.20312 -0.79687,0.34375 -0.42188,0.125 -0.875,0.1875 -0.45313,0.0625 -0.875,0.0625 -0.92188,0 -1.70313,-0.0781 -0.78125,-0.0781 -1.53125,-0.26562 v -1.45313 q 0.79688,0.23438 1.59375,0.35938 0.79688,0.10937 1.57813,0.10937 1.14062,0 1.6875,-0.3125 0.54687,-0.3125 0.54687,-0.89062 0,-0.23438 -0.0937,-0.42188 -0.0781,-0.20312 -0.3125,-0.375 -0.21875,-0.1875 -0.70312,-0.375 -0.48438,-0.20312 -1.3125,-0.4375 -0.60938,-0.1875 -1.14063,-0.42187 -0.51562,-0.23438 -0.90625,-0.54688 -0.375,-0.32812 -0.59375,-0.75 -0.21875,-0.42187 -0.21875,-1.01562 0,-0.375 0.17188,-0.82813 0.17187,-0.45312 0.59375,-0.84375 0.4375,-0.40625 1.17187,-0.65625 0.73438,-0.26562 1.8125,-0.26562 0.54688,0 1.20313,0.0625 0.65625,0.0625 1.35937,0.20312 v 1.40625 q -0.75,-0.17187 -1.42187,-0.25 -0.65625,-0.0937 -1.15625,-0.0937 -0.59375,0 -1,0.0937 -0.39063,0.0781 -0.65625,0.25 -0.25,0.15625 -0.35938,0.375 -0.10937,0.20313 -0.10937,0.45313 0,0.25 0.0937,0.45312 0.10937,0.1875 0.35937,0.375 0.26563,0.1875 0.71875,0.375 0.46875,0.1875 1.21875,0.40625 0.8125,0.23438 1.35938,0.5 0.5625,0.25 0.90625,0.57813 0.35937,0.3125 0.5,0.71875 0.15625,0.40625 0.15625,0.90625 z m 10.38226,2.375 q -0.53125,0.14062 -1.10938,0.1875 -0.57812,0.0625 -1.17187,0.0625 -1.71875,0 -2.5625,-0.78125 -0.84375,-0.78125 -0.84375,-2.39063 v -4.76562 h -2.5625 v -1.32813 h 2.5625 v -2.51562 l 1.57812,-0.40625 v 2.92187 h 4.10938 v 1.32813 h -4.10938 v 4.64062 q 0,0.98438 0.51563,1.46875 0.53125,0.48438 1.54687,0.48438 0.4375,0 0.95313,-0.0625 0.53125,-0.0625 1.09375,-0.21875 z m 6.00732,-7.70313 h -2.70312 v -1.3125 h 4.29687 v 7.8125 h 2.73438 v 1.32813 h -7.34375 v -1.32813 h 3.01562 z m 0.54688,-5.15625 q 0.26562,0 0.48437,0.0937 0.23438,0.0937 0.40625,0.28125 0.17188,0.17188 0.26563,0.39063 0.0937,0.21875 0.0937,0.48437 0,0.25 -0.0937,0.48438 -0.0937,0.23437 -0.26563,0.40625 -0.17187,0.17187 -0.40625,0.26562 -0.21875,0.0937 -0.48437,0.0937 -0.26563,0 -0.5,-0.0937 -0.21875,-0.0937 -0.39063,-0.26562 -0.15625,-0.17188 -0.26562,-0.40625 -0.0937,-0.23438 -0.0937,-0.48438 0,-0.26562 0.0937,-0.48437 0.10937,-0.21875 0.26562,-0.39063 0.17188,-0.1875 0.39063,-0.28125 0.23437,-0.0937 0.5,-0.0937 z m 13.69476,12.64063 q -0.625,0.25 -1.28125,0.35937 -0.64062,0.10938 -1.32812,0.10938 -2.17188,0 -3.34375,-1.17188 -1.17188,-1.17187 -1.17188,-3.4375 0,-1.07812 0.32813,-1.95312 0.34375,-0.89063 0.95312,-1.51563 0.60938,-0.64062 1.45313,-0.98437 0.85937,-0.34375 1.875,-0.34375 0.71875,0 1.32812,0.10937 0.625,0.0937 1.1875,0.32813 v 1.51562 q -0.59375,-0.3125 -1.21875,-0.45312 -0.60937,-0.14063 -1.26562,-0.14063 -0.60938,0 -1.15625,0.23438 -0.53125,0.23437 -0.9375,0.67187 -0.40625,0.42188 -0.65625,1.0625 -0.23438,0.625 -0.23438,1.42188 0,1.65625 0.79688,2.48437 0.8125,0.8125 2.25,0.8125 0.64062,0 1.25,-0.14062 0.60937,-0.14063 1.17187,-0.4375 z"
         fill-rule="nonzero"
         id="path201" />
      <path
         fill="#010000"
         fill-opacity="0"
         d="m 633.03564,302.25342 v 0 21.84457 0 z"
         fill-rule="nonzero"
         id="path203" />
      <path
         fill="#000000"
         fill-opacity="0"
         d="m 229.5406,78.89033 h 156.063 v 42.01575 h -156.063 z"
         fill-rule="evenodd"
         id="path205" />
      <path
         fill="#ffffff"
         d="m 238.5406,87.89033 h 92.31566 v 22.39999 H 238.5406 Z"
         fill-rule="nonzero"
         id="path207" />
      <path
         fill="#000000"
         fill-opacity="0"
         d="m 238.5406,91.95478 h 92.31566 v 21.84457 H 238.5406 Z"
         fill-rule="nonzero"
         id="path209" />
      <path
         fill="#000000"
         d="m 247.3531,105.81033 h -1.59375 v -5.843754 q 0,-1.046875 -0.39063,-1.5625 -0.39062,-0.53125 -1.14062,-0.53125 -0.3125,0 -0.59375,0.09375 -0.28125,0.07813 -0.57813,0.296875 -0.29687,0.203125 -0.65625,0.578125 -0.35937,0.359375 -0.8125,0.90625 v 6.062504 h -1.59375 V 92.935326 h 1.59375 v 3.734375 l -0.0625,1.4375 q 0.375,-0.453125 0.73438,-0.75 0.35937,-0.3125 0.71875,-0.5 0.35937,-0.1875 0.73437,-0.265625 0.375,-0.09375 0.78125,-0.09375 1.35938,0 2.10938,0.84375 0.75,0.828125 0.75,2.5 z m 8.77293,0 -0.0312,-1.23438 q -0.75001,0.75 -1.51564,1.07813 -0.76562,0.3125 -1.625,0.3125 -0.78125,0 -1.34375,-0.1875 -0.54687,-0.20313 -0.90625,-0.54688 -0.35937,-0.35937 -0.53125,-0.82812 -0.15625,-0.48438 -0.15625,-1.03125 0,-1.375 1.01563,-2.15625 1.03125,-0.78125 3.03125,-0.78125 h 1.89062 v -0.796879 q 0,-0.8125 -0.51562,-1.296875 -0.51563,-0.5 -1.57813,-0.5 -0.78125,0 -1.53125,0.1875 -0.75,0.171875 -1.54687,0.484375 v -1.4375 q 0.29687,-0.109375 0.65625,-0.203125 0.375,-0.109375 0.78125,-0.1875 0.40625,-0.07813 0.85937,-0.125 0.45313,-0.0625 0.90625,-0.0625 0.82813,0 1.48438,0.1875 0.67189,0.171875 1.12501,0.546875 0.46875,0.375 0.70313,0.953125 0.25,0.5625 0.25,1.328125 v 6.296879 z m -0.17189,-4.15625 h -2.01562 q -0.57813,0 -1.01563,0.125 -0.42187,0.10937 -0.70312,0.32812 -0.26563,0.21875 -0.40625,0.53125 -0.125,0.29688 -0.125,0.67188 0,0.26562 0.0781,0.51562 0.0781,0.23438 0.26563,0.42188 0.1875,0.1875 0.46875,0.29687 0.29687,0.10938 0.71875,0.10938 0.54687,0 1.25,-0.32813 0.70312,-0.34375 1.48437,-1.0625 z m 7.67919,-3.671879 h -2.70313 v -1.3125 h 4.29688 v 7.812499 h 2.73437 v 1.32813 h -7.34375 v -1.32813 h 3.01563 z m 0.54687,-5.15625 q 0.26563,0 0.48438,0.09375 0.23437,0.09375 0.40625,0.28125 0.17187,0.171875 0.26562,0.390625 0.0937,0.21875 0.0937,0.484375 0,0.25 -0.0937,0.484375 -0.0937,0.234375 -0.26562,0.40625 -0.17188,0.171875 -0.40625,0.265625 -0.21875,0.09375 -0.48438,0.09375 -0.26562,0 -0.5,-0.09375 -0.21875,-0.09375 -0.39062,-0.265625 -0.15625,-0.171875 -0.26563,-0.40625 -0.0937,-0.234375 -0.0937,-0.484375 0,-0.265625 0.0937,-0.484375 0.10938,-0.21875 0.26563,-0.390625 0.17187,-0.1875 0.39062,-0.28125 0.23438,-0.09375 0.5,-0.09375 z m 6.96042,3.84375 h 1.45313 l 0.0469,1.6875 q 0.8125,-0.984375 1.59375,-1.421875 0.79688,-0.4375 1.59375,-0.4375 1.42188,0 2.15625,0.921875 0.73438,0.921875 0.67188,2.734379 h -1.59375 q 0.0156,-1.203129 -0.35938,-1.734379 -0.375,-0.546875 -1.10937,-0.546875 -0.3125,0 -0.64063,0.109375 -0.32812,0.109375 -0.67187,0.359375 -0.32813,0.25 -0.71875,0.640625 -0.375,0.390625 -0.8125,0.953125 v 5.875004 h -1.60938 z m 18.67917,12.874999 h -10.25 v -1.3125 h 10.25 z m 9.28854,-8.46875 q 0,1.14063 -0.32812,2.04688 -0.3125,0.89062 -0.89063,1.51562 -0.57812,0.60938 -1.40625,0.95313 -0.82812,0.32812 -1.85937,0.32812 -0.8125,0 -1.67188,-0.15625 -0.84375,-0.15625 -1.67187,-0.48437 V 92.935326 h 1.59375 v 3.546875 l -0.0781,1.6875 q 0.6875,-0.90625 1.45313,-1.28125 0.78125,-0.390625 1.6875,-0.390625 0.78125,0 1.375,0.328125 0.59375,0.328125 0.98437,0.9375 0.40625,0.59375 0.60938,1.4375 0.20312,0.828129 0.20312,1.874999 z m -1.625,0.0625 q 0,-0.71875 -0.10937,-1.312499 -0.10938,-0.609375 -0.34375,-1.03125 -0.21875,-0.421875 -0.57813,-0.65625 -0.34375,-0.25 -0.84375,-0.25 -0.29687,0 -0.60937,0.09375 -0.3125,0.09375 -0.64063,0.328125 -0.32812,0.21875 -0.70312,0.59375 -0.35938,0.359375 -0.78125,0.90625 v 4.437504 q 0.45312,0.17187 0.9375,0.28125 0.48437,0.10937 0.92187,0.10937 0.54688,0 1.04688,-0.17187 0.5,-0.17188 0.875,-0.57813 0.375,-0.40625 0.59375,-1.07812 0.23437,-0.67188 0.23437,-1.67188 z m 12.02292,0.0312 q 0,1.0625 -0.3125,1.95313 -0.29687,0.89062 -0.85937,1.53125 -0.5625,0.625 -1.375,0.96875 -0.8125,0.34375 -1.84375,0.34375 -0.98438,0 -1.76563,-0.29688 -0.76562,-0.3125 -1.3125,-0.89062 -0.54687,-0.59375 -0.82812,-1.46875 -0.28125,-0.875 -0.28125,-2.01563 0,-1.0625 0.29687,-1.937499 0.29688,-0.890625 0.85938,-1.515625 0.5625,-0.640625 1.375,-0.984375 0.8125,-0.359375 1.84375,-0.359375 0.98437,0 1.76562,0.3125 0.78125,0.296875 1.3125,0.890625 0.54688,0.578125 0.82813,1.453125 0.29687,0.875004 0.29687,2.015624 z m -1.625,0.0625 q 0,-0.84375 -0.1875,-1.468749 -0.1875,-0.640625 -0.53125,-1.0625 -0.34375,-0.421875 -0.84375,-0.640625 -0.5,-0.21875 -1.10937,-0.21875 -0.70313,0 -1.21875,0.28125 -0.5,0.28125 -0.82813,0.75 -0.3125,0.453125 -0.46875,1.078125 -0.15625,0.609379 -0.15625,1.281249 0,0.85938 0.1875,1.5 0.1875,0.625 0.53125,1.04688 0.35938,0.42187 0.84375,0.64062 0.5,0.21875 1.10938,0.21875 0.71875,0 1.21875,-0.28125 0.5,-0.28125 0.82812,-0.73437 0.32813,-0.46875 0.46875,-1.07813 0.15625,-0.625 0.15625,-1.3125 z m 11.27292,4.57813 h -1.59375 v -5.843754 q 0,-1.046875 -0.39062,-1.5625 -0.39063,-0.53125 -1.14063,-0.53125 -0.3125,0 -0.59375,0.09375 -0.28125,0.07813 -0.57812,0.296875 -0.29688,0.203125 -0.65625,0.578125 -0.35938,0.359375 -0.8125,0.90625 v 6.062504 H 311.7948 V 92.935326 h 1.59375 v 3.734375 l -0.0625,1.4375 q 0.375,-0.453125 0.73437,-0.75 0.35938,-0.3125 0.71875,-0.5 0.35938,-0.1875 0.73438,-0.265625 0.375,-0.09375 0.78125,-0.09375 1.35937,0 2.10937,0.84375 0.75,0.828125 0.75,2.5 z m 10.86667,-4.64063 q 0,1.0625 -0.3125,1.95313 -0.29687,0.89062 -0.85937,1.53125 -0.5625,0.625 -1.375,0.96875 -0.8125,0.34375 -1.84375,0.34375 -0.98438,0 -1.76563,-0.29688 -0.76562,-0.3125 -1.3125,-0.89062 -0.54687,-0.59375 -0.82812,-1.46875 -0.28125,-0.875 -0.28125,-2.01563 0,-1.0625 0.29687,-1.937499 0.29688,-0.890625 0.85938,-1.515625 0.5625,-0.640625 1.375,-0.984375 0.8125,-0.359375 1.84375,-0.359375 0.98437,0 1.76562,0.3125 0.78125,0.296875 1.3125,0.890625 0.54688,0.578125 0.82813,1.453125 0.29687,0.875004 0.29687,2.015624 z m -1.625,0.0625 q 0,-0.84375 -0.1875,-1.468749 -0.1875,-0.640625 -0.53125,-1.0625 -0.34375,-0.421875 -0.84375,-0.640625 -0.5,-0.21875 -1.10937,-0.21875 -0.70313,0 -1.21875,0.28125 -0.5,0.28125 -0.82813,0.75 -0.3125,0.453125 -0.46875,1.078125 -0.15625,0.609379 -0.15625,1.281249 0,0.85938 0.1875,1.5 0.1875,0.625 0.53125,1.04688 0.35938,0.42187 0.84375,0.64062 0.5,0.21875 1.10938,0.21875 0.71875,0 1.21875,-0.28125 0.5,-0.28125 0.82812,-0.73437 0.32813,-0.46875 0.46875,-1.07813 0.15625,-0.625 0.15625,-1.3125 z"
         fill-rule="nonzero"
         id="path211" />
      <path
         fill="#010000"
         fill-opacity="0"
         d="m 330.85626,91.95478 v 0 21.84457 0 z"
         fill-rule="nonzero"
         id="path213" />
      <path
         fill="#000000"
         fill-opacity="0"
         d="m 231.07611,259.1404 h 221.6063 v 42.01575 h -221.6063 z"
         fill-rule="evenodd"
         id="path215" />
      <path
         fill="#ffffff"
         d="m 240.07611,268.1404 h 194.88858 v 22.39999 H 240.07611 Z"
         fill-rule="nonzero"
         id="path217" />
      <path
         fill="#000000"
         fill-opacity="0"
         d="m 240.07611,272.20486 h 194.88858 v 21.84457 H 240.07611 Z"
         fill-rule="nonzero"
         id="path219" />
      <path
         fill="#000000"
         d="m 248.77924,283.56042 q 0,0.48438 -0.17188,0.875 -0.15625,0.375 -0.4375,0.67188 -0.28125,0.29687 -0.65625,0.51562 -0.375,0.20313 -0.79687,0.34375 -0.42188,0.125 -0.875,0.1875 -0.45313,0.0625 -0.875,0.0625 -0.92188,0 -1.70313,-0.0781 -0.78125,-0.0781 -1.53125,-0.26563 v -1.45312 q 0.79688,0.23437 1.59375,0.35937 0.79688,0.10938 1.57813,0.10938 1.14062,0 1.6875,-0.3125 0.54687,-0.3125 0.54687,-0.89063 0,-0.23437 -0.0937,-0.42187 -0.0781,-0.20313 -0.3125,-0.375 -0.21875,-0.1875 -0.70312,-0.375 -0.48438,-0.20313 -1.3125,-0.4375 -0.60938,-0.1875 -1.14063,-0.42188 -0.51562,-0.23437 -0.90625,-0.54687 -0.375,-0.32813 -0.59375,-0.75 -0.21875,-0.42188 -0.21875,-1.01563 0,-0.375 0.17188,-0.82812 0.17187,-0.45313 0.59375,-0.84375 0.4375,-0.40625 1.17187,-0.65625 0.73438,-0.26563 1.8125,-0.26563 0.54688,0 1.20313,0.0625 0.65625,0.0625 1.35937,0.20313 v 1.40625 q -0.75,-0.17188 -1.42187,-0.25 -0.65625,-0.0937 -1.15625,-0.0937 -0.59375,0 -1,0.0937 -0.39063,0.0781 -0.65625,0.25 -0.25,0.15625 -0.35938,0.375 -0.10937,0.20312 -0.10937,0.45312 0,0.25 0.0937,0.45313 0.10937,0.1875 0.35937,0.375 0.26563,0.1875 0.71875,0.375 0.46875,0.1875 1.21875,0.40625 0.8125,0.23437 1.35938,0.5 0.5625,0.25 0.90625,0.57812 0.35937,0.3125 0.5,0.71875 0.15625,0.40625 0.15625,0.90625 z m 10.38229,2.375 q -0.53125,0.14063 -1.10937,0.1875 -0.57813,0.0625 -1.17188,0.0625 -1.71875,0 -2.5625,-0.78125 -0.84375,-0.78125 -0.84375,-2.39062 v -4.76563 h -2.5625 v -1.32812 h 2.5625 v -2.51563 l 1.57813,-0.40625 v 2.92188 h 4.10937 v 1.32812 h -4.10937 v 4.64063 q 0,0.98437 0.51562,1.46875 0.53125,0.48437 1.54688,0.48437 0.4375,0 0.95312,-0.0625 0.53125,-0.0625 1.09375,-0.21875 z m 11.02292,-9.01562 -3.10937,8.17187 q -0.48438,1.25 -1,2.15625 -0.51563,0.90625 -1.125,1.48438 -0.60938,0.57812 -1.34375,0.84375 -0.73438,0.28125 -1.625,0.28125 -0.25,0 -0.4375,-0.0156 -0.1875,-0.0156 -0.42188,-0.0312 v -1.4375 q 0.20313,0.0312 0.4375,0.0469 0.25,0.0312 0.5,0.0312 0.4375,0 0.8125,-0.14063 0.39063,-0.125 0.71875,-0.40625 0.34375,-0.28125 0.65625,-0.75 0.3125,-0.45312 0.59375,-1.09375 l -3.65625,-9.14062 h 1.8125 l 2.3125,6.04687 0.46875,1.42188 0.53125,-1.46875 2.14063,-6 z m 5.24167,-2.42188 H 272.723 v -1.3125 h 4.29687 v 11.54688 h 2.73438 v 1.32812 h -7.34375 v -1.32812 h 3.01562 z m 14.86667,6.5 q 0,0.34375 -0.0156,0.57813 0,0.21875 -0.0312,0.42187 h -6.42188 q 0,1.40625 0.78125,2.15625 0.79688,0.75 2.26563,0.75 0.40625,0 0.79687,-0.0312 0.40625,-0.0312 0.78125,-0.0781 0.375,-0.0625 0.71875,-0.125 0.34375,-0.0781 0.625,-0.15625 v 1.29687 q -0.64062,0.1875 -1.46875,0.29688 -0.8125,0.10937 -1.6875,0.10937 -1.17187,0 -2.01562,-0.3125 -0.84375,-0.3125 -1.39063,-0.92187 -0.54687,-0.60938 -0.8125,-1.48438 -0.25,-0.875 -0.25,-2 0,-0.95312 0.28125,-1.8125 0.28125,-0.85937 0.8125,-1.51562 0.53125,-0.65625 1.29688,-1.03125 0.78125,-0.39063 1.76562,-0.39063 0.95313,0 1.6875,0.3125 0.75,0.29688 1.25,0.84375 0.5,0.54688 0.76563,1.34375 0.26562,0.78125 0.26562,1.75 z m -1.65625,-0.21875 q 0.0312,-0.60937 -0.125,-1.10937 -0.14062,-0.51563 -0.45312,-0.875 -0.29688,-0.375 -0.75,-0.57813 -0.45313,-0.20312 -1.0625,-0.20312 -0.51563,0 -0.95313,0.20312 -0.42187,0.20313 -0.73437,0.5625 -0.29688,0.35938 -0.5,0.875 -0.1875,0.51563 -0.23438,1.125 z m 12.97604,9.01563 h -10.25 v -1.3125 h 10.25 z m 8.71042,-6.23438 q 0,0.48438 -0.17187,0.875 -0.15625,0.375 -0.4375,0.67188 -0.28125,0.29687 -0.65625,0.51562 -0.375,0.20313 -0.79688,0.34375 -0.42187,0.125 -0.875,0.1875 -0.45312,0.0625 -0.875,0.0625 -0.92187,0 -1.70312,-0.0781 -0.78125,-0.0781 -1.53125,-0.26563 v -1.45312 q 0.79687,0.23437 1.59375,0.35937 0.79687,0.10938 1.57812,0.10938 1.14063,0 1.6875,-0.3125 0.54688,-0.3125 0.54688,-0.89063 0,-0.23437 -0.0937,-0.42187 -0.0781,-0.20313 -0.3125,-0.375 -0.21875,-0.1875 -0.70313,-0.375 -0.48437,-0.20313 -1.3125,-0.4375 -0.60937,-0.1875 -1.14062,-0.42188 -0.51563,-0.23437 -0.90625,-0.54687 -0.375,-0.32813 -0.59375,-0.75 -0.21875,-0.42188 -0.21875,-1.01563 0,-0.375 0.17187,-0.82812 0.17188,-0.45313 0.59375,-0.84375 0.4375,-0.40625 1.17188,-0.65625 0.73437,-0.26563 1.8125,-0.26563 0.54687,0 1.20312,0.0625 0.65625,0.0625 1.35938,0.20313 v 1.40625 q -0.75,-0.17188 -1.42188,-0.25 -0.65625,-0.0937 -1.15625,-0.0937 -0.59375,0 -1,0.0937 -0.39062,0.0781 -0.65625,0.25 -0.25,0.15625 -0.35937,0.375 -0.10938,0.20312 -0.10938,0.45312 0,0.25 0.0937,0.45313 0.10938,0.1875 0.35938,0.375 0.26562,0.1875 0.71875,0.375 0.46875,0.1875 1.21875,0.40625 0.8125,0.23437 1.35937,0.5 0.5625,0.25 0.90625,0.57812 0.35938,0.3125 0.5,0.71875 0.15625,0.40625 0.15625,0.90625 z m 10.36667,2.5 h -1.42187 l -0.0625,-1.46875 q -0.40625,0.46875 -0.78125,0.78125 -0.35938,0.3125 -0.73438,0.51563 -0.35937,0.1875 -0.73437,0.25 -0.35938,0.0781 -0.76563,0.0781 -1.42187,0 -2.14062,-0.82812 -0.71875,-0.82813 -0.71875,-2.5 v -5.96875 h 1.59375 v 5.84375 q 0,2.10937 1.57812,2.10937 0.29688,0 0.5625,-0.0781 0.28125,-0.0937 0.57813,-0.3125 0.3125,-0.21875 0.65625,-0.57813 0.35937,-0.35937 0.79687,-0.92187 v -6.0625 h 1.59375 z m 9.42917,0 v -6.5625 q 0,-0.4375 -0.0312,-0.70312 -0.0312,-0.28125 -0.10937,-0.4375 -0.0625,-0.15625 -0.17188,-0.21875 -0.10937,-0.0625 -0.25,-0.0625 -0.1875,0 -0.34375,0.10937 -0.15625,0.10938 -0.34375,0.35938 -0.17187,0.23437 -0.39062,0.64062 -0.20313,0.40625 -0.5,1 v 5.875 h -1.4375 v -6.39062 q 0,-0.5 -0.0312,-0.8125 -0.0312,-0.3125 -0.10938,-0.48438 -0.0625,-0.17187 -0.17187,-0.23437 -0.10938,-0.0625 -0.26563,-0.0625 -0.17187,0 -0.3125,0.0937 -0.14062,0.0781 -0.32812,0.32812 -0.17188,0.23438 -0.39063,0.64063 -0.21875,0.40625 -0.51562,1.04687 v 5.875 h -1.46875 v -9.14062 h 1.21875 l 0.0781,1.73437 q 0.23438,-0.51562 0.45313,-0.875 0.21875,-0.375 0.45312,-0.59375 0.25,-0.21875 0.51563,-0.32812 0.26562,-0.10938 0.59375,-0.10938 0.73437,0 1.10937,0.48438 0.39063,0.48437 0.39063,1.5 0.21875,-0.48438 0.42187,-0.84375 0.21875,-0.375 0.45313,-0.625 0.25,-0.25 0.53125,-0.375 0.29687,-0.14063 0.6875,-0.14063 1.71875,0 1.71875,2.65625 v 6.65625 z m 10.2573,0 v -6.5625 q 0,-0.4375 -0.0312,-0.70312 -0.0312,-0.28125 -0.10938,-0.4375 -0.0625,-0.15625 -0.17187,-0.21875 -0.10938,-0.0625 -0.25,-0.0625 -0.1875,0 -0.34375,0.10937 -0.15625,0.10938 -0.34375,0.35938 -0.17188,0.23437 -0.39063,0.64062 -0.20312,0.40625 -0.5,1 v 5.875 h -1.4375 v -6.39062 q 0,-0.5 -0.0312,-0.8125 -0.0312,-0.3125 -0.10937,-0.48438 -0.0625,-0.17187 -0.17188,-0.23437 -0.10937,-0.0625 -0.26562,-0.0625 -0.17188,0 -0.3125,0.0937 -0.14063,0.0781 -0.32813,0.32812 -0.17187,0.23438 -0.39062,0.64063 -0.21875,0.40625 -0.51563,1.04687 v 5.875 h -1.46875 v -9.14062 h 1.21875 l 0.0781,1.73437 q 0.23437,-0.51562 0.45312,-0.875 0.21875,-0.375 0.45313,-0.59375 0.25,-0.21875 0.51562,-0.32812 0.26563,-0.10938 0.59375,-0.10938 0.73438,0 1.10938,0.48438 0.39062,0.48437 0.39062,1.5 0.21875,-0.48438 0.42188,-0.84375 0.21875,-0.375 0.45312,-0.625 0.25,-0.25 0.53125,-0.375 0.29688,-0.14063 0.6875,-0.14063 1.71875,0 1.71875,2.65625 v 6.65625 z m 11.46041,-5.0625 q 0,0.34375 -0.0156,0.57813 0,0.21875 -0.0312,0.42187 h -6.42188 q 0,1.40625 0.78125,2.15625 0.79688,0.75 2.26563,0.75 0.40625,0 0.79687,-0.0312 0.40625,-0.0312 0.78125,-0.0781 0.375,-0.0625 0.71875,-0.125 0.34375,-0.0781 0.625,-0.15625 v 1.29687 q -0.64062,0.1875 -1.46875,0.29688 -0.8125,0.10937 -1.6875,0.10937 -1.17187,0 -2.01562,-0.3125 -0.84375,-0.3125 -1.39063,-0.92187 -0.54687,-0.60938 -0.8125,-1.48438 -0.25,-0.875 -0.25,-2 0,-0.95312 0.28125,-1.8125 0.28125,-0.85937 0.8125,-1.51562 0.53125,-0.65625 1.29688,-1.03125 0.78125,-0.39063 1.76562,-0.39063 0.95313,0 1.6875,0.3125 0.75,0.29688 1.25,0.84375 0.5,0.54688 0.76563,1.34375 0.26562,0.78125 0.26562,1.75 z m -1.65625,-0.21875 q 0.0312,-0.60937 -0.125,-1.10937 -0.14062,-0.51563 -0.45312,-0.875 -0.29688,-0.375 -0.75,-0.57813 -0.45313,-0.20312 -1.0625,-0.20312 -0.51563,0 -0.95313,0.20312 -0.42187,0.20313 -0.73437,0.5625 -0.29688,0.35938 -0.5,0.875 -0.1875,0.51563 -0.23438,1.125 z m 4.55417,-3.85937 h 1.45313 l 0.0469,1.6875 q 0.8125,-0.98438 1.59375,-1.42188 0.79688,-0.4375 1.59375,-0.4375 1.42188,0 2.15625,0.92188 0.73438,0.92187 0.67188,2.73437 h -1.59375 q 0.0156,-1.20312 -0.35938,-1.73437 -0.375,-0.54688 -1.10937,-0.54688 -0.3125,0 -0.64063,0.10938 -0.32812,0.10937 -0.67187,0.35937 -0.32813,0.25 -0.71875,0.64063 -0.375,0.39062 -0.8125,0.95312 v 5.875 h -1.60938 z m 18.67917,12.875 h -10.25 v -1.3125 h 10.25 z m 8.5698,-4.07813 q -0.625,0.25 -1.28125,0.35938 -0.64063,0.10937 -1.32813,0.10937 -2.17187,0 -3.34375,-1.17187 -1.17187,-1.17188 -1.17187,-3.4375 0,-1.07813 0.32812,-1.95313 0.34375,-0.89062 0.95313,-1.51562 0.60937,-0.64063 1.45312,-0.98438 0.85938,-0.34375 1.875,-0.34375 0.71875,0 1.32813,0.10938 0.625,0.0937 1.1875,0.32812 v 1.51563 q -0.59375,-0.3125 -1.21875,-0.45313 -0.60938,-0.14062 -1.26563,-0.14062 -0.60937,0 -1.15625,0.23437 -0.53125,0.23438 -0.9375,0.67188 -0.40625,0.42187 -0.65625,1.0625 -0.23437,0.625 -0.23437,1.42187 0,1.65625 0.79687,2.48438 0.8125,0.8125 2.25,0.8125 0.64063,0 1.25,-0.14063 0.60938,-0.14062 1.17188,-0.4375 z m 9.02292,0.34375 -0.0312,-1.23437 q -0.75,0.75 -1.51563,1.07812 -0.76562,0.3125 -1.625,0.3125 -0.78125,0 -1.34375,-0.1875 -0.54687,-0.20312 -0.90625,-0.54687 -0.35937,-0.35938 -0.53125,-0.82813 -0.15625,-0.48437 -0.15625,-1.03125 0,-1.375 1.01563,-2.15625 1.03125,-0.78125 3.03125,-0.78125 h 1.89062 v -0.79687 q 0,-0.8125 -0.51562,-1.29688 -0.51563,-0.5 -1.57813,-0.5 -0.78125,0 -1.53125,0.1875 -0.75,0.17188 -1.54687,0.48438 v -1.4375 q 0.29687,-0.10938 0.65625,-0.20313 0.375,-0.10937 0.78125,-0.1875 0.40625,-0.0781 0.85937,-0.125 0.45313,-0.0625 0.90625,-0.0625 0.82813,0 1.48438,0.1875 0.67187,0.17188 1.125,0.54688 0.46875,0.375 0.70312,0.95312 0.25,0.5625 0.25,1.32813 v 6.29687 z m -0.17188,-4.15625 h -2.01562 q -0.57813,0 -1.01563,0.125 -0.42187,0.10938 -0.70312,0.32813 -0.26563,0.21875 -0.40625,0.53125 -0.125,0.29687 -0.125,0.67187 0,0.26563 0.0781,0.51563 0.0781,0.23437 0.26563,0.42187 0.1875,0.1875 0.46875,0.29688 0.29687,0.10937 0.71875,0.10937 0.54687,0 1.25,-0.32812 0.70312,-0.34375 1.48437,-1.0625 z m 11.80417,1.65625 q 0,0.48438 -0.17188,0.875 -0.15625,0.375 -0.4375,0.67188 -0.28125,0.29687 -0.65625,0.51562 -0.375,0.20313 -0.79687,0.34375 -0.42188,0.125 -0.875,0.1875 -0.45313,0.0625 -0.875,0.0625 -0.92188,0 -1.70313,-0.0781 -0.78125,-0.0781 -1.53125,-0.26563 v -1.45312 q 0.79688,0.23437 1.59375,0.35937 0.79688,0.10938 1.57813,0.10938 1.14062,0 1.6875,-0.3125 0.54687,-0.3125 0.54687,-0.89063 0,-0.23437 -0.0937,-0.42187 -0.0781,-0.20313 -0.3125,-0.375 -0.21875,-0.1875 -0.70312,-0.375 -0.48438,-0.20313 -1.3125,-0.4375 -0.60938,-0.1875 -1.14063,-0.42188 -0.51562,-0.23437 -0.90625,-0.54687 -0.375,-0.32813 -0.59375,-0.75 -0.21875,-0.42188 -0.21875,-1.01563 0,-0.375 0.17188,-0.82812 0.17187,-0.45313 0.59375,-0.84375 0.4375,-0.40625 1.17187,-0.65625 0.73438,-0.26563 1.8125,-0.26563 0.54688,0 1.20313,0.0625 0.65625,0.0625 1.35937,0.20313 v 1.40625 q -0.75,-0.17188 -1.42187,-0.25 -0.65625,-0.0937 -1.15625,-0.0937 -0.59375,0 -1,0.0937 -0.39063,0.0781 -0.65625,0.25 -0.25,0.15625 -0.35938,0.375 -0.10937,0.20312 -0.10937,0.45312 0,0.25 0.0937,0.45313 0.10937,0.1875 0.35937,0.375 0.26563,0.1875 0.71875,0.375 0.46875,0.1875 1.21875,0.40625 0.8125,0.23437 1.35938,0.5 0.5625,0.25 0.90625,0.57812 0.35937,0.3125 0.5,0.71875 0.15625,0.40625 0.15625,0.90625 z m 10.36667,2.5 h -1.42188 l -0.0625,-1.46875 q -0.40625,0.46875 -0.78125,0.78125 -0.35937,0.3125 -0.73437,0.51563 -0.35938,0.1875 -0.73438,0.25 -0.35937,0.0781 -0.76562,0.0781 -1.42188,0 -2.14063,-0.82812 -0.71875,-0.82813 -0.71875,-2.5 v -5.96875 h 1.59375 v 5.84375 q 0,2.10937 1.57813,2.10937 0.29687,0 0.5625,-0.0781 0.28125,-0.0937 0.57812,-0.3125 0.3125,-0.21875 0.65625,-0.57813 0.35938,-0.35937 0.79688,-0.92187 v -6.0625 h 1.59375 z m 8.77292,0 -0.0312,-1.23437 q -0.75,0.75 -1.51563,1.07812 -0.76562,0.3125 -1.625,0.3125 -0.78125,0 -1.34375,-0.1875 -0.54687,-0.20312 -0.90625,-0.54687 -0.35937,-0.35938 -0.53125,-0.82813 -0.15625,-0.48437 -0.15625,-1.03125 0,-1.375 1.01563,-2.15625 1.03125,-0.78125 3.03125,-0.78125 h 1.89062 v -0.79687 q 0,-0.8125 -0.51562,-1.29688 -0.51563,-0.5 -1.57813,-0.5 -0.78125,0 -1.53125,0.1875 -0.75,0.17188 -1.54687,0.48438 v -1.4375 q 0.29687,-0.10938 0.65625,-0.20313 0.375,-0.10937 0.78125,-0.1875 0.40625,-0.0781 0.85937,-0.125 0.45313,-0.0625 0.90625,-0.0625 0.82813,0 1.48438,0.1875 0.67187,0.17188 1.125,0.54688 0.46875,0.375 0.70312,0.95312 0.25,0.5625 0.25,1.32813 v 6.29687 z m -0.17188,-4.15625 h -2.01562 q -0.57813,0 -1.01563,0.125 -0.42187,0.10938 -0.70312,0.32813 -0.26563,0.21875 -0.40625,0.53125 -0.125,0.29687 -0.125,0.67187 0,0.26563 0.0781,0.51563 0.0781,0.23437 0.26563,0.42187 0.1875,0.1875 0.46875,0.29688 0.29687,0.10937 0.71875,0.10937 0.54687,0 1.25,-0.32812 0.70312,-0.34375 1.48437,-1.0625 z m 7.67917,-7.40625 h -2.70312 v -1.3125 h 4.29687 v 11.54688 h 2.73438 v 1.32812 h -7.34375 v -1.32812 h 3.01562 z"
         fill-rule="nonzero"
         id="path221" />
      <path
         fill="#010000"
         fill-opacity="0"
         d="m 434.9647,272.20486 v 0 21.84457 0 z"
         fill-rule="nonzero"
         id="path223" />
    </g>
  </g>
</svg>
