<?xml version="1.0" encoding="UTF-8" standalone="no"?>
<svg
   xmlns:dc="http://purl.org/dc/elements/1.1/"
   xmlns:cc="http://creativecommons.org/ns#"
   xmlns:rdf="http://www.w3.org/1999/02/22-rdf-syntax-ns#"
   xmlns:svg="http://www.w3.org/2000/svg"
   xmlns="http://www.w3.org/2000/svg"
   xmlns:sodipodi="http://sodipodi.sourceforge.net/DTD/sodipodi-0.dtd"
   xmlns:inkscape="http://www.inkscape.org/namespaces/inkscape"
   inkscape:version="1.0 (4035a4f, 2020-05-01)"
   height="374.9473"
   width="193.48462"
   sodipodi:docname="labels_4.svg"
   id="svg260"
   stroke-miterlimit="10"
   stroke-linecap="square"
   stroke="none"
   fill="none"
   viewBox="0 0 193.48462 374.9473"
   version="1.1">
  <metadata
     id="metadata266">
    <rdf:RDF>
      <cc:Work
         rdf:about="">
        <dc:format>image/svg+xml</dc:format>
        <dc:type
           rdf:resource="http://purl.org/dc/dcmitype/StillImage" />
      </cc:Work>
    </rdf:RDF>
  </metadata>
  <defs
     id="defs264" />
  <sodipodi:namedview
     inkscape:current-layer="g258"
     inkscape:window-maximized="0"
     inkscape:window-y="25"
     inkscape:window-x="0"
     inkscape:cy="177.46504"
     inkscape:cx="87.652506"
     inkscape:zoom="0.55635327"
     showgrid="false"
     id="namedview262"
     inkscape:window-height="480"
     inkscape:window-width="895"
     inkscape:pageshadow="2"
     inkscape:pageopacity="0"
     guidetolerance="10"
     gridtolerance="10"
     objecttolerance="10"
     borderopacity="1"
     bordercolor="#666666"
     pagecolor="#ffffff" />
  <clipPath
     id="p.0">
    <path
       id="path235"
       clip-rule="nonzero"
       d="M 0,0 H 960 V 720 H 0 Z" />
  </clipPath>
  <g
     transform="translate(-237.13144,-84.342731)"
     id="g258"
     clip-path="url(#p.0)">
    <path
       id="path238"
       fill-rule="evenodd"
       d="M 0,0 H 960 V 720 H 0 Z"
       fill-opacity="0"
       fill="#000000" />
    <path
       id="path240"
       fill-rule="evenodd"
       d="M 229.41731,74.110794 H 484.44095 V 116.12654 H 229.41731 Z"
       fill-opacity="0"
       fill="#000000" />
    <g
       id="g276">
      <path
         fill="#ffffff"
         d="m 237.77296,84.342731 h 102.9195 v 22.326349 h -102.9195 z"
         fill-rule="nonzero"
         id="path242"
         style="stroke-width:1.00004" />
      <path
         fill="#000000"
         fill-opacity="0"
         d="m 237.77296,88.393823 h 102.9195 v 21.772747 h -102.9195 z"
         fill-rule="nonzero"
         id="path244"
         style="stroke-width:1.00004" />
      <path
         fill="#000000"
         d="m 247.08557,97.485 q 0,1.214742 -0.34491,2.133587 -0.34492,0.903273 -0.95635,1.510643 -0.59576,0.5918 -1.42668,0.88769 -0.81524,0.2959 -1.77159,0.2959 -0.43898,0 -0.87795,-0.0467 -0.43898,-0.0467 -0.87796,-0.15574 v 3.81553 h -1.59914 V 93.093238 h 1.42668 l 0.0941,1.526216 q 0.68982,-0.934417 1.45803,-1.308185 0.78389,-0.38934 1.69321,-0.38934 0.78389,0 1.37964,0.327046 0.59576,0.327047 0.9877,0.934417 0.40762,0.591798 0.61144,1.432774 0.20381,0.825402 0.20381,1.868834 z m -1.63049,0.06229 q 0,-0.716387 -0.10975,-1.308185 -0.10974,-0.607372 -0.34491,-1.027859 -0.21949,-0.420488 -0.58008,-0.654092 -0.34491,-0.249178 -0.8466,-0.249178 -0.29788,0 -0.61143,0.09344 -0.31356,0.09344 -0.64279,0.327045 -0.32923,0.218031 -0.7055,0.591799 -0.36059,0.358193 -0.78389,0.90327 v 4.42291 q 0.43898,0.17131 0.92499,0.28033 0.48601,0.10901 0.94067,0.10901 1.28557,0 2.02243,-0.87212 0.73686,-0.872124 0.73686,-2.61637 z m 11.82838,-0.389336 q 0,0.34262 -0.0157,0.576224 0,0.218031 -0.0314,0.420488 h -6.44359 q 0,1.401627 0.78389,2.149164 0.79957,0.74753 2.27328,0.74753 0.40763,0 0.79957,-0.0311 0.40762,-0.0312 0.7839,-0.0779 0.37627,-0.0623 0.72118,-0.12459 0.34491,-0.0779 0.62711,-0.15574 v 1.29261 q -0.64278,0.18689 -1.47372,0.2959 -0.81525,0.10902 -1.6932,0.10902 -1.17584,0 -2.02244,-0.31147 -0.8466,-0.31148 -1.39532,-0.91885 -0.54873,-0.60737 -0.81525,-1.479492 -0.25084,-0.872122 -0.25084,-1.993423 0,-0.949991 0.2822,-1.80654 0.2822,-0.85655 0.81524,-1.510642 0.53305,-0.654091 1.30126,-1.027859 0.78389,-0.38934 1.77159,-0.38934 0.95635,0 1.6932,0.311472 0.75255,0.295899 1.25424,0.840976 0.50169,0.545076 0.76821,1.339331 0.26652,0.778681 0.26652,1.744246 z m -1.66184,-0.218031 q 0.0314,-0.60737 -0.12542,-1.105727 -0.14112,-0.513928 -0.45468,-0.872122 -0.29787,-0.373767 -0.75253,-0.576224 -0.45466,-0.202458 -1.06609,-0.202458 -0.51737,0 -0.95634,0.202458 -0.4233,0.202457 -0.73686,0.560649 -0.29788,0.358194 -0.50169,0.872124 -0.18813,0.51393 -0.23517,1.1213 z m 3.73863,0.90327 q 0,-1.168021 0.31356,-2.071291 0.31355,-0.90327 0.90931,-1.526215 0.59575,-0.622946 1.411,-0.934418 0.83092,-0.327046 1.84998,-0.327046 0.43898,0 0.86228,0.06229 0.4233,0.04671 0.83092,0.155737 v -3.831111 h 1.59913 V 102.2038 h -1.42667 l -0.047,-1.72867 q -0.67414,0.96557 -1.45803,1.43278 -0.76821,0.45163 -1.67753,0.45163 -0.78389,0 -1.37964,-0.31147 -0.59576,-0.32705 -1.00338,-0.91885 -0.39195,-0.60737 -0.59576,-1.43277 -0.18813,-0.840975 -0.18813,-1.853261 z m 1.61481,-0.109018 q 0,1.650804 0.48601,2.476205 0.50169,0.80983 1.39533,0.80983 0.59575,0 1.2699,-0.5295 0.67414,-0.54508 1.411,-1.604086 v -4.220452 q -0.39195,-0.186883 -0.86228,-0.280325 -0.47033,-0.09344 -0.94067,-0.09344 -1.30125,0 -2.03811,0.840976 -0.72118,0.825402 -0.72118,2.600794 z m 16.8923,-0.576224 q 0,0.342621 -0.0157,0.576224 0,0.218031 -0.0313,0.420488 h -6.44357 q 0,1.401627 0.78389,2.149157 0.79956,0.74754 2.27328,0.74754 0.40762,0 0.79956,-0.0311 0.40762,-0.0312 0.78389,-0.0779 0.37627,-0.0623 0.72118,-0.12459 0.34491,-0.0779 0.62711,-0.15574 v 1.29261 q -0.64279,0.18688 -1.47371,0.2959 -0.81525,0.10902 -1.6932,0.10902 -1.17584,0 -2.02244,-0.31148 -0.8466,-0.31147 -1.39532,-0.91884 -0.54872,-0.60737 -0.81525,-1.479495 -0.25084,-0.872122 -0.25084,-1.993422 0,-0.949991 0.2822,-1.80654 0.2822,-0.856551 0.81524,-1.510642 0.53305,-0.654092 1.30126,-1.02786 0.78389,-0.38934 1.77159,-0.38934 0.95635,0 1.6932,0.311472 0.75254,0.2959 1.25423,0.840976 0.50169,0.545077 0.76821,1.339331 0.26652,0.778682 0.26652,1.744246 z m -1.66185,-0.21803 q 0.0314,-0.607371 -0.12542,-1.105728 -0.1411,-0.513928 -0.45465,-0.872122 -0.29788,-0.373767 -0.75254,-0.576224 -0.45465,-0.202457 -1.06609,-0.202457 -0.51736,0 -0.95634,0.202457 -0.4233,0.202457 -0.73686,0.56065 -0.29788,0.358193 -0.50169,0.872123 -0.18813,0.51393 -0.23516,1.121301 z m 11.46779,2.772105 q 0,0.482784 -0.17246,0.872124 -0.15677,0.37377 -0.43898,0.66966 -0.2822,0.2959 -0.65846,0.51393 -0.37627,0.20246 -0.79957,0.34262 -0.4233,0.1246 -0.87796,0.18689 -0.45465,0.0623 -0.87795,0.0623 -0.92499,0 -1.70888,-0.0779 -0.78389,-0.0779 -1.53643,-0.26475 v -1.44835 q 0.79957,0.23361 1.59914,0.3582 0.79957,0.10902 1.58346,0.10902 1.14448,0 1.6932,-0.31148 0.54872,-0.31147 0.54872,-0.887694 0,-0.233604 -0.0941,-0.420488 -0.0784,-0.202457 -0.31355,-0.373767 -0.21949,-0.186884 -0.7055,-0.373766 -0.48602,-0.202458 -1.31694,-0.436062 -0.61143,-0.186884 -1.14448,-0.420487 -0.51736,-0.233605 -0.90931,-0.545078 -0.37627,-0.327046 -0.59575,-0.747534 -0.21949,-0.420488 -0.21949,-1.012285 0,-0.373767 0.17245,-0.825403 0.17246,-0.451634 0.59576,-0.840974 0.43898,-0.404915 1.17583,-0.654093 0.73686,-0.264752 1.81863,-0.264752 0.54872,0 1.20719,0.06229 0.65846,0.06229 1.36396,0.202457 v 1.401627 q -0.75253,-0.171311 -1.42667,-0.249179 -0.65847,-0.09344 -1.16016,-0.09344 -0.59576,0 -1.00338,0.09344 -0.39194,0.07787 -0.65847,0.249179 -0.25084,0.155736 -0.36059,0.373767 -0.10974,0.202457 -0.10974,0.451634 0,0.249178 0.0941,0.451636 0.10974,0.186882 0.36059,0.373766 0.26652,0.186883 0.72117,0.373767 0.47034,0.186884 1.22287,0.404915 0.81525,0.233604 1.36397,0.498355 0.5644,0.249179 0.90931,0.576224 0.36059,0.311473 0.50169,0.716388 0.15678,0.404913 0.15678,0.90327 z m 10.41737,2.367194 q -0.53305,0.14016 -1.11312,0.18688 -0.58008,0.0623 -1.17584,0.0623 -1.72456,0 -2.57116,-0.77868 -0.8466,-0.77868 -0.8466,-2.382765 v -4.749949 h -2.57115 v -1.323758 h 2.57115 v -2.507352 l 1.58346,-0.404915 v 2.912267 h 4.12326 v 1.323758 h -4.12326 v 4.625367 q 0,0.981137 0.51737,1.463917 0.53304,0.48279 1.5521,0.48279 0.43898,0 0.95634,-0.0623 0.53305,-0.0623 1.09745,-0.21804 z m 3.2683,-8.985984 h 1.45803 l 0.047,1.681951 q 0.81524,-0.981137 1.59913,-1.4172 0.79957,-0.436061 1.59913,-0.436061 1.42668,0 2.16354,0.918845 0.73686,0.918843 0.67414,2.725383 h -1.59913 q 0.0157,-1.199169 -0.36059,-1.728673 -0.37627,-0.545076 -1.11312,-0.545076 -0.31356,0 -0.64279,0.109018 -0.32924,0.109018 -0.67415,0.358194 -0.32923,0.249178 -0.72118,0.638518 -0.37626,0.38934 -0.81524,0.949991 v 5.855684 h -1.61481 z m 13.05124,1.308184 h -2.71226 v -1.308184 h 4.31139 v 7.786814 h 2.74361 v 1.32376 h -7.36856 v -1.32376 h 3.02582 z m 0.54872,-5.139295 q 0.26652,0 0.48601,0.09344 0.23517,0.09344 0.40762,0.280325 0.17246,0.17131 0.26653,0.38934 0.0941,0.218031 0.0941,0.482782 0,0.249179 -0.0941,0.482784 -0.0941,0.233603 -0.26653,0.404913 -0.17245,0.17131 -0.40762,0.264752 -0.21949,0.09344 -0.48601,0.09344 -0.26652,0 -0.50169,-0.09344 -0.21949,-0.09344 -0.39194,-0.264752 -0.15678,-0.17131 -0.26653,-0.404913 -0.0941,-0.233605 -0.0941,-0.482784 0,-0.264751 0.0941,-0.482782 0.10975,-0.21803 0.26653,-0.38934 0.17245,-0.186884 0.39194,-0.280325 0.23517,-0.09344 0.50169,-0.09344 z m 12.50252,12.941685 -0.0314,-1.23032 q -0.75253,0.74753 -1.52075,1.07458 -0.76821,0.31147 -1.63048,0.31147 -0.7839,0 -1.3483,-0.18688 -0.54872,-0.20246 -0.90931,-0.54508 -0.36059,-0.35819 -0.53304,-0.8254 -0.15678,-0.48278 -0.15678,-1.027859 0,-1.370479 1.01906,-2.149161 1.03473,-0.778681 3.04149,-0.778681 h 1.89701 v -0.794255 q 0,-0.809828 -0.51737,-1.29261 -0.51736,-0.498357 -1.58345,-0.498357 -0.78389,0 -1.53643,0.186884 -0.75253,0.17131 -1.5521,0.482782 V 93.49815 q 0.29788,-0.109018 0.65847,-0.202457 0.37627,-0.109018 0.78389,-0.186883 0.40762,-0.07787 0.86228,-0.124594 0.45465,-0.06229 0.90931,-0.06229 0.83092,0 1.48939,0.186884 0.67414,0.17131 1.1288,0.545077 0.47033,0.373766 0.7055,0.949991 0.25085,0.560651 0.25085,1.323757 v 6.276175 z m -0.17246,-4.142589 h -2.02243 q -0.58008,0 -1.01906,0.124594 -0.4233,0.109018 -0.7055,0.327046 -0.26652,0.21803 -0.40762,0.529503 -0.12542,0.295899 -0.12542,0.669666 0,0.264752 0.0784,0.51393 0.0784,0.2336 0.26652,0.42049 0.18814,0.18688 0.47034,0.2959 0.29788,0.10901 0.72118,0.10901 0.54872,0 1.25422,-0.32704 0.7055,-0.34262 1.48939,-1.059008 z m 4.56956,-4.967985 h 1.42667 l 0.0627,1.463921 q 0.39194,-0.467209 0.76821,-0.778682 0.37627,-0.311472 0.73685,-0.498355 0.36059,-0.202458 0.73686,-0.280325 0.37627,-0.07787 0.78389,-0.07787 1.411,0 2.13218,0.840976 0.73685,0.825402 0.73685,2.491779 v 5.94913 h -1.59913 v -5.82454 q 0,-1.074581 -0.40762,-1.572936 -0.39195,-0.51393 -1.19151,-0.51393 -0.2822,0 -0.5644,0.09344 -0.2822,0.07787 -0.58008,0.295898 -0.29788,0.202457 -0.65847,0.576224 -0.34491,0.358194 -0.78389,0.90327 v 6.042564 h -1.59913 z"
         fill-rule="nonzero"
         id="path246"
         style="stroke-width:1.00004" />
      <path
         fill="#010000"
         fill-opacity="0"
         d="m 340.69246,88.393823 v 0 21.772747 0 z"
         fill-rule="nonzero"
         id="path248"
         style="stroke-width:1.00004" />
      <path
         fill="#000000"
         fill-opacity="0"
         d="M 238.6315,107.66942 H 428.08833 V 457.78998 H 238.6315 Z"
         fill-rule="evenodd"
         id="path250"
         style="stroke-width:1.00004" />
      <path
         stroke="#000000"
         stroke-width="3.00012"
         stroke-linejoin="round"
         stroke-linecap="butt"
         d="M 238.6315,107.66942 H 428.08833 V 457.78998 H 238.6315 Z"
         fill-rule="evenodd"
         id="path252" />
      <path
         fill="#000000"
         fill-opacity="0"
         d="M 239.65915,106.64861 H 429.116 V 456.76913 H 239.65915 Z"
         fill-rule="evenodd"
         id="path254"
         style="stroke-width:1.00004" />
      <path
         stroke="#ffffff"
         stroke-width="3.00012"
         stroke-linejoin="round"
         stroke-linecap="butt"
         d="M 239.65915,106.64861 H 429.116 V 456.76913 H 239.65915 Z"
         fill-rule="evenodd"
         id="path256" />
    </g>
  </g>
</svg>
