<?xml version="1.0" encoding="utf-8"?>
<!-- Generator: Adobe Illustrator 23.0.3, SVG Export Plug-In . SVG Version: 6.00 Build 0)  -->
<svg version="1.1" id="Layer_1" xmlns="http://www.w3.org/2000/svg" xmlns:xlink="http://www.w3.org/1999/xlink" x="0px" y="0px"
	 viewBox="0 0 159 49" style="enable-background:new 0 0 159 49;" xml:space="preserve">
<style type="text/css">
	.st0{clip-path:url(#SVGID_2_);fill:#34A853;}
	.st1{clip-path:url(#SVGID_4_);fill:#00695C;}
	.st2{clip-path:url(#SVGID_6_);fill:#34A853;}
	.st3{clip-path:url(#SVGID_8_);fill:#34A853;}
	.st4{clip-path:url(#SVGID_10_);fill:#34A853;}
	.st5{clip-path:url(#SVGID_12_);fill:#34A853;}
</style>
<g>
	<defs>
		<path id="SVGID_1_" d="M8.2,26.4H4V22h4.2c2.7,0,4.9-2.2,4.9-4.9v-4.2h4.4v4.2C17.5,22.2,13.3,26.4,8.2,26.4"/>
	</defs>
	<clipPath id="SVGID_2_">
		<use xlink:href="#SVGID_1_"  style="overflow:visible;"/>
	</clipPath>
	<rect x="-1" y="7.9" class="st0" width="23.5" height="23.5"/>
</g>
<g>
	<defs>
		<path id="SVGID_3_" d="M17.5,35.4h-4.4v-4.2c0-5.1,4.2-9.3,9.3-9.3h4.2v4.4h-4.2c-2.7,0-4.9,2.2-4.9,4.9V35.4z"/>
	</defs>
	<clipPath id="SVGID_4_">
		<use xlink:href="#SVGID_3_"  style="overflow:visible;"/>
	</clipPath>
	<rect x="8.1" y="17" class="st1" width="23.5" height="23.5"/>
</g>
<g>
	<defs>
		<path id="SVGID_5_" d="M45.2,44.3h-5.2V4h13.7c3.4,0,6.4,1.1,8.9,3.4c2.5,2.3,3.7,5.1,3.7,8.6c0,3.5-1.2,6.3-3.7,8.6
			c-2.5,2.3-5.5,3.4-8.9,3.4h-8.6V44.3z M45.2,23h8.7c2.2,0,3.9-0.7,5.2-2.2c1.3-1.5,2-3.1,2-4.8c0-1.8-0.7-3.4-2-4.8
			C57.8,9.7,56.1,9,53.9,9h-8.7V23z"/>
	</defs>
	<clipPath id="SVGID_6_">
		<use xlink:href="#SVGID_5_"  style="overflow:visible;"/>
	</clipPath>
	<rect x="35.1" y="-1" class="st2" width="36.3" height="50.3"/>
</g>
<g>
	<defs>
		<path id="SVGID_7_" d="M67.2,44.3L82.4,4h5.9l15.2,40.3h-5.7l-3.9-10.9H76.9l-3.9,10.9H67.2z M78.6,28.6H92l-6.6-18.2h-0.2
			L78.6,28.6z"/>
	</defs>
	<clipPath id="SVGID_8_">
		<use xlink:href="#SVGID_7_"  style="overflow:visible;"/>
	</clipPath>
	<rect x="62.2" y="-1" class="st3" width="46.3" height="50.3"/>
</g>
<g>
	<defs>
		<rect id="SVGID_9_" x="110.4" y="4" width="5.2" height="40.3"/>
	</defs>
	<clipPath id="SVGID_10_">
		<use xlink:href="#SVGID_9_"  style="overflow:visible;"/>
	</clipPath>
	<rect x="105.4" y="-1" class="st4" width="15.2" height="50.3"/>
</g>
<g>
	<defs>
		<path id="SVGID_11_" d="M126.6,44.3V4h13.7c3.4,0,6.4,1.1,8.9,3.4c2.5,2.3,3.7,5.1,3.7,8.6c0,2.8-0.9,5.3-2.8,7.5
			c-1.8,2.2-4.1,3.5-6.9,4.1l-0.1,0.2l11.3,16.4v0.2h-6.1L137.5,28h-5.7v16.3H126.6z M131.7,23.1h8.3c2.1,0,3.8-0.7,5.3-2
			c1.5-1.4,2.2-3.1,2.2-5.1c0-1.8-0.7-3.4-2-4.8c-1.3-1.5-3.1-2.2-5.2-2.2h-8.7V23.1z"/>
	</defs>
	<clipPath id="SVGID_12_">
		<use xlink:href="#SVGID_11_"  style="overflow:visible;"/>
	</clipPath>
	<rect x="121.6" y="-1" class="st5" width="37.9" height="50.3"/>
</g>
</svg>
